<?xml version="1.0"?>
<svg xmlns="http://www.w3.org/2000/svg" xmlns:xlink="http://www.w3.org/1999/xlink" xmlns:svgjs="http://svgjs.com/svgjs" version="1.1" width="512" height="512" x="0" y="0" viewBox="0 0 496 496" style="enable-background:new 0 0 512 512" xml:space="preserve"><g>
<g xmlns="http://www.w3.org/2000/svg">
	<g>
		<g>
			<path d="M248,336c-22.056,0-40,17.944-40,40c0,12.504,6.032,24.328,16,31.832V464h48v-56.168c9.968-7.512,16-19.328,16-31.832     C288,353.944,270.056,336,248,336z M259.976,396.648L256,398.96V448h-16v-49.04l-3.976-2.312     C228.496,392.264,224,384.544,224,376c0-13.232,10.768-24,24-24s24,10.768,24,24C272,384.544,267.504,392.264,259.976,396.648z" fill="#ffffff" data-original="#000000" style=""/>
			<path d="M104,104c-22.056,0-40,17.944-40,40c0,22.056,17.944,40,40,40c22.056,0,40-17.944,40-40C144,121.944,126.056,104,104,104     z M104,168c-13.232,0-24-10.768-24-24s10.768-24,24-24s24,10.768,24,24S117.232,168,104,168z" fill="#ffffff" data-original="#000000" style=""/>
			<path d="M392,184c22.056,0,40-17.944,40-40c0-22.056-17.944-40-40-40c-22.056,0-40,17.944-40,40C352,166.056,369.944,184,392,184     z M392,120c13.232,0,24,10.768,24,24s-10.768,24-24,24s-24-10.768-24-24S378.768,120,392,120z" fill="#ffffff" data-original="#000000" style=""/>
			<path d="M248,104c-22.056,0-40,17.944-40,40c0,22.056,17.944,40,40,40c22.056,0,40-17.944,40-40C288,121.944,270.056,104,248,104     z M248,168c-13.232,0-24-10.768-24-24s10.768-24,24-24s24,10.768,24,24S261.232,168,248,168z" fill="#ffffff" data-original="#000000" style=""/>
			<path d="M352,288c79.4,0,144-64.6,144-144S431.4,0,352,0H144C64.6,0,0,64.6,0,144c0,32.864,11.344,64.856,32,90.424v100.912     C32,348.936,43.072,360,56.672,360c6.896,0,13.52-2.92,18.176-8l59.008-64.376C137.32,287.872,140.72,288,144,288h16v19.392     c-14.104,6.192-24,20.248-24,36.608v112c0,22.056,17.944,40,40,40h144c22.056,0,40-17.944,40-40V344     c0-16.36-9.896-30.416-24-36.608V288H352z M344,344v112c0,13.232-10.768,24-24,24H176c-13.232,0-24-10.768-24-24V344     c0-13.232,10.768-24,24-24h144C333.232,320,344,330.768,344,344z M248,224c-30.872,0-56,25.12-56,56v24h-16v-24     c0-39.696,32.296-72,72-72s72,32.304,72,72v24h-16v-24C304,249.12,278.872,224,248,224z M288,288v16h-80v-16H288z M208.808,272     c3.72-18.232,19.872-32,39.192-32s35.472,13.768,39.192,32H208.808z M335.592,272c-4.056-44.784-41.768-80-87.592-80     c-45.824,0-83.536,35.216-87.592,80H144c-4.08,0-8.2-0.208-12.608-0.64l-3.968-0.392l-64.368,70.216     c-1.632,1.792-3.96,2.816-6.384,2.816c-4.784,0-8.672-3.888-8.672-8.664V228.624l-1.88-2.232C26.696,203.344,16,174.08,16,144     C16,73.424,73.424,16,144,16h208c70.576,0,128,57.424,128,128s-57.424,128-128,128H335.592z" fill="#ffffff" data-original="#000000" style=""/>
		</g>
	</g>
</g>
<g xmlns="http://www.w3.org/2000/svg">
</g>
<g xmlns="http://www.w3.org/2000/svg">
</g>
<g xmlns="http://www.w3.org/2000/svg">
</g>
<g xmlns="http://www.w3.org/2000/svg">
</g>
<g xmlns="http://www.w3.org/2000/svg">
</g>
<g xmlns="http://www.w3.org/2000/svg">
</g>
<g xmlns="http://www.w3.org/2000/svg">
</g>
<g xmlns="http://www.w3.org/2000/svg">
</g>
<g xmlns="http://www.w3.org/2000/svg">
</g>
<g xmlns="http://www.w3.org/2000/svg">
</g>
<g xmlns="http://www.w3.org/2000/svg">
</g>
<g xmlns="http://www.w3.org/2000/svg">
</g>
<g xmlns="http://www.w3.org/2000/svg">
</g>
<g xmlns="http://www.w3.org/2000/svg">
</g>
<g xmlns="http://www.w3.org/2000/svg">
</g>
</g></svg>
