<svg width="286" height="286" viewBox="0 0 286 286" fill="none" xmlns="http://www.w3.org/2000/svg">
<g clip-path="url(#clip0)">
<path d="M153.962 233.402C153.158 227.917 148.47 223.673 142.742 223.673H88.0919C82.3759 223.673 77.6888 227.909 76.8778 233.402C71.0888 235.221 66.8398 240.577 66.8398 246.978V250.986H164V246.978C164 240.577 159.764 235.228 153.962 233.402Z" fill="#4F46E5"/>
<path d="M164.13 169.549C164.192 169.369 164.297 169.165 164.34 168.992L168.119 155.768C169.516 150.913 167.179 145.136 162.8 142.613L145.606 132.674C141.37 130.225 134.907 131.153 131.542 134.647L121.986 144.537C119.141 147.475 116.036 152.85 114.917 156.777L111.138 170.001C109.746 174.856 112.072 180.633 116.457 183.156L133.651 193.084C135.29 194.036 137.232 194.537 139.273 194.537C142.496 194.537 145.656 193.263 147.703 191.117L157.278 181.233C157.401 181.096 157.531 180.911 157.661 180.769L180.644 194.041C181.201 196.639 182.766 199.014 185.252 200.442L213.301 216.635C214.835 217.519 216.505 217.94 218.156 217.94C221.509 217.94 224.78 216.202 226.574 213.079C229.252 208.433 227.669 202.49 223.023 199.811L194.968 183.613C192.488 182.184 189.649 181.999 187.125 182.821L164.13 169.549Z" fill="#4F46E5"/>
<path d="M136.619 116.271C134.831 119.371 135.895 123.329 138.994 125.116L172.653 144.555C173.667 145.143 174.78 145.421 175.882 145.421C178.12 145.421 180.298 144.258 181.497 142.18C183.285 139.076 182.221 135.123 179.122 133.329L145.464 113.895C142.371 112.114 138.413 113.166 136.619 116.271Z" fill="#4F46E5"/>
<path d="M100.128 192.434L133.78 211.867C134.806 212.455 135.92 212.733 137.021 212.733C139.259 212.733 141.43 211.57 142.636 209.492C144.424 206.393 143.36 202.441 140.261 200.647L106.603 181.214C103.51 179.42 99.5399 180.484 97.7519 183.583C95.9649 186.682 97.0219 190.646 100.128 192.434Z" fill="#4F46E5"/>
<path d="M146.731 57.9221C144.306 55.8251 140.695 55.8251 138.27 57.9221L40.6459 142.124C39.2229 143.355 38.4009 145.143 38.4009 147.035V268.811C38.4009 272.393 41.3009 275.288 44.8819 275.288H240.118C243.699 275.288 246.599 272.393 246.599 268.811V147.035C246.599 145.142 245.777 143.355 244.354 142.124L146.731 57.9221ZM233.644 262.33H51.3579V149.998L142.501 71.3801L233.644 149.998V262.33Z" fill="#4F46E5"/>
<path d="M280.495 124.256L150.95 12.8461C146.088 8.67011 138.914 8.67011 134.052 12.8461L4.50693 124.256C-0.917071 128.919 -1.52907 137.096 3.12793 142.521C7.79793 147.939 15.9859 148.557 21.3989 143.9L142.501 39.7561L263.604 143.9C266.047 145.997 269.053 147.036 272.041 147.036C275.684 147.036 279.309 145.502 281.875 142.521C286.531 137.096 285.919 128.919 280.495 124.256Z" fill="#4F46E5"/>
</g>
<defs>
<clipPath id="clip0">
<rect width="285.002" height="285.002" fill="white"/>
</clipPath>
</defs>
</svg>
