<?xml version="1.0"?>
<svg xmlns="http://www.w3.org/2000/svg" xmlns:xlink="http://www.w3.org/1999/xlink" xmlns:svgjs="http://svgjs.com/svgjs" version="1.1" width="24" height="24" x="0" y="0" viewBox="0 0 24 24" style="enable-background:new 0 0 512 512" xml:space="preserve"><g><path xmlns="http://www.w3.org/2000/svg" d="m7 11c-1.103 0-2 .897-2 2v3.25c0 .414.336.75.75.75s.75-.336.75-.75v-1.25h1v1.25c0 .414.336.75.75.75s.75-.336.75-.75v-3.25c0-1.103-.897-2-2-2zm-.5 2.5v-.5c0-.276.224-.5.5-.5s.5.224.5.5v.5z" fill="#ffffff" data-original="#000000" style=""/><path xmlns="http://www.w3.org/2000/svg" d="m17.75 17c-.414 0-.75-.336-.75-.75v-4.5c0-.414.336-.75.75-.75s.75.336.75.75v4.5c0 .414-.336.75-.75.75z" fill="#ffffff" data-original="#000000" style=""/><path xmlns="http://www.w3.org/2000/svg" d="m21 1h-18c-1.654 0-3 1.346-3 3v16c0 1.654 1.346 3 3 3h18c1.654 0 3-1.346 3-3v-16c0-1.654-1.346-3-3-3zm0 20h-18c-.551 0-1-.448-1-1v-14h20v14c0 .552-.449 1-1 1z" fill="#ffffff" data-original="#000000" style=""/><path xmlns="http://www.w3.org/2000/svg" d="m11.75 17c-.414 0-.75-.336-.75-.75v-4.5c0-.414.336-.75.75-.75h1.25c1.103 0 2 .897 2 2s-.897 2-2 2h-.5v1.25c0 .414-.336.75-.75.75zm.75-3.5h.5c.276 0 .5-.224.5-.5s-.224-.5-.5-.5h-.5z" fill="#ffffff" data-original="#000000" style=""/></g></svg>
