<svg width="512" height="512" viewBox="0 0 512 512" fill="none" xmlns="http://www.w3.org/2000/svg">
<path d="M344.895 260.083C349.038 260.083 352.395 256.725 352.395 252.583V198.42C352.395 195.294 350.456 192.495 347.529 191.398L258.634 158.063C256.935 157.426 255.066 157.426 253.366 158.063L164.471 191.398C161.544 192.496 159.605 195.294 159.605 198.42V222.5C159.605 226.642 162.962 230 167.105 230C171.248 230 174.605 226.642 174.605 222.5V209.243L248.5 236.953V336.092L174.605 308.382V257.584C174.605 253.442 171.248 250.084 167.105 250.084C162.962 250.084 159.605 253.442 159.605 257.584V313.58C159.605 316.706 161.544 319.505 164.471 320.602L253.366 353.937C253.367 353.931 253.369 353.923 253.37 353.916C254.215 354.233 255.103 354.414 256.001 354.414C256.888 354.414 257.78 354.257 258.634 353.936L347.529 320.601C350.456 319.503 352.395 316.705 352.395 313.579V287.541C352.395 283.399 349.038 280.041 344.895 280.041C340.752 280.041 337.395 283.399 337.395 287.541V308.381L263.5 336.092V236.953L337.395 209.243V252.583C337.395 256.726 340.752 260.083 344.895 260.083V260.083ZM256 223.746L188.466 198.421L256 173.095L323.534 198.421L256 223.746Z" fill="#4F46E5"/>
<path d="M248.5 74.86V128.72C248.5 132.862 251.857 136.22 256 136.22C260.143 136.22 263.5 132.862 263.5 128.72V74.86C280.765 71.371 293.805 56.083 293.805 37.805C293.805 16.959 276.846 0 256 0C235.154 0 218.195 16.959 218.195 37.805C218.195 56.083 231.235 71.371 248.5 74.86ZM256 15C268.574 15 278.805 25.23 278.805 37.805C278.805 50.38 268.574 60.61 256 60.61C243.426 60.61 233.195 50.38 233.195 37.805C233.195 25.23 243.426 15 256 15Z" fill="#4F46E5"/>
<path d="M400.287 348.34C388.664 348.34 377.922 352.177 369.258 358.651L351.305 340.698C348.375 337.769 343.627 337.769 340.698 340.698C337.769 343.627 337.769 348.376 340.698 351.304L358.652 369.257C352.178 377.921 348.341 388.664 348.341 400.286C348.341 428.93 371.645 452.233 400.288 452.233C428.931 452.233 452.235 428.93 452.235 400.286C452.235 371.642 428.931 348.34 400.287 348.34V348.34ZM400.287 437.234C379.914 437.234 363.34 420.659 363.34 400.287C363.34 379.915 379.914 363.34 400.287 363.34C420.66 363.34 437.234 379.915 437.234 400.287C437.234 420.659 420.66 437.234 400.287 437.234Z" fill="#4F46E5"/>
<path d="M111.713 163.66C123.336 163.66 134.078 159.823 142.742 153.349L160.695 171.302C162.16 172.766 164.08 173.499 165.999 173.499C167.918 173.499 169.838 172.767 171.303 171.302C174.232 168.373 174.232 163.624 171.303 160.696L153.35 142.743C159.824 134.079 163.661 123.336 163.661 111.714C163.661 83.0701 140.357 59.7671 111.714 59.7671C83.071 59.7671 59.767 83.0701 59.767 111.714C59.767 140.358 83.069 163.66 111.713 163.66ZM111.713 74.7661C132.086 74.7661 148.66 91.3411 148.66 111.713C148.66 132.085 132.086 148.66 111.713 148.66C91.34 148.66 74.766 132.085 74.766 111.713C74.766 91.3411 91.34 74.7661 111.713 74.7661Z" fill="#4F46E5"/>
<path d="M263.5 437.14V383.28C263.5 379.138 260.143 375.78 256 375.78C251.857 375.78 248.5 379.138 248.5 383.28V437.14C231.235 440.629 218.195 455.917 218.195 474.195C218.195 495.041 235.154 512 256 512C276.846 512 293.805 495.041 293.805 474.195C293.805 455.917 280.765 440.629 263.5 437.14ZM256 497C243.426 497 233.195 486.77 233.195 474.195C233.195 461.62 243.426 451.39 256 451.39C268.574 451.39 278.805 461.62 278.805 474.195C278.805 486.77 268.574 497 256 497Z" fill="#4F46E5"/>
<path d="M474.195 218.195C455.917 218.195 440.629 231.235 437.14 248.5H383.28C379.137 248.5 375.78 251.858 375.78 256C375.78 260.142 379.137 263.5 383.28 263.5H437.14C440.629 280.765 455.917 293.805 474.195 293.805C495.041 293.805 512 276.846 512 256C512 235.154 495.041 218.195 474.195 218.195ZM474.195 278.805C461.621 278.805 451.39 268.575 451.39 256C451.39 243.425 461.62 233.195 474.195 233.195C486.77 233.195 497 243.425 497 256C497 268.575 486.77 278.805 474.195 278.805Z" fill="#4F46E5"/>
<path d="M74.86 263.5H128.72C132.863 263.5 136.22 260.142 136.22 256C136.22 251.858 132.863 248.5 128.72 248.5H74.86C71.371 231.235 56.083 218.195 37.805 218.195C16.959 218.195 0 235.154 0 256C0 276.846 16.959 293.805 37.805 293.805C56.083 293.805 71.371 280.765 74.86 263.5ZM37.805 278.805C25.23 278.805 15 268.575 15 256C15 243.425 25.23 233.195 37.805 233.195C50.38 233.195 60.609 243.425 60.609 256C60.609 268.575 50.379 278.805 37.805 278.805V278.805Z" fill="#4F46E5"/>
<path d="M346.001 173.499C347.92 173.499 349.84 172.767 351.305 171.302L369.258 153.349C377.922 159.823 388.665 163.66 400.287 163.66C428.931 163.66 452.234 140.357 452.234 111.713C452.234 83.0691 428.93 59.7661 400.287 59.7661C371.644 59.7661 348.34 83.0691 348.34 111.713C348.34 123.336 352.177 134.078 358.651 142.742L340.697 160.695C337.768 163.624 337.768 168.373 340.697 171.301C342.162 172.767 344.082 173.499 346.001 173.499V173.499ZM400.287 74.7661C420.66 74.7661 437.234 91.3411 437.234 111.713C437.234 132.085 420.66 148.66 400.287 148.66C379.914 148.66 363.34 132.085 363.34 111.713C363.34 91.3411 379.914 74.7661 400.287 74.7661Z" fill="#4F46E5"/>
<path d="M160.695 340.698L142.742 358.651C134.078 352.177 123.335 348.34 111.713 348.34C83.069 348.34 59.766 371.643 59.766 400.287C59.766 428.931 83.07 452.234 111.713 452.234C140.356 452.234 163.66 428.931 163.66 400.287C163.66 388.664 159.823 377.922 153.349 369.258L171.302 351.305C174.231 348.376 174.231 343.627 171.302 340.699C168.373 337.769 163.625 337.769 160.695 340.698V340.698ZM111.713 437.234C91.34 437.234 74.766 420.659 74.766 400.287C74.766 379.915 91.34 363.34 111.713 363.34C132.086 363.34 148.66 379.915 148.66 400.287C148.66 420.659 132.086 437.234 111.713 437.234Z" fill="#4F46E5"/>
</svg>
