<svg width="512" height="512" viewBox="0 0 512 512" fill="none" xmlns="http://www.w3.org/2000/svg">
<g clip-path="url(#clip0)">
<path d="M361 209.868C303.537 209.868 253.473 242.15 227.962 289.535L175.753 262.021C185.551 237.04 183.883 208.44 170.389 184.417L251.504 125.391C297.501 164.086 368.129 131.116 368.129 71.027C368.129 31.862 336.278 0 297.129 0C244.569 0 210.696 55.059 233.093 101.686L151.582 161.001C93.21 108.801 0 150.538 0 228.87C0 279.068 40.822 319.907 91 319.907C118.733 319.907 143.603 307.428 160.308 287.793L216.413 317.36C187.166 414.31 260.186 512 361 512C444.262 512 512 444.232 512 360.934C512 277.636 444.262 209.868 361 209.868V209.868ZM297.128 30C319.735 30 338.128 48.405 338.128 71.027C338.128 93.649 319.735 112.054 297.128 112.054C274.521 112.054 256.128 93.649 256.128 71.027C256.128 48.405 274.521 30 297.128 30ZM91 289.907C57.364 289.907 30 262.526 30 228.87C30 195.214 57.364 167.833 91 167.833C124.636 167.833 152 195.214 152 228.87C152 262.526 124.636 289.907 91 289.907ZM361 239.868C458.684 239.868 515.202 349.808 460.905 429.156C452.424 410.783 438.894 394.956 421.749 383.531C452.121 335.874 417.765 272.883 361 272.883C304.681 272.883 270.311 334.943 299.646 382.588C282.411 393.652 268.707 409.16 259.918 427.4C207.307 347.569 264.599 239.868 361 239.868V239.868ZM318.988 344.922C318.988 321.741 337.835 302.883 361 302.883C384.165 302.883 403.012 321.742 403.012 344.922C403.012 368.102 384.165 386.962 361 386.962C337.835 386.962 318.988 368.103 318.988 344.922ZM282.218 452.746C288.188 432.262 302.1 415.063 320.997 404.79C344.809 420.766 375.884 421.081 400.065 405.392C418.611 415.877 432.494 433.284 438.162 454.117C392.784 491.799 326.982 491.254 282.218 452.746V452.746Z" fill="#4F46E5"/>
</g>
<defs>
<clipPath id="clip0">
<rect width="512" height="512" fill="white"/>
</clipPath>
</defs>
</svg>
