<svg width="24" height="24" viewBox="0 0 24 24" fill="none" xmlns="http://www.w3.org/2000/svg">
<path d="M12.7645 9.59373C12.7231 9.41339 12.5644 9.28761 12.3736 9.29419C12.1882 9.30077 12.0337 9.43777 12.0051 9.62082L11.1167 15.2436L10.0498 11.5098C10.0022 11.343 9.8497 11.2288 9.67745 11.2288C9.67474 11.2288 9.67164 11.2288 9.66893 11.2288C9.49319 11.2327 9.34183 11.355 9.30119 11.526L7.92003 17.3241L7.35332 10.8085C7.33822 10.6359 7.21048 10.4943 7.04016 10.4618C6.86945 10.4308 6.69874 10.5144 6.62132 10.6688L4.79306 14.3248H3.0968V15.0989H5.03229C5.179 15.0989 5.31293 15.016 5.37874 14.8848L6.70106 12.2404L7.35641 19.7762C7.37267 19.9654 7.52441 20.1148 7.7137 20.1287C7.723 20.1295 7.73267 20.1299 7.74235 20.1299C7.92003 20.1299 8.0768 20.008 8.11861 19.8323L9.71151 13.1433L10.8534 17.1399C10.9038 17.3144 11.0718 17.4364 11.2491 17.4197C11.4306 17.4089 11.5796 17.273 11.6079 17.0939L12.4583 11.7103L13.171 14.7985C13.2116 14.9746 13.368 15.0989 13.5484 15.0989H15.4839V14.3248H13.8565L12.7645 9.59373Z" fill="white"/>
<path d="M22.8387 0H15.0968C14.4565 0 13.9355 0.520906 13.9355 1.16101V6.6669C12.5272 5.85187 10.9359 5.42385 9.29032 5.42385C4.16787 5.42385 0 9.59071 0 14.7119C0 19.8331 4.16787 24 9.29032 24C14.4128 24 18.5806 19.8331 18.5806 14.7119C18.5806 13.2378 18.2245 11.7819 17.5564 10.4781L19.5151 8.51987H22.8387C23.479 8.51987 24 7.99897 24 7.35886V1.16101C24 0.520906 23.479 0 22.8387 0V0ZM17.8065 14.7119C17.8065 19.4067 13.9862 23.226 9.29032 23.226C4.59445 23.226 0.774194 19.4067 0.774194 14.7119C0.774194 10.0172 4.59445 6.19786 9.29032 6.19786C10.9626 6.19786 12.5721 6.68354 13.9603 7.59648C14.0702 8.12281 14.5378 8.51987 15.0968 8.51987H16.2693L15.5214 10.1225C14.0648 8.13906 11.7852 6.97186 9.29032 6.97186C5.02142 6.97186 1.54839 10.4441 1.54839 14.7119C1.54839 18.9798 5.02142 22.452 9.29032 22.452C13.5592 22.452 17.0323 18.9798 17.0323 14.7119C17.0323 13.6411 16.8163 12.6093 16.3951 11.6391L16.9815 11.0528C17.5223 12.1898 17.8065 13.4441 17.8065 14.7119V14.7119ZM16.2581 14.7119C16.2581 18.5529 13.1323 21.678 9.29032 21.678C5.44839 21.678 2.32258 18.5529 2.32258 14.7119C2.32258 10.8709 5.44839 7.74587 9.29032 7.74587C11.6803 7.74587 13.8511 8.9359 15.1421 10.9355L14.359 12.6136C14.2796 12.7839 14.3338 12.9863 14.4879 13.0943C14.5548 13.1407 14.6323 13.1639 14.7097 13.1639C14.8095 13.1639 14.9086 13.1252 14.9834 13.0505L15.797 12.237C16.0974 13.025 16.2581 13.8536 16.2581 14.7119ZM23.2258 7.35886C23.2258 7.5721 23.0524 7.74587 22.8387 7.74587H19.3548C19.2519 7.74587 19.1535 7.7865 19.0812 7.85926L15.9898 10.9503L17.2281 8.29657C17.2843 8.1766 17.275 8.03651 17.2041 7.92505C17.1329 7.81321 17.0094 7.74587 16.8774 7.74587H15.0968C14.8831 7.74587 14.7097 7.5721 14.7097 7.35886V1.16101C14.7097 0.947771 14.8831 0.774006 15.0968 0.774006H22.8387C23.0524 0.774006 23.2258 0.947771 23.2258 1.16101V7.35886Z" fill="white"/>
<g clip-path="url(#clip0)">
<path d="M20.2307 4.43844C19.7252 4.43844 19.3162 4.94964 19.3162 5.58131C19.3162 6.21298 19.7252 6.72418 20.2307 6.72418C20.7361 6.72418 21.1452 6.21298 21.1452 5.58131C21.1452 4.94964 20.7361 4.43844 20.2307 4.43844ZM20.6371 5.63123C20.6371 5.67361 20.6094 5.70829 20.5755 5.70829H20.1908C20.1569 5.70829 20.1291 5.67361 20.1291 5.63123V5.02353C20.1291 4.98114 20.1569 4.94646 20.1908 4.94646H20.2706C20.3045 4.94646 20.3323 4.98114 20.3323 5.02353V5.45432H20.5755C20.6094 5.45432 20.6371 5.48901 20.6371 5.53139V5.63123ZM20.2307 4.18447C20.265 4.18447 20.2988 4.18709 20.3323 4.1909V3.80351C20.3323 3.60034 20.19 3.42256 20.0275 3.42256H19.5194V3.0416C19.5194 2.83842 19.3771 2.66064 19.2146 2.66064H18.1984C18.0358 2.66064 17.8936 2.83842 17.8936 3.0416V3.42256H17.3855C17.2229 3.42256 17.0807 3.60034 17.0807 3.80351V4.43844H19.59C19.7717 4.27899 19.9923 4.18447 20.2307 4.18447ZM19.1129 3.42256H18.3V3.16859H19.1129V3.42256ZM19.1563 5.20035H18.4017C18.3455 5.20035 18.3 5.14353 18.3 5.07337V4.69241H17.0807V5.83528C17.0807 6.03846 17.2229 6.21624 17.3855 6.21624H19.2363C19.158 6.02544 19.1129 5.81004 19.1129 5.58131C19.1129 5.44909 19.1287 5.32162 19.1563 5.20035Z" fill="white"/>
</g>
<defs>
<clipPath id="clip0">
<rect width="4.06452" height="4.06353" fill="white" transform="translate(17.0807 2.66064)"/>
</clipPath>
</defs>
</svg>
