<svg xmlns="http://www.w3.org/2000/svg" viewBox="0 0 1014.3 247.41"><defs><style>.cls-1{fill:#fff;}</style></defs><g id="Layer_2" data-name="Layer 2"><g id="Layer_1-2" data-name="Layer 1"><polygon class="cls-1" points="151.53 30.13 139.32 51.28 174.12 51.28 203.72 0 50.51 0 33.12 30.13 151.53 30.13"/><polygon class="cls-1" points="196.71 102.56 179.31 72.43 102.7 72.43 114.91 51.28 80.12 51.28 59.21 87.49 80.12 123.71 114.91 123.71 102.7 102.56 196.71 102.56"/><polygon class="cls-1" points="33.12 144.85 50.51 174.99 127.12 174.99 114.91 196.13 114.91 196.13 149.71 196.13 170.61 159.92 149.71 123.71 148.41 123.71 114.91 123.71 127.12 144.85 33.12 144.85"/><polygon class="cls-1" points="78.28 217.28 90.49 196.13 55.7 196.13 26.09 247.41 179.31 247.41 196.71 217.28 78.28 217.28"/><polygon class="cls-1" points="34.8 87.49 55.7 51.28 20.91 51.28 0 87.49 7.79 100.98 20.91 123.71 55.7 123.71 34.8 87.49"/><polygon class="cls-1" points="208.91 123.71 174.12 123.71 195.03 159.92 174.12 196.13 208.91 196.13 229.82 159.92 208.91 123.71"/><path class="cls-1" d="M388.62,163.59a38,38,0,0,1-10.56,13.6,47,47,0,0,1-16.13,8.41,69.6,69.6,0,0,1-20.79,2.91A92.82,92.82,0,0,1,309.71,183a83,83,0,0,1-28-16.91l18.21-21.82a91.68,91.68,0,0,0,19.72,12.42,52.78,52.78,0,0,0,22.12,4.6q9.6,0,14.91-3.51a11,11,0,0,0,5.31-9.7v-.41a12.14,12.14,0,0,0-1.1-5.29,11.09,11.09,0,0,0-4.22-4.31,43,43,0,0,0-8.63-4q-5.52-2-14.35-4.22a179.93,179.93,0,0,1-19.27-5.78,53.93,53.93,0,0,1-14.65-7.92,32.11,32.11,0,0,1-9.34-11.71q-3.3-7-3.3-17.4v-.42a40.62,40.62,0,0,1,3.58-17.32,39.24,39.24,0,0,1,10-13.29,44.64,44.64,0,0,1,15.44-8.61,62,62,0,0,1,19.77-3A83.8,83.8,0,0,1,364.26,49,82.2,82.2,0,0,1,388,62.2L372,85.42a100.75,100.75,0,0,0-18.4-10.12,47.29,47.29,0,0,0-18-3.7c-6,0-10.51,1.18-13.51,3.51a10.63,10.63,0,0,0-4.49,8.72v.38a12.52,12.52,0,0,0,1.3,5.92,11.73,11.73,0,0,0,4.71,4.5,44.74,44.74,0,0,0,9.34,3.81q5.91,1.8,14.95,4.19a144.73,144.73,0,0,1,19,6.31,53,53,0,0,1,14,8.41,32.11,32.11,0,0,1,8.64,11.51,39.21,39.21,0,0,1,2.9,15.82v.38A43.59,43.59,0,0,1,388.62,163.59Z"/><path class="cls-1" d="M493.08,82.43,450.65,186.51H419.22l60-141.11h28.43l60.05,141.11H535.51Z"/><path class="cls-1" d="M978.27,186.51l-31.42-48-31.62,48h-35L929,115.24,882.2,46.39h36l29.42,45.44,29.62-45.44h35l-46.83,68.47,48.83,71.65Z"/><polygon class="cls-1" points="744.69 159.1 744.69 186.51 851.18 186.51 851.18 159.1 775.12 159.1 744.69 159.1"/><polygon class="cls-1" points="744.69 46.39 744.69 73.8 851.18 73.8 851.18 46.39 775.12 46.39 744.69 46.39"/><polygon class="cls-1" points="744.69 102.74 744.69 130.15 851.18 130.15 851.18 102.74 775.12 102.74 744.69 102.74"/><polygon class="cls-1" points="628.77 102.74 601.37 102.74 601.37 186.51 628.77 186.51 628.77 126.68 628.77 102.74"/><polygon class="cls-1" points="601.47 46.39 601.47 73.8 707.96 73.8 707.96 46.39 631.89 46.39 601.47 46.39"/><polygon class="cls-1" points="601.47 102.74 601.47 130.15 699.04 130.15 699.04 102.74 629.34 102.74 601.47 102.74"/></g></g></svg>