<svg width="562" height="302" viewBox="0 0 562 302" fill="none" xmlns="http://www.w3.org/2000/svg">
<path d="M15.0551 280.03C22.0651 287.6 29.6351 294.42 37.6651 300.61C40.0251 302.43 51.0251 300.61 53.8451 300.61C91.4951 300.61 129.155 300.61 166.805 300.61C221.545 300.61 276.285 300.61 331.025 300.61C380.335 300.61 429.645 300.61 478.945 300.61C494.525 300.61 510.105 300.61 525.685 300.61C529.675 300.61 537.185 301.99 540.885 300.38C548.685 296.98 545.125 281.41 544.415 274.31C543.315 263.3 540.735 252.29 534.845 242.8C518.755 216.88 490.615 207.62 468.465 188.44C446.825 169.69 431.815 144.65 414.025 122.21C400.135 104.69 384.415 88.62 367.205 74.36C356.235 65.27 344.365 56.76 330.715 52.67C318.775 49.1 306.025 49.09 293.635 50.51C257.335 54.67 222.555 71.12 196.335 96.56C166.725 125.27 142.145 167.88 103.075 184.68C81.6751 193.88 57.5351 195.11 36.0851 204.19C14.6351 213.27 -4.91486 235.25 1.10514 257.76C3.38514 266.31 9.03514 273.53 15.0551 280.03Z" fill="#E3EFFF"/>
<path d="M526.165 209.95C530.305 210.64 534.735 210.62 538.485 208.74C540.365 207.79 542.135 206.17 542.315 204.08C542.395 203.14 542.145 202.2 541.835 201.31C539.255 193.8 532.805 188.34 526.375 183.67C521.575 180.18 516.345 176.8 510.445 176.25C497.985 175.08 494.355 184.92 500.765 193.89C506.735 202.23 516.015 208.25 526.165 209.95Z" fill="#E3EFFF"/>
<path d="M175.965 144.37C139.165 135.02 128.825 115.59 128.825 115.59H124.575H90.615H77.135C77.135 115.59 66.795 135.03 29.995 144.37C29.995 144.37 5.60503 241.34 99.605 299.99H106.365C200.355 241.34 175.965 144.37 175.965 144.37Z" fill="#6D89C9"/>
<path d="M164.385 154.43C133.425 146.57 124.725 130.21 124.725 130.21H121.145H92.575H81.235C81.235 130.21 72.535 146.56 41.575 154.43C41.575 154.43 21.055 236.01 100.135 285.35H105.825C184.905 236.02 164.385 154.43 164.385 154.43Z" fill="#5872B4"/>
<path d="M159.415 158.75C130.965 151.52 122.965 136.49 122.965 136.49H119.675H93.415H82.995C82.995 136.49 74.995 151.52 46.545 158.75C46.545 158.75 27.685 233.73 100.375 279.08H105.605C178.275 233.73 159.415 158.75 159.415 158.75Z" fill="#BED1F9"/>
<path d="M150.634 211.639C156.767 185.316 140.4 159.005 114.076 152.872C87.7529 146.739 61.4419 163.107 55.3091 189.43C49.1762 215.753 65.5439 242.064 91.8673 248.197C118.191 254.33 144.502 237.962 150.634 211.639Z" fill="#A1BAF0"/>
<path d="M108.015 241.417C130.61 238.635 146.671 218.063 143.889 195.469C141.107 172.874 120.536 156.813 97.9411 159.595C75.3467 162.377 59.2855 182.948 62.0674 205.543C64.8493 228.137 85.4209 244.198 108.015 241.417Z" fill="#DDE8FA"/>
<path d="M82.955 203.16L100.705 214.1L123.275 175.31L127.335 178.04L103.895 225.72L78.625 211.83L82.955 203.16Z" fill="#6D89C9"/>
<path d="M489.705 138.18L498.225 134.69L500.515 127.46L495.565 119.7L504.085 116.21L506.375 108.97L501.425 101.22L509.935 97.7301L513.565 86.2701L510.915 65.1301L497.705 60.9401L483.985 76.9001L440.835 213.1L470.415 222.47L494.665 145.94L489.705 138.18Z" fill="#6D89C9"/>
<path d="M445.985 196.86L440.845 213.09L470.425 222.46L476.065 204.67C467.435 199.69 457.435 196.83 446.755 196.83C446.485 196.84 446.235 196.86 445.985 196.86Z" fill="#5672B3"/>
<path d="M492.93 78.1093L449.318 215.775L453.093 216.971L496.705 79.3053L492.93 78.1093Z" fill="#5672B3"/>
<path d="M453.105 216.98L459.065 198.16C457.765 197.88 456.455 197.65 455.135 197.45L449.325 215.78L453.105 216.98Z" fill="#486096"/>
<path d="M446.745 203.54C418.225 203.54 395.105 226.66 395.105 255.18C395.105 274.69 405.925 291.66 421.885 300.45H471.615C487.575 291.66 498.395 274.69 498.395 255.18C498.385 226.66 475.265 203.54 446.745 203.54ZM446.745 282.75C431.525 282.75 419.185 270.41 419.185 255.19C419.185 239.97 431.525 227.63 446.745 227.63C461.965 227.63 474.305 239.97 474.305 255.19C474.305 270.41 461.965 282.75 446.745 282.75Z" fill="#BED1F9"/>
<path d="M446.745 298.38C470.605 298.38 489.945 279.04 489.945 255.18C489.945 231.32 470.605 211.98 446.745 211.98C422.885 211.98 403.545 231.32 403.545 255.18C403.545 279.04 422.885 298.38 446.745 298.38ZM446.745 225.07C463.375 225.07 476.855 238.55 476.855 255.18C476.855 271.81 463.375 285.29 446.745 285.29C430.115 285.29 416.635 271.81 416.635 255.18C416.635 238.55 430.115 225.07 446.745 225.07Z" fill="#A1BAF0"/>
<path d="M446.745 294.72C468.585 294.72 486.285 277.02 486.285 255.18C486.285 233.34 468.585 215.64 446.745 215.64C424.905 215.64 407.205 233.34 407.205 255.18C407.205 277.02 424.905 294.72 446.745 294.72ZM446.745 227.62C461.965 227.62 474.305 239.96 474.305 255.18C474.305 270.4 461.965 282.74 446.745 282.74C431.525 282.74 419.185 270.4 419.185 255.18C419.185 239.96 431.525 227.62 446.745 227.62Z" fill="#6D89C9"/>
<path d="M555.885 253.23C555.885 252.61 555.845 252 555.795 251.39L561.675 248.56L559.225 241.02L552.795 242.18C552.155 241.13 551.445 240.14 550.645 239.21L553.735 233.46L547.315 228.8L542.815 233.5C541.695 233.03 540.515 232.66 539.315 232.38L538.435 225.91H530.505L529.625 232.38C528.415 232.66 527.245 233.02 526.125 233.5L521.625 228.8L515.205 233.46L518.295 239.21C517.495 240.13 516.775 241.13 516.145 242.18L509.715 241.02L507.265 248.56L513.145 251.39C513.095 252 513.055 252.61 513.055 253.23C513.055 253.85 513.095 254.46 513.145 255.07L507.265 257.9L509.715 265.44L516.145 264.28C516.785 265.33 517.495 266.32 518.295 267.25L515.205 273L521.625 277.66L526.125 272.96C527.245 273.43 528.425 273.8 529.625 274.08L530.505 280.55H538.435L539.315 274.08C540.525 273.8 541.695 273.44 542.815 272.96L547.315 277.66L553.735 273L550.645 267.25C551.445 266.33 552.165 265.33 552.795 264.28L559.225 265.44L561.675 257.9L555.795 255.07C555.845 254.46 555.885 253.85 555.885 253.23ZM534.465 265.2C527.855 265.2 522.495 259.84 522.495 253.23C522.495 246.62 527.855 241.26 534.465 241.26C541.075 241.26 546.435 246.62 546.435 253.23C546.435 259.84 541.075 265.2 534.465 265.2Z" fill="#BED1F9"/>
<path d="M534.465 270.73C544.125 270.73 551.965 262.9 551.965 253.23C551.965 243.57 544.135 235.73 534.465 235.73C524.805 235.73 516.965 243.56 516.965 253.23C516.975 262.89 524.805 270.73 534.465 270.73ZM534.465 241.26C541.075 241.26 546.435 246.62 546.435 253.23C546.435 259.84 541.075 265.2 534.465 265.2C527.855 265.2 522.495 259.84 522.495 253.23C522.505 246.62 527.865 241.26 534.465 241.26Z" fill="#A1BAF0"/>
<path d="M524.825 176.7H479.575V185.39H524.825V176.7Z" fill="#FFBA53"/>
<path d="M522.245 159.33H476.995V168.02H522.245V159.33Z" fill="#FFBA53"/>
<path d="M526.425 150.64H481.175V159.33H526.425V150.64Z" fill="#FFD353"/>
<path d="M517.705 168.01H472.455V176.7H517.705V168.01Z" fill="#FFD353"/>
<path d="M376.675 77.97L338.505 68.59C336.415 68.08 335.135 65.96 335.645 63.87L340.785 42.94C341.295 40.85 343.415 39.57 345.505 40.08L383.675 49.46C385.765 49.97 387.045 52.09 386.535 54.18L381.395 75.11C380.875 77.2 378.765 78.48 376.675 77.97Z" fill="#6D89C9"/>
<path d="M361.095 72.34C368.452 72.34 374.415 66.3764 374.415 59.0199C374.415 51.6635 368.452 45.7 361.095 45.7C353.739 45.7 347.775 51.6635 347.775 59.0199C347.775 66.3764 353.739 72.34 361.095 72.34Z" fill="#B1C9F1"/>
<path d="M353.865 63.53L356.715 51.95C356.965 50.95 358.165 50.55 358.955 51.2L369.505 59.83C370.405 60.57 370.065 62.03 368.925 62.28L355.525 65.23C354.515 65.46 353.625 64.54 353.865 63.53Z" fill="white"/>
<path d="M324.715 59.58L304.495 54.61C303.445 54.35 302.795 53.29 303.055 52.24L305.835 40.91C306.095 39.86 307.155 39.21 308.205 39.47L328.425 44.44C329.475 44.7 330.125 45.76 329.865 46.81L327.085 58.14C326.825 59.2 325.765 59.84 324.715 59.58Z" fill="#B1C9F1"/>
<path d="M376.525 34.87L359.925 30.79C358.875 30.53 358.225 29.47 358.485 28.42L360.705 19.38C360.965 18.33 362.025 17.68 363.075 17.94L379.675 22.02C380.725 22.28 381.375 23.34 381.115 24.39L378.895 33.43C378.645 34.48 377.575 35.13 376.525 34.87Z" fill="#BED1F9"/>
<path d="M339.255 182.92L245.765 159.94C242.645 159.17 240.735 156.02 241.505 152.9L262.625 66.97C263.395 63.85 266.545 61.94 269.665 62.71L363.155 85.69C366.275 86.46 368.185 89.61 367.415 92.73L346.295 178.66C345.525 181.78 342.375 183.69 339.255 182.92Z" fill="#6D89C9"/>
<path d="M337.375 178.65L249.405 157.03C246.895 156.41 245.365 153.88 245.985 151.38L265.885 70.41C266.505 67.9 269.035 66.37 271.535 66.99L359.505 88.61C362.015 89.23 363.545 91.76 362.925 94.26L343.025 175.23C342.415 177.73 339.885 179.26 337.375 178.65Z" fill="#5672B3"/>
<path d="M335.805 176.25L251.915 155.63C249.405 155.01 247.875 152.48 248.495 149.98L267.465 72.8C268.085 70.29 270.615 68.76 273.115 69.38L357.005 90C359.515 90.62 361.045 93.15 360.425 95.65L341.455 172.83C340.835 175.33 338.305 176.87 335.805 176.25Z" fill="#E3EDF7"/>
<path d="M348.925 105.71C348.925 112.05 343.785 117.19 337.445 117.19C331.105 117.19 325.965 112.05 325.965 105.71C325.965 99.37 331.105 94.23 337.445 94.23C343.785 94.23 348.925 99.37 348.925 105.71Z" fill="white"/>
<path d="M290.465 105.06C280.945 101.38 254.135 125.37 254.135 125.37L248.375 148.82C247.785 151.24 249.255 153.68 251.675 154.27L312.025 169.1L321.535 164.05L305.625 140.01C305.625 140.02 297.905 107.94 290.465 105.06Z" fill="#A7BDE3"/>
<path d="M326.535 125.71C318.045 126.12 285.195 150.88 276.955 161.79L336.325 176.38C338.545 176.93 340.785 175.57 341.325 173.35L348.335 144.82C343.475 138.18 333.225 125.38 326.535 125.71Z" fill="#B1C9F1"/>
<path d="M262.935 158.34C262.935 158.34 293.455 129.9 302.275 127.82C311.095 125.75 324.635 173.5 324.635 173.5L262.935 158.34Z" fill="#BED1F1"/>
<path d="M274.475 125.71C272.645 124.37 261.855 131.64 251.025 139.66L248.485 149.98C247.865 152.49 249.405 155.02 251.905 155.63L281.845 162.99C281.855 162.99 278.345 128.53 274.475 125.71Z" fill="#C9D9F5"/>
<path d="M336.765 148.87C332.045 148.42 303.495 168.31 303.495 168.31L335.805 176.25C338.315 176.87 340.845 175.33 341.455 172.83L344.905 158.81C342.475 153.7 340.075 149.19 336.765 148.87Z" fill="#C9D9F5"/>
<path d="M206.775 167.75C239.52 167.75 266.065 141.205 266.065 108.46C266.065 75.7151 239.52 49.17 206.775 49.17C174.03 49.17 147.485 75.7151 147.485 108.46C147.485 141.205 174.03 167.75 206.775 167.75Z" fill="#FFD353"/>
<path d="M265.305 117.97L219.005 108.13L264.905 96.69C264.545 94.88 264.085 93.1 263.565 91.36L217.675 102.8L253.865 72.43C252.745 70.97 251.565 69.57 250.325 68.22L214.145 98.58L233.345 55.45C231.715 54.63 230.035 53.89 228.315 53.22L209.525 95.41V49.24C208.615 49.2 207.695 49.17 206.775 49.17C205.855 49.17 204.935 49.2 204.025 49.24V96.44L183.325 54C181.635 54.73 179.985 55.53 178.375 56.41L199.075 98.86L161.855 69.78C160.655 71.17 159.525 72.61 158.455 74.11L195.685 103.19L149.415 93.36C148.955 95.12 148.575 96.92 148.275 98.74L194.535 108.57L148.595 120.02C148.955 121.83 149.395 123.61 149.915 125.36L195.865 113.9L159.565 144.36C160.675 145.82 161.855 147.23 163.095 148.58L199.405 118.12L180.115 161.44C181.745 162.26 183.425 163.01 185.135 163.68L204.005 121.29V167.7C204.915 167.74 205.835 167.77 206.755 167.77C207.675 167.77 208.595 167.74 209.505 167.7V120.27L230.295 162.9C231.985 162.17 233.635 161.37 235.235 160.49L214.445 117.86L251.785 147.03C252.975 145.64 254.105 144.19 255.165 142.69L217.835 113.52L264.165 123.37C264.635 121.59 265.005 119.79 265.305 117.97Z" fill="#FFE692"/>
<path d="M206.775 158.35C234.328 158.35 256.665 136.013 256.665 108.46C256.665 80.9065 234.328 58.5699 206.775 58.5699C179.222 58.5699 156.885 80.9065 156.885 108.46C156.885 136.013 179.222 158.35 206.775 158.35Z" fill="#EE9F53"/>
<path d="M224.156 151.839C248.116 142.236 259.755 115.028 250.152 91.0676C240.55 67.1073 213.342 55.4681 189.381 65.0708C165.421 74.6736 153.782 101.882 163.384 125.842C172.987 149.803 200.195 161.442 224.156 151.839Z" fill="#FFBA53"/>
<path d="M480.845 243.37C481.775 244.94 483.345 244.86 483.345 244.86L481.245 214.17C481.245 214.17 480.245 213.86 478.825 213.89L480.845 243.37Z" fill="#B7E6F1"/>
<path d="M355.715 298.06C354.085 298.88 354.055 300.45 354.055 300.45H384.815C384.815 300.45 385.195 299.47 385.265 298.06H355.715Z" fill="#B7E6F1"/>
<path d="M337.855 33.38L304.055 25.07C301.965 24.56 300.685 22.44 301.195 20.35L305.275 3.76997C305.785 1.67997 307.905 0.399967 309.995 0.909967L343.795 9.21996C345.885 9.72996 347.165 11.85 346.655 13.94L342.575 30.52C342.065 32.61 339.955 33.89 337.855 33.38Z" fill="#18D5E4"/>
<path d="M334.455 10.4399L320.845 6.88993L319.535 6.54993L319.155 8.01993L315.855 20.6599C315.305 20.0599 314.515 19.5699 313.565 19.3299C311.475 18.7899 309.465 19.5899 309.065 21.1199C308.665 22.6499 310.035 24.3399 312.115 24.8799C314.205 25.4199 316.215 24.6199 316.615 23.0899L320.455 8.35992L334.065 11.9099L331.625 21.2499C331.075 20.6499 330.285 20.1599 329.335 19.9199C327.245 19.3799 325.235 20.1799 324.835 21.7099C324.435 23.2399 325.805 24.9299 327.885 25.4699C329.975 26.0099 331.985 25.2099 332.385 23.6799C332.425 23.5399 332.425 23.3899 332.435 23.2499L332.485 23.2799L335.365 12.2499L335.745 10.7799L334.455 10.4399Z" fill="white"/>
<path d="M451.775 76.9099L437.555 67.4899L451.775 58.08L465.985 67.4899L451.775 76.9099Z" fill="#D7EAFF"/>
<path d="M437.555 82.53L451.775 91.95V76.91L437.555 67.49V82.53Z" fill="#CEE1F5"/>
<path d="M465.985 82.53L451.775 91.95V76.91L465.985 67.49V82.53Z" fill="#B9D3F0"/>
<path d="M77.9951 78.17L60.7251 66.73L77.9951 55.28L95.2651 66.73L77.9951 78.17Z" fill="#D7EAFF"/>
<path d="M60.7251 85L77.9951 96.44V78.17L60.7251 66.73V85Z" fill="#CEE1F5"/>
<path d="M95.2651 85L77.9951 96.44V78.17L95.2651 66.73V85Z" fill="#B9D3F0"/>
<path d="M232.545 112.79C231.895 108.46 229.365 105.85 225.165 104.78C224.685 104.66 224.125 104.76 223.705 104.31C223.795 104.2 223.865 104.05 223.985 103.97C226.615 102.13 227.695 99.57 227.705 96.41C227.715 91.58 224.975 87.89 220.355 86.57C217.995 85.9 215.585 85.66 213.145 85.69C212.245 85.7 211.825 85.47 211.785 84.46C211.695 82.07 211.435 79.69 211.315 77.31C211.305 77.02 211.255 76.8 211.185 76.62L205.365 77.05C205.365 77.12 205.355 77.17 205.365 77.25C205.625 79.74 205.785 82.24 206.035 84.74C206.105 85.44 205.925 85.77 205.215 85.84C204.315 85.92 203.415 86 202.535 86.16C201.585 86.33 201.325 85.97 201.285 85.04C201.185 82.62 200.955 80.2 200.815 77.77C200.805 77.62 200.785 77.5 200.755 77.39L195.185 77.8C195.155 77.95 195.135 78.13 195.155 78.35C195.365 80.61 195.495 82.88 195.685 85.14C195.825 86.86 195.775 86.95 194.125 87.11C193.965 87.13 193.815 87.13 193.655 87.14C190.845 87.37 188.045 87.61 185.235 87.83C185.185 87.83 185.135 87.84 185.085 87.84L185.695 94.13C186.725 94.02 187.755 93.93 188.785 93.87C190.725 93.74 191.825 94.59 192.125 96.53C192.325 97.85 192.375 99.18 192.495 100.51C193.145 107.65 193.795 114.79 194.425 121.93C194.565 123.49 193.915 124.26 192.335 124.44C191.485 124.54 190.625 124.62 189.765 124.67C189.675 126.03 189.465 129.05 189.245 131.78C192.255 131.53 195.295 131.49 198.295 131.11C199.155 131 199.415 131.29 199.465 132.18C199.585 134.71 199.835 137.23 200.015 139.75L205.975 139.41C205.975 139.37 205.975 139.34 205.975 139.3C205.735 136.92 205.615 134.54 205.405 132.16C205.325 131.28 205.495 130.74 206.525 130.73C207.305 130.72 208.095 130.62 208.855 130.48C209.755 130.31 210.115 130.6 210.155 131.54C210.275 134 210.505 136.46 210.665 138.92C210.675 139 210.685 139.06 210.695 139.14L216.695 138.8C216.695 138.79 216.695 138.79 216.695 138.78C216.475 136.33 216.415 133.86 216.205 131.41C216.105 130.32 216.485 129.89 217.545 129.73C220.035 129.36 222.455 128.7 224.785 127.74C228.255 126.3 231.025 124.1 232.165 120.35C232.905 117.88 232.935 115.33 232.545 112.79ZM203.685 105.01C203.405 101.62 203.105 98.23 202.785 94.85C202.725 94.19 202.835 93.92 203.615 93.86C206.775 93.64 209.935 93.24 213.045 94.19C216.955 95.38 218.335 99.82 215.655 102.5C214.615 103.54 213.305 104.18 212.205 104.47C209.485 105.37 206.985 105.53 204.485 105.7C203.965 105.74 203.735 105.59 203.685 105.01ZM218.295 121.76C217.515 122.21 216.705 122.6 216.005 122.79C212.645 123.96 209.315 124.12 206.015 124.48C205.455 124.54 205.235 124.28 205.185 123.76C204.835 119.98 204.485 116.21 204.125 112.43C204.075 111.94 204.105 111.63 204.735 111.57C208.085 111.27 211.425 110.82 214.805 111.26C215.935 111.41 217.025 111.68 218.065 112.17C220.075 113.11 221.125 114.69 221.185 116.88C221.235 119.07 220.185 120.67 218.295 121.76Z" fill="#FFF3D3"/>
<path d="M254.245 16.14C257.955 27.99 251.355 40.59 239.505 44.3C227.655 48.01 215.055 41.41 211.345 29.56C207.635 17.71 214.235 5.11001 226.085 1.40001C237.925 -2.29999 250.535 4.29001 254.245 16.14Z" fill="#6D89C9"/>
<path d="M250.745 17.23C253.845 27.15 248.325 37.7 238.405 40.81C228.485 43.91 217.935 38.39 214.825 28.47C211.725 18.55 217.245 8.00003 227.165 4.89003C237.095 1.79003 247.645 7.32003 250.745 17.23Z" fill="#A1BAF0"/>
<path d="M248.759 26.1313C250.567 17.3181 244.887 8.70845 236.074 6.90101C227.261 5.09357 218.651 10.7728 216.844 19.586C215.037 28.3992 220.716 37.0089 229.529 38.8164C238.342 40.6238 246.952 34.9445 248.759 26.1313Z" fill="#BED1F9"/>
<path d="M241.065 27.54C241.315 25.74 240.655 24.43 239.195 23.55C239.025 23.45 238.805 23.43 238.695 23.2C238.745 23.16 238.785 23.11 238.835 23.09C240.035 22.64 240.735 21.74 241.105 20.48C241.665 18.56 241.045 16.79 239.455 15.76C238.635 15.23 237.755 14.88 236.835 14.62C236.495 14.53 236.355 14.39 236.465 13.98C236.705 13.02 236.875 12.04 237.105 11.08C237.135 10.96 237.135 10.87 237.135 10.79L234.885 10.33C234.875 10.36 234.865 10.38 234.865 10.41C234.675 11.43 234.455 12.45 234.265 13.47C234.215 13.75 234.105 13.87 233.825 13.82C233.475 13.75 233.125 13.69 232.775 13.66C232.395 13.62 232.335 13.45 232.435 13.08C232.675 12.1 232.865 11.11 233.085 10.13C233.095 10.07 233.105 10.02 233.105 9.97002L230.955 9.53003C230.925 9.59003 230.895 9.66002 230.885 9.75002C230.705 10.67 230.495 11.59 230.305 12.51C230.165 13.21 230.135 13.24 229.485 13.13C229.425 13.12 229.365 13.1 229.305 13.09C228.215 12.88 227.125 12.67 226.045 12.45C226.025 12.45 226.005 12.44 225.985 12.44L225.475 15.01C225.875 15.08 226.275 15.15 226.675 15.24C227.425 15.4 227.745 15.86 227.635 16.66C227.555 17.21 227.425 17.74 227.315 18.29C226.745 21.2 226.175 24.12 225.595 27.03C225.465 27.67 225.135 27.9 224.515 27.8C224.185 27.75 223.845 27.69 223.515 27.61C223.325 28.14 222.895 29.32 222.505 30.39C223.675 30.62 224.825 30.93 226.005 31.1C226.345 31.15 226.405 31.3 226.325 31.65C226.085 32.67 225.885 33.7 225.665 34.73L227.955 35.24C227.955 35.22 227.965 35.21 227.965 35.2C228.145 34.23 228.375 33.26 228.565 32.29C228.635 31.93 228.755 31.74 229.155 31.84C229.455 31.92 229.755 31.97 230.065 31.99C230.425 32.02 230.525 32.17 230.435 32.56C230.195 33.55 230.005 34.56 229.785 35.56C229.775 35.59 229.775 35.62 229.775 35.65L232.085 36.17C232.085 36.17 232.085 36.17 232.085 36.16C232.285 35.16 232.545 34.17 232.745 33.17C232.835 32.72 233.025 32.6 233.445 32.65C234.425 32.77 235.425 32.77 236.415 32.64C237.895 32.44 239.195 31.87 240.055 30.5C240.615 29.6 240.915 28.59 241.065 27.54ZM231.045 21.3C231.325 19.92 231.605 18.54 231.865 17.15C231.915 16.88 231.995 16.78 232.295 16.85C233.515 17.11 234.755 17.29 235.825 18.01C237.165 18.91 237.185 20.83 235.855 21.61C235.345 21.91 234.775 22.02 234.325 22.02C233.195 22.08 232.225 21.87 231.265 21.67C231.065 21.62 230.995 21.54 231.045 21.3ZM234.645 29.56C234.295 29.65 233.945 29.72 233.665 29.72C232.265 29.82 230.985 29.52 229.695 29.31C229.475 29.27 229.425 29.14 229.465 28.93C229.765 27.39 230.065 25.85 230.365 24.3C230.405 24.1 230.445 23.98 230.695 24.03C231.995 24.28 233.315 24.46 234.535 25C234.945 25.18 235.325 25.41 235.665 25.72C236.315 26.31 236.535 27.06 236.305 27.94C236.065 28.81 235.485 29.33 234.645 29.56Z" fill="white"/>
<path d="M144.675 59.3C161.05 59.3 174.325 46.0252 174.325 29.65C174.325 13.2748 161.05 0 144.675 0C128.3 0 115.025 13.2748 115.025 29.65C115.025 46.0252 128.3 59.3 144.675 59.3Z" fill="#18D5E4"/>
<path d="M144.675 54.47C158.383 54.47 169.495 43.3577 169.495 29.65C169.495 15.9422 158.383 4.82996 144.675 4.82996C130.968 4.82996 119.855 15.9422 119.855 29.65C119.855 43.3577 130.968 54.47 144.675 54.47Z" fill="#18BFD5"/>
<path d="M144.675 51.63C156.814 51.63 166.655 41.7893 166.655 29.65C166.655 17.5108 156.814 7.67004 144.675 7.67004C132.536 7.67004 122.695 17.5108 122.695 29.65C122.695 41.7893 132.536 51.63 144.675 51.63Z" fill="#E9F3FF"/>
<path d="M144.655 8.89001V38.91L157.585 30.02L144.655 8.89001Z" fill="#18BCD8"/>
<path d="M144.655 25.02V38.91L157.585 30.02L144.655 25.02Z" fill="#18B0D8"/>
<path d="M144.655 8.89001V38.91L131.715 30.02L144.655 8.89001Z" fill="#18D5E4"/>
<path d="M144.655 25.02V38.91L131.715 30.02L144.655 25.02Z" fill="#18BCD8"/>
<path d="M144.655 50.42L158.065 32.04L144.655 41.58V50.42Z" fill="#18BCD8"/>
<path d="M144.695 50.42L131.275 32.04L144.695 41.58V50.42Z" fill="#18D5E4"/>
<path d="M311.195 264.87H249.815C248.215 264.87 246.915 263.57 246.915 261.97V200.58C246.915 198.98 248.215 197.68 249.815 197.68H311.195C312.795 197.68 314.095 198.98 314.095 200.58V261.96C314.095 263.57 312.805 264.87 311.195 264.87Z" fill="#6D89C9"/>
<path d="M307.645 204.13H253.365V258.41H307.645V204.13Z" fill="#EE9F53"/>
<path d="M303.995 207.78H257.015V254.76H303.995V207.78Z" fill="#FFBA53"/>
<path d="M257.555 184.65C256.525 184.65 255.685 185.49 255.685 186.52V197.68H259.435V186.52C259.425 185.49 258.585 184.65 257.555 184.65Z" fill="#556A9C"/>
<path d="M269.035 184.65C268.005 184.65 267.165 185.49 267.165 186.52V197.68H270.915V186.52C270.905 185.49 270.065 184.65 269.035 184.65Z" fill="#556A9C"/>
<path d="M280.505 184.65C279.475 184.65 278.635 185.49 278.635 186.52V197.68H282.385V186.52C282.385 185.49 281.545 184.65 280.505 184.65Z" fill="#556A9C"/>
<path d="M291.985 184.65C290.955 184.65 290.115 185.49 290.115 186.52V197.68H293.865V186.52C293.855 185.49 293.015 184.65 291.985 184.65Z" fill="#556A9C"/>
<path d="M303.455 184.65C302.425 184.65 301.585 185.49 301.585 186.52V197.68H305.335V186.52C305.335 185.49 304.495 184.65 303.455 184.65Z" fill="#556A9C"/>
<path d="M303.455 277.9C304.485 277.9 305.325 277.06 305.325 276.03V264.87H301.575V276.03C301.585 277.06 302.425 277.9 303.455 277.9Z" fill="#556A9C"/>
<path d="M291.985 277.9C293.015 277.9 293.855 277.06 293.855 276.03V264.87H290.105V276.03C290.115 277.06 290.945 277.9 291.985 277.9Z" fill="#556A9C"/>
<path d="M280.505 277.9C281.535 277.9 282.375 277.06 282.375 276.03V264.87H278.625V276.03C278.635 277.06 279.475 277.9 280.505 277.9Z" fill="#556A9C"/>
<path d="M269.035 277.9C270.065 277.9 270.905 277.06 270.905 276.03V264.87H267.155V276.03C267.155 277.06 267.995 277.9 269.035 277.9Z" fill="#556A9C"/>
<path d="M257.555 277.9C258.585 277.9 259.425 277.06 259.425 276.03V264.87H255.675V276.03C255.685 277.06 256.525 277.9 257.555 277.9Z" fill="#556A9C"/>
<path d="M327.135 208.32C327.135 207.29 326.295 206.45 325.265 206.45H314.105V210.2H325.265C326.295 210.19 327.135 209.35 327.135 208.32Z" fill="#556A9C"/>
<path d="M327.135 219.8C327.135 218.77 326.295 217.93 325.265 217.93H314.105V221.68H325.265C326.295 221.67 327.135 220.83 327.135 219.8Z" fill="#556A9C"/>
<path d="M327.135 231.27C327.135 230.24 326.295 229.4 325.265 229.4H314.105V233.15H325.265C326.295 233.15 327.135 232.31 327.135 231.27Z" fill="#556A9C"/>
<path d="M327.135 242.75C327.135 241.72 326.295 240.88 325.265 240.88H314.105V244.63H325.265C326.295 244.62 327.135 243.78 327.135 242.75Z" fill="#556A9C"/>
<path d="M327.135 254.23C327.135 253.2 326.295 252.36 325.265 252.36H314.105V256.11H325.265C326.295 256.1 327.135 255.26 327.135 254.23Z" fill="#556A9C"/>
<path d="M233.885 254.23C233.885 255.26 234.725 256.1 235.755 256.1H246.915V252.35H235.755C234.725 252.35 233.885 253.19 233.885 254.23Z" fill="#556A9C"/>
<path d="M233.885 242.75C233.885 243.78 234.725 244.62 235.755 244.62H246.915V240.87H235.755C234.725 240.88 233.885 241.71 233.885 242.75Z" fill="#556A9C"/>
<path d="M233.885 231.27C233.885 232.3 234.725 233.14 235.755 233.14H246.915V229.39H235.755C234.725 229.4 233.885 230.24 233.885 231.27Z" fill="#556A9C"/>
<path d="M233.885 219.8C233.885 220.83 234.725 221.67 235.755 221.67H246.915V217.92H235.755C234.725 217.92 233.885 218.76 233.885 219.8Z" fill="#556A9C"/>
<path d="M233.885 208.32C233.885 209.35 234.725 210.19 235.755 210.19H246.915V206.44H235.755C234.725 206.45 233.885 207.29 233.885 208.32Z" fill="#556A9C"/>
<path d="M293.865 194.98H290.115V197.68H293.865V194.98Z" fill="#3D4C70"/>
<path d="M282.385 194.98H278.635V197.68H282.385V194.98Z" fill="#3D4C70"/>
<path d="M259.435 194.98H255.685V197.68H259.435V194.98Z" fill="#3D4C70"/>
<path d="M270.905 194.98H267.155V197.68H270.905V194.98Z" fill="#3D4C70"/>
<path d="M316.795 206.45H314.095V210.2H316.795V206.45Z" fill="#3D4C70"/>
<path d="M316.795 252.35H314.095V256.1H316.795V252.35Z" fill="#3D4C70"/>
<path d="M316.795 217.92H314.095V221.67H316.795V217.92Z" fill="#3D4C70"/>
<path d="M316.795 229.4H314.095V233.15H316.795V229.4Z" fill="#3D4C70"/>
<path d="M316.795 240.88H314.095V244.63H316.795V240.88Z" fill="#3D4C70"/>
<path d="M259.435 264.87H255.685V267.57H259.435V264.87Z" fill="#3D4C70"/>
<path d="M246.915 229.4H244.215V233.15H246.915V229.4Z" fill="#3D4C70"/>
<path d="M246.915 217.92H244.215V221.67H246.915V217.92Z" fill="#3D4C70"/>
<path d="M246.915 206.45H244.215V210.2H246.915V206.45Z" fill="#3D4C70"/>
<path d="M246.915 240.88H244.215V244.63H246.915V240.88Z" fill="#3D4C70"/>
<path d="M246.915 252.35H244.215V256.1H246.915V252.35Z" fill="#3D4C70"/>
<path d="M305.335 194.98H301.585V197.68H305.335V194.98Z" fill="#3D4C70"/>
<path d="M282.385 264.87H278.635V267.57H282.385V264.87Z" fill="#3D4C70"/>
<path d="M293.865 264.87H290.115V267.57H293.865V264.87Z" fill="#3D4C70"/>
<path d="M270.905 264.87H267.155V267.57H270.905V264.87Z" fill="#3D4C70"/>
<path d="M305.335 264.87H301.585V267.57H305.335V264.87Z" fill="#3D4C70"/>
<path d="M364.345 200.33H348.725C348.605 200.33 348.495 200.39 348.425 200.48L340.095 211.8H329.285C329.075 211.8 328.905 211.97 328.905 212.18C328.905 212.39 329.075 212.56 329.285 212.56H340.285H352.005C352.215 212.56 352.385 212.39 352.385 212.18C352.385 211.97 352.215 211.8 352.005 211.8H341.035L348.925 201.08H364.355C364.565 201.08 364.735 200.91 364.735 200.7C364.735 200.49 364.555 200.33 364.345 200.33Z" fill="#6D89C9"/>
<path d="M358.055 224.52C358.265 224.52 358.435 224.35 358.435 224.14C358.435 223.93 358.265 223.76 358.055 223.76H329.285C329.075 223.76 328.905 223.93 328.905 224.14C328.905 224.35 329.075 224.52 329.285 224.52H358.055Z" fill="#6D89C9"/>
<path d="M360.765 243.21H346.875L342.525 235.83C342.455 235.71 342.335 235.64 342.195 235.64H327.845C327.635 235.64 327.465 235.81 327.465 236.02C327.465 236.23 327.635 236.4 327.845 236.4H341.975L346.325 243.78C346.395 243.9 346.515 243.97 346.655 243.97H360.765C360.975 243.97 361.145 243.8 361.145 243.59C361.145 243.38 360.975 243.21 360.765 243.21Z" fill="#6D89C9"/>
<path d="M353.665 252.93H332.475C332.265 252.93 332.095 253.1 332.095 253.31C332.095 253.52 332.265 253.69 332.475 253.69H353.675C353.885 253.69 354.055 253.52 354.055 253.31C354.055 253.1 353.875 252.93 353.665 252.93Z" fill="#6D89C9"/>
<path d="M230.535 213.41C230.645 213.41 230.725 213.33 230.725 213.22C230.725 213.12 230.645 213.03 230.535 213.03H215.825L212.055 206.35C212.025 206.29 211.955 206.25 211.895 206.25H205.205C205.105 206.25 205.015 206.33 205.015 206.44C205.015 206.55 205.095 206.63 205.205 206.63H211.785L215.395 213.03H198.565L194.675 210.04C194.595 209.98 194.475 209.99 194.405 210.08C194.345 210.16 194.355 210.28 194.445 210.34L198.395 213.37C198.425 213.4 198.465 213.41 198.515 213.41H230.535V213.41Z" fill="#6D89C9"/>
<path d="M230.535 226.54H206.785C206.685 226.54 206.595 226.62 206.595 226.73C206.595 226.83 206.675 226.92 206.785 226.92H230.535C230.645 226.92 230.725 226.84 230.725 226.73C230.725 226.62 230.645 226.54 230.535 226.54Z" fill="#6D89C9"/>
<path d="M230.535 241.05H212.745C212.635 241.05 212.555 241.13 212.555 241.24V248.34H202.305C202.205 248.34 202.115 248.42 202.115 248.53C202.115 248.63 202.195 248.72 202.305 248.72H212.745C212.845 248.72 212.935 248.64 212.935 248.53V241.43H230.535C230.645 241.43 230.725 241.35 230.725 241.24C230.725 241.13 230.645 241.05 230.535 241.05Z" fill="#6D89C9"/>
<path d="M228.865 258.22H210.955C210.855 258.22 210.765 258.3 210.765 258.41C210.765 258.51 210.845 258.6 210.955 258.6H228.865C228.965 258.6 229.055 258.52 229.055 258.41C229.055 258.31 228.965 258.22 228.865 258.22Z" fill="#6D89C9"/>
<path d="M368.095 200.71C368.095 201.72 367.275 202.54 366.265 202.54C365.255 202.54 364.435 201.72 364.435 200.71C364.435 199.7 365.255 198.88 366.265 198.88C367.275 198.88 368.095 199.7 368.095 200.71Z" fill="#FFBA53"/>
<path d="M355.665 212.19C355.665 213.2 354.845 214.02 353.835 214.02C352.825 214.02 352.005 213.2 352.005 212.19C352.005 211.18 352.825 210.36 353.835 210.36C354.845 210.35 355.665 211.17 355.665 212.19Z" fill="#FFBA53"/>
<path d="M361.715 224.1C361.715 225.11 360.895 225.93 359.885 225.93C358.875 225.93 358.055 225.11 358.055 224.1C358.055 223.09 358.875 222.27 359.885 222.27C360.895 222.27 361.715 223.09 361.715 224.1Z" fill="#FFBA53"/>
<path d="M355.505 255.14C356.516 255.14 357.335 254.321 357.335 253.31C357.335 252.299 356.516 251.48 355.505 251.48C354.494 251.48 353.675 252.299 353.675 253.31C353.675 254.321 354.494 255.14 355.505 255.14Z" fill="#FFBA53"/>
<path d="M364.425 243.59C364.425 244.6 363.605 245.42 362.595 245.42C361.585 245.42 360.765 244.6 360.765 243.59C360.765 242.58 361.585 241.76 362.595 241.76C363.605 241.75 364.425 242.57 364.425 243.59Z" fill="#FFBA53"/>
<path d="M195.055 208.93C195.055 209.94 194.235 210.76 193.225 210.76C192.215 210.76 191.395 209.94 191.395 208.93C191.395 207.92 192.215 207.1 193.225 207.1C194.235 207.1 195.055 207.92 195.055 208.93Z" fill="#FFBA53"/>
<path d="M205.195 206.45C205.195 207.46 204.375 208.28 203.365 208.28C202.355 208.28 201.535 207.46 201.535 206.45C201.535 205.44 202.355 204.62 203.365 204.62C204.375 204.61 205.195 205.43 205.195 206.45Z" fill="#FFBA53"/>
<path d="M202.305 248.53C202.305 249.54 201.485 250.36 200.475 250.36C199.465 250.36 198.645 249.54 198.645 248.53C198.645 247.52 199.465 246.7 200.475 246.7C201.485 246.69 202.305 247.51 202.305 248.53Z" fill="#FFBA53"/>
<path d="M210.955 258.41C210.955 259.42 210.135 260.24 209.125 260.24C208.115 260.24 207.295 259.42 207.295 258.41C207.295 257.4 208.115 256.58 209.125 256.58C210.135 256.58 210.955 257.4 210.955 258.41Z" fill="#FFBA53"/>
<path d="M205.155 228.56C206.166 228.56 206.985 227.741 206.985 226.73C206.985 225.719 206.166 224.9 205.155 224.9C204.144 224.9 203.325 225.719 203.325 226.73C203.325 227.741 204.144 228.56 205.155 228.56Z" fill="#FFBA53"/>
<path d="M273.579 225.157V237.877H270.617L265.002 231.099V237.877H261.477V225.157H264.439L270.054 231.935V225.157H273.579ZM279.715 227.937V230.735H285.33V233.516H279.715V237.877H276.117V225.157H286.093V227.937H279.715ZM290.572 228.01H286.665V225.157H298.058V228.01H294.17V237.877H290.572V228.01Z" fill="white"/>
</svg>
