<svg width="459" height="268" viewBox="0 0 459 268" fill="none" xmlns="http://www.w3.org/2000/svg">
<path d="M331.28 177.78H305.53L292.51 155.22L305.39 132.93L306.27 133.44L293.7 155.22L306.12 176.75H331.28V177.78Z" fill="url(#paint0_linear)"/>
<path d="M369.65 199.82H343.61L330.59 177.27L343.61 154.72H369.65L382.67 177.27L369.65 199.82ZM344.21 198.79H369.07L381.5 177.26L369.07 155.73H344.21L331.78 177.26L344.21 198.79Z" fill="url(#paint1_linear)"/>
<path d="M381.64 221.6L368.92 199.56L369.8 199.05L382.53 221.09L381.64 221.6Z" fill="url(#paint2_linear)"/>
<path d="M407.93 221.6L407.04 221.09L419.61 199.3L406.88 177.26L407.76 176.75L420.8 199.3L407.93 221.6Z" fill="url(#paint3_linear)"/>
<path d="M407.76 177.78L406.88 177.26L419.76 154.97L420.65 155.48L407.76 177.78Z" fill="url(#paint4_linear)"/>
<path d="M447.59 198.79H420.21V199.82H447.59V198.79Z" fill="url(#paint5_linear)"/>
<path d="M288.26 105.64L300.71 127.2L288.26 148.76H263.36L250.91 127.2L263.36 105.64H288.26ZM288.9 104.53H262.72L249.63 127.2L262.72 149.87H288.9L301.99 127.2L288.9 104.53Z" fill="url(#paint6_linear)"/>
<path d="M345.93 155.16C345.93 156.08 345.18 156.83 344.26 156.83C343.34 156.83 342.59 156.08 342.59 155.16C342.59 154.24 343.34 153.49 344.26 153.49C345.18 153.5 345.93 154.24 345.93 155.16Z" fill="url(#paint7_linear)"/>
<path d="M421.87 155.16C421.87 156.08 421.12 156.83 420.2 156.83C419.28 156.83 418.53 156.08 418.53 155.16C418.53 154.24 419.28 153.49 420.2 153.49C421.13 153.5 421.87 154.24 421.87 155.16Z" fill="url(#paint8_linear)"/>
<path d="M383.75 221.95C383.75 222.87 383 223.62 382.08 223.62C381.16 223.62 380.41 222.87 380.41 221.95C380.41 221.03 381.16 220.28 382.08 220.28C383.01 220.28 383.75 221.03 383.75 221.95Z" fill="url(#paint9_linear)"/>
<path d="M345.58 199.31C345.58 200.23 344.83 200.98 343.91 200.98C342.99 200.98 342.24 200.23 342.24 199.31C342.24 198.39 342.99 197.64 343.91 197.64C344.83 197.64 345.58 198.38 345.58 199.31Z" fill="url(#paint10_linear)"/>
<path d="M447.59 199.31C447.59 200.23 446.84 200.98 445.92 200.98C445 200.98 444.25 200.23 444.25 199.31C444.25 198.39 445 197.64 445.92 197.64C446.84 197.64 447.59 198.38 447.59 199.31Z" fill="url(#paint11_linear)"/>
<path d="M421.87 199.31C421.87 200.23 421.12 200.98 420.2 200.98C419.28 200.98 418.53 200.23 418.53 199.31C418.53 198.39 419.28 197.64 420.2 197.64C421.13 197.64 421.87 198.38 421.87 199.31Z" fill="url(#paint12_linear)"/>
<path d="M294.81 155.16C294.81 156.08 294.06 156.83 293.14 156.83C292.22 156.83 291.47 156.08 291.47 155.16C291.47 154.24 292.22 153.49 293.14 153.49C294.06 153.49 294.81 154.24 294.81 155.16Z" fill="url(#paint13_linear)"/>
<path d="M307.81 133.25C307.81 134.17 307.06 134.92 306.14 134.92C305.22 134.92 304.47 134.17 304.47 133.25C304.47 132.33 305.22 131.58 306.14 131.58C307.06 131.58 307.81 132.33 307.81 133.25Z" fill="url(#paint14_linear)"/>
<path d="M112.77 83.82L110.79 82.67L111.14 82.07L113.12 83.22L112.77 83.82ZM109.67 82.03L107.69 80.88L108.04 80.28L110.02 81.43L109.67 82.03ZM106.56 80.24L104.58 79.09L104.93 78.49L106.91 79.63L106.56 80.24ZM103.46 78.44L101.48 77.29L101.83 76.69L103.81 77.84L103.46 78.44ZM100.36 76.65L98.3799 75.51L98.7299 74.91L100.71 76.06L100.36 76.65ZM97.2499 74.86L95.2699 73.72L95.6199 73.12L97.5999 74.26L97.2499 74.86ZM94.1499 73.07L92.1699 71.93L92.5199 71.33L94.4999 72.47L94.1499 73.07ZM91.0499 71.27L89.0699 70.13L89.4199 69.53L91.3999 70.67L91.0499 71.27ZM87.9399 69.48L85.9599 68.34L86.3099 67.74L88.2899 68.88L87.9399 69.48ZM84.8399 67.69L82.8599 66.55L83.2099 65.95L85.1899 67.09L84.8399 67.69ZM81.7299 65.9L79.7499 64.76L80.0999 64.16L82.0799 65.3L81.7299 65.9ZM78.6299 64.11L76.6499 62.97L76.9999 62.37L78.9799 63.51L78.6299 64.11ZM75.5299 62.31L73.5499 61.17L73.8999 60.57L75.8799 61.71L75.5299 62.31ZM72.4199 60.52L70.4399 59.38L70.7899 58.78L72.7699 59.93L72.4199 60.52Z" fill="url(#paint15_linear)"/>
<path d="M119.28 140.04L118.93 139.44L120.91 138.29L121.26 138.89L119.28 140.04ZM122.38 138.24L122.03 137.64L124.01 136.49L124.36 137.09L122.38 138.24ZM125.48 136.44L125.13 135.84L127.11 134.69L127.46 135.29L125.48 136.44ZM128.58 134.64L128.23 134.04L130.21 132.89L130.56 133.49L128.58 134.64ZM131.68 132.85L131.33 132.25L133.31 131.1L133.66 131.7L131.68 132.85ZM134.78 131.05L134.43 130.45L136.41 129.3L136.76 129.9L134.78 131.05ZM137.88 129.25L137.53 128.65L139.51 127.5L139.86 128.1L137.88 129.25ZM140.98 127.45L140.63 126.85L142.61 125.7L142.96 126.3L140.98 127.45ZM144.08 125.65L143.73 125.05L145.71 123.9L146.06 124.5L144.08 125.65ZM147.18 123.85L146.83 123.25L148.81 122.1L149.16 122.7L147.18 123.85ZM150.28 122.06L149.93 121.46L151.91 120.31L152.26 120.91L150.28 122.06ZM153.38 120.26L153.03 119.66L155.01 118.51L155.36 119.11L153.38 120.26ZM156.48 118.46L156.13 117.86L158.11 116.71L158.46 117.31L156.48 118.46ZM159.58 116.66L159.23 116.06L161.21 114.91L161.56 115.51L159.58 116.66Z" fill="url(#paint16_linear)"/>
<path d="M3.80003 83.91L3.53003 83.27L5.63003 82.39L5.90003 83.03L3.80003 83.91ZM7.08003 82.54L6.81003 81.9L8.91003 81.02L9.18003 81.66L7.08003 82.54ZM10.37 81.17L10.1 80.53L12.2 79.65L12.47 80.29L10.37 81.17ZM13.65 79.79L13.38 79.15L15.48 78.27L15.75 78.91L13.65 79.79ZM16.93 78.42L16.66 77.78L18.76 76.9L19.03 77.54L16.93 78.42ZM20.21 77.05L19.94 76.41L22.04 75.53L22.31 76.17L20.21 77.05ZM23.5 75.68L23.23 75.04L25.33 74.16L25.6 74.8L23.5 75.68ZM26.78 74.31L26.51 73.67L28.61 72.8L28.88 73.44L26.78 74.31ZM30.06 72.94L29.79 72.3L31.89 71.42L32.16 72.06L30.06 72.94ZM33.34 71.57L33.07 70.93L35.17 70.05L35.44 70.69L33.34 71.57ZM36.63 70.2L36.36 69.56L38.46 68.68L38.73 69.32L36.63 70.2ZM39.91 68.83L39.64 68.19L41.74 67.31L42.01 67.95L39.91 68.83ZM43.19 67.46L42.92 66.82L45.02 65.94L45.29 66.58L43.19 67.46ZM46.48 66.09L46.21 65.45L48.31 64.57L48.58 65.21L46.48 66.09ZM49.76 64.72L49.49 64.08L51.59 63.2L51.86 63.84L49.76 64.72ZM53.04 63.35L52.77 62.71L54.87 61.83L55.14 62.47L53.04 63.35ZM56.32 61.98L56.05 61.34L58.15 60.46L58.42 61.1L56.32 61.98ZM59.61 60.61L59.34 59.97L61.44 59.09L61.71 59.73L59.61 60.61ZM62.89 59.24L62.62 58.6L64.72 57.72L64.99 58.36L62.89 59.24ZM161.93 56.92L159.93 55.72L160.29 55.11L162.29 56.31L161.93 56.92ZM70.19 55.72L69.84 55.1L71.87 53.95L72.22 54.57L70.19 55.72ZM158.8 55.05L156.8 53.85L157.16 53.24L159.16 54.44L158.8 55.05ZM73.37 53.91L73.02 53.29L75.05 52.14L75.4 52.76L73.37 53.91ZM155.67 53.18L153.67 51.98L154.03 51.37L156.03 52.57L155.67 53.18ZM76.55 52.11L76.2 51.49L78.23 50.34L78.58 50.96L76.55 52.11ZM152.54 51.3L150.54 50.1L150.9 49.49L152.9 50.69L152.54 51.3ZM79.73 50.3L79.38 49.68L81.41 48.53L81.76 49.15L79.73 50.3ZM149.41 49.43L147.41 48.23L147.77 47.62L149.77 48.82L149.41 49.43ZM82.91 48.5L82.56 47.88L84.59 46.73L84.94 47.35L82.91 48.5ZM146.28 47.55L144.28 46.35L144.64 45.74L146.64 46.94L146.28 47.55ZM86.09 46.69L85.74 46.07L87.77 44.92L88.12 45.54L86.09 46.69ZM143.15 45.68L141.15 44.48L141.51 43.87L143.51 45.07L143.15 45.68ZM89.27 44.89L88.92 44.27L90.95 43.12L91.3 43.74L89.27 44.89ZM140.02 43.81L138.02 42.61L138.38 42L140.38 43.2L140.02 43.81ZM92.45 43.08L92.1 42.46L94.13 41.31L94.48 41.93L92.45 43.08ZM136.89 41.93L134.89 40.73L135.25 40.12L137.25 41.32L136.89 41.93ZM95.63 41.28L95.28 40.66L97.31 39.51L97.66 40.13L95.63 41.28ZM133.76 40.06L131.76 38.86L132.12 38.25L134.12 39.45L133.76 40.06ZM98.81 39.48L98.46 38.86L100.49 37.71L100.84 38.33L98.81 39.48ZM130.63 38.18L128.63 36.98L128.99 36.37L130.99 37.57L130.63 38.18ZM101.99 37.67L101.64 37.05L103.67 35.9L104.02 36.52L101.99 37.67ZM127.5 36.31L125.5 35.11L125.86 34.5L127.86 35.7L127.5 36.31ZM105.17 35.87L104.82 35.25L106.85 34.1L107.2 34.72L105.17 35.87ZM124.37 34.43L122.37 33.23L122.73 32.62L124.73 33.82L124.37 34.43ZM108.35 34.06L108 33.44L110.03 32.29L110.38 32.91L108.35 34.06ZM121.24 32.56L119.24 31.36L119.6 30.75L121.6 31.95L121.24 32.56ZM111.54 32.26L111.19 31.64L113.22 30.49L113.57 31.11L111.54 32.26Z" fill="url(#paint17_linear)"/>
<path d="M212.79 28.37V29.91H213.37L213.93 30.48L214.41 30.01L212.79 28.37ZM215.29 30.9L214.81 31.37L216.36 32.94L216.84 32.47L215.29 30.9ZM213.47 31.17H212.8V33.38H213.47V31.17ZM217.72 33.37L217.24 33.84L218.79 35.41L219.27 34.94L217.72 33.37ZM213.47 34.63H212.8V36.84H213.47V34.63ZM220.15 35.83L219.67 36.3L221.22 37.87L221.7 37.4L220.15 35.83ZM213.47 38.09H212.8V40.3H213.47V38.09ZM222.58 38.29L222.1 38.76L223.65 40.33L224.13 39.86L222.58 38.29ZM225.01 40.76L224.53 41.23L226.08 42.8L226.56 42.33L225.01 40.76ZM213.47 41.55H212.8V43.76H213.47V41.55ZM227.44 43.22L226.96 43.69L228.51 45.26L228.99 44.79L227.44 43.22ZM213.47 45.01H212.8V47.22H213.47V45.01ZM229.87 45.68L229.39 46.15L230.94 47.72L231.42 47.25L229.87 45.68ZM232.3 48.15L231.82 48.62L233.37 50.19L233.85 49.72L232.3 48.15ZM213.47 48.47H212.8V50.68H213.47V48.47ZM234.73 50.61L234.25 51.08L235.8 52.65L236.28 52.18L234.73 50.61ZM213.47 51.93H212.8V54.14H213.47V51.93ZM237.16 53.08L236.68 53.55L238.23 55.12L238.71 54.65L237.16 53.08ZM213.47 55.39H212.8V57.6H213.47V55.39ZM239.59 55.54L239.11 56.01L240.66 57.58L241.14 57.11L239.59 55.54ZM242.02 58L241.54 58.47L243.09 60.04L243.57 59.57L242.02 58ZM213.47 58.85H212.8V61.06H213.47V58.85ZM244.46 60.46L243.98 60.93L245.53 62.5L246.01 62.03L244.46 60.46ZM213.47 62.31H212.8V64.52H213.47V62.31ZM246.89 62.93L246.41 63.4L247.96 64.97L248.44 64.5L246.89 62.93ZM249.32 65.39L248.84 65.86L250.39 67.43L250.87 66.96L249.32 65.39ZM213.47 65.77H212.8V67.98H213.47V65.77ZM251.75 67.85L251.27 68.32L252.82 69.89L253.3 69.42L251.75 67.85ZM213.47 69.23H212.8V71.44H213.47V69.23ZM254.18 70.32L253.7 70.79L255.25 72.36L255.73 71.89L254.18 70.32ZM213.47 72.69H212.8V74.9H213.47V72.69ZM256.61 72.78L256.13 73.25L257.68 74.82L258.16 74.35L256.61 72.78ZM259.04 75.24L258.56 75.71L260.11 77.28L260.59 76.81L259.04 75.24ZM213.47 76.15H212.8V78.36H213.47V76.15ZM261.47 77.71L260.99 78.18L262.54 79.75L263.02 79.28L261.47 77.71ZM213.47 79.61H212.8V81.82H213.47V79.61ZM263.9 80.17L263.42 80.64L264.97 82.21L265.45 81.74L263.9 80.17ZM266.33 82.63L265.85 83.1L266.36 83.61L266.84 83.14L266.33 82.63Z" fill="url(#paint18_linear)"/>
<path d="M49.3001 29.88H47.0101V29.18H49.3001V29.88ZM45.7201 29.88H43.4301V29.18H45.7201V29.88ZM42.1301 29.88H39.8401V29.18H42.1301V29.88ZM38.5501 29.88H36.2601V29.18H38.5501V29.88ZM34.9601 29.88H32.6701V29.18H34.9601V29.88ZM31.3801 29.88H29.0901V29.18H31.3801V29.88ZM27.8001 29.88H25.5101V29.18H27.8001V29.88ZM24.2101 29.88H21.9201V29.18H24.2101V29.88ZM20.6301 29.88H18.3401V29.18H20.6301V29.88Z" fill="url(#paint19_linear)"/>
<path d="M69.4801 111.46L69.1301 110.83L71.2001 109.68L71.5501 110.31L69.4801 111.46ZM72.7101 109.66L72.3601 109.03L74.4301 107.88L74.7801 108.51L72.7101 109.66ZM75.9501 107.85L75.6001 107.22L77.6701 106.07L78.0201 106.7L75.9501 107.85ZM79.1801 106.04L78.8301 105.41L80.9001 104.26L81.2501 104.89L79.1801 106.04ZM82.4101 104.24L82.0601 103.61L84.1301 102.46L84.4801 103.09L82.4101 104.24ZM85.6401 102.43L85.2901 101.8L87.3601 100.65L87.7101 101.28L85.6401 102.43ZM88.8701 100.62L88.5201 100L90.5801 98.85L90.9301 99.48L88.8701 100.62ZM92.1101 98.82L91.7601 98.19L93.8301 97.04L94.1801 97.67L92.1101 98.82ZM95.3401 97.01L94.9901 96.38L97.0601 95.23L97.4101 95.86L95.3401 97.01ZM98.5701 95.21L98.2201 94.58L100.29 93.43L100.64 94.06L98.5701 95.21ZM101.8 93.4L101.45 92.77L103.52 91.62L103.87 92.25L101.8 93.4ZM105.04 91.59L104.69 90.96L106.76 89.81L107.11 90.44L105.04 91.59ZM108.27 89.79L107.92 89.16L109.99 88.01L110.34 88.64L108.27 89.79ZM111.5 87.98L111.15 87.35L113.21 86.2L113.56 86.83L111.5 87.98Z" fill="url(#paint20_linear)"/>
<path d="M99.9102 57.78H67.2202L50.7302 29.22L67.0802 0.910004L67.9402 1.41L51.8802 29.22L67.8002 56.79H99.9102V57.78Z" fill="url(#paint21_linear)"/>
<path d="M100.35 169.78L99.4802 169.29L115.69 141.22L116.55 141.72L100.35 169.78Z" fill="url(#paint22_linear)"/>
<path d="M148.69 85.85H115.71L99.2202 57.29L115.71 28.73H148.69L165.18 57.29L148.69 85.85ZM116.29 84.85H148.12L164.03 57.29L148.12 29.73H116.29L100.38 57.29L116.29 84.85Z" fill="url(#paint23_linear)"/>
<path d="M148.69 141.97H115.71L99.3601 113.66L100.23 113.16L116.29 140.98H148.11L164.03 113.41L147.97 85.6L148.83 85.1L165.18 113.41L148.69 141.97Z" fill="url(#paint24_linear)"/>
<path d="M100.2 113.91H67.2202L50.7302 85.35L67.2202 56.79H99.9102V57.78H67.8002L51.8802 85.35L67.8002 112.91H99.6302L115.69 85.1L116.55 85.6L100.2 113.91Z" fill="url(#paint25_linear)"/>
<path d="M197.37 113.66L196.51 113.16L212.57 85.35L196.65 57.78H164.54V56.79H197.23L213.72 85.35L197.37 113.66Z" fill="url(#paint26_linear)"/>
<path d="M197.37 57.53L196.51 57.04L212.71 28.97L213.57 29.47L197.37 57.53Z" fill="url(#paint27_linear)"/>
<path d="M268.51 84.85H213.14V85.85H268.51V84.85Z" fill="url(#paint28_linear)"/>
<path d="M51.3101 84.85H1.62012V85.85H51.3101V84.85Z" fill="url(#paint29_linear)"/>
<path d="M101.53 113.41C101.53 114.3 100.81 115.03 99.91 115.03C99.02 115.03 98.29 114.31 98.29 113.41C98.29 112.52 99.01 111.79 99.91 111.79C100.81 111.79 101.53 112.52 101.53 113.41Z" fill="url(#paint30_linear)"/>
<path d="M69.1299 113.41C69.1299 114.3 68.4099 115.03 67.5099 115.03C66.6199 115.03 65.8899 114.31 65.8899 113.41C65.8899 112.52 66.6099 111.79 67.5099 111.79C68.3999 111.79 69.1299 112.52 69.1299 113.41Z" fill="url(#paint31_linear)"/>
<path d="M101.53 169.54C101.53 170.43 100.81 171.16 99.91 171.16C99.02 171.16 98.29 170.44 98.29 169.54C98.29 168.65 99.01 167.92 99.91 167.92C100.81 167.92 101.53 168.64 101.53 169.54Z" fill="url(#paint32_linear)"/>
<path d="M117.73 85.35C117.73 86.24 117.01 86.97 116.11 86.97C115.22 86.97 114.49 86.25 114.49 85.35C114.49 84.46 115.21 83.73 116.11 83.73C117.01 83.73 117.73 84.45 117.73 85.35Z" fill="url(#paint33_linear)"/>
<path d="M117.73 141.47C117.73 142.36 117.01 143.09 116.11 143.09C115.22 143.09 114.49 142.36 114.49 141.47C114.49 140.58 115.21 139.85 116.11 139.85C117.01 139.85 117.73 140.58 117.73 141.47Z" fill="url(#paint34_linear)"/>
<path d="M150.28 85.35C150.28 86.24 149.56 86.97 148.66 86.97C147.76 86.97 147.04 86.25 147.04 85.35C147.04 84.46 147.76 83.73 148.66 83.73C149.56 83.73 150.28 84.45 150.28 85.35Z" fill="url(#paint35_linear)"/>
<path d="M150.28 29.22C150.28 30.11 149.56 30.84 148.66 30.84C147.76 30.84 147.04 30.12 147.04 29.22C147.04 28.32 147.76 27.6 148.66 27.6C149.56 27.6 150.28 28.33 150.28 29.22Z" fill="url(#paint36_linear)"/>
<path d="M117.62 29.22C117.62 30.11 116.9 30.84 116 30.84C115.11 30.84 114.38 30.12 114.38 29.22C114.38 28.32 115.1 27.6 116 27.6C116.89 27.6 117.62 28.33 117.62 29.22Z" fill="url(#paint37_linear)"/>
<path d="M214.76 85.35C214.76 86.24 214.04 86.97 213.14 86.97C212.25 86.97 211.52 86.25 211.52 85.35C211.52 84.46 212.24 83.73 213.14 83.73C214.04 83.73 214.76 84.45 214.76 85.35Z" fill="url(#paint38_linear)"/>
<path d="M270.13 85.35C270.13 86.24 269.41 86.97 268.51 86.97C267.62 86.97 266.89 86.25 266.89 85.35C266.89 84.46 267.61 83.73 268.51 83.73C269.41 83.73 270.13 84.45 270.13 85.35Z" fill="url(#paint39_linear)"/>
<path d="M52.9299 85.35C52.9299 86.24 52.2099 86.97 51.3099 86.97C50.4199 86.97 49.6899 86.25 49.6899 85.35C49.6899 84.46 50.4099 83.73 51.3099 83.73C52.1999 83.73 52.9299 84.45 52.9299 85.35Z" fill="url(#paint40_linear)"/>
<path d="M3.24 85.35C3.24 86.24 2.52 86.97 1.62 86.97C0.730001 86.97 0 86.25 0 85.35C0 84.46 0.720001 83.73 1.62 83.73C2.52 83.73 3.24 84.45 3.24 85.35Z" fill="url(#paint41_linear)"/>
<path d="M101.53 57.28C101.53 58.17 100.81 58.9 99.91 58.9C99.02 58.9 98.29 58.17 98.29 57.28C98.29 56.39 99.01 55.66 99.91 55.66C100.81 55.67 101.53 56.39 101.53 57.28Z" fill="url(#paint42_linear)"/>
<path d="M69.1299 57.28C69.1299 58.17 68.4099 58.9 67.5099 58.9C66.6199 58.9 65.8899 58.17 65.8899 57.28C65.8899 56.39 66.6099 55.66 67.5099 55.66C68.3999 55.67 69.1299 56.39 69.1299 57.28Z" fill="url(#paint43_linear)"/>
<path d="M198.51 57.28C198.51 58.17 197.79 58.9 196.89 58.9C196 58.9 195.27 58.17 195.27 57.28C195.27 56.39 195.99 55.66 196.89 55.66C197.78 55.67 198.51 56.39 198.51 57.28Z" fill="url(#paint44_linear)"/>
<path d="M214.76 29.22C214.76 30.11 214.04 30.84 213.14 30.84C212.25 30.84 211.52 30.12 211.52 29.22C211.52 28.32 212.24 27.6 213.14 27.6C214.04 27.6 214.76 28.33 214.76 29.22Z" fill="url(#paint45_linear)"/>
<path d="M166.1 57.28C166.1 58.17 165.38 58.9 164.48 58.9C163.59 58.9 162.86 58.17 162.86 57.28C162.86 56.39 163.58 55.66 164.48 55.66C165.38 55.67 166.1 56.39 166.1 57.28Z" fill="url(#paint46_linear)"/>
<path d="M150.28 141.47C150.28 142.36 149.56 143.09 148.66 143.09C147.76 143.09 147.04 142.36 147.04 141.47C147.04 140.58 147.76 139.85 148.66 139.85C149.56 139.85 150.28 140.58 150.28 141.47Z" fill="url(#paint47_linear)"/>
<path d="M166.1 113.41C166.1 114.3 165.38 115.03 164.48 115.03C163.59 115.03 162.86 114.31 162.86 113.41C162.86 112.52 163.58 111.79 164.48 111.79C165.38 111.79 166.1 112.52 166.1 113.41Z" fill="url(#paint48_linear)"/>
<path d="M198.51 113.41C198.51 114.3 197.79 115.03 196.89 115.03C196 115.03 195.27 114.31 195.27 113.41C195.27 112.52 195.99 111.79 196.89 111.79C197.78 111.79 198.51 112.52 198.51 113.41Z" fill="url(#paint49_linear)"/>
<path d="M52.9299 29.22C52.9299 30.11 52.2099 30.84 51.3099 30.84C50.4199 30.84 49.6899 30.12 49.6899 29.22C49.6899 28.32 50.4099 27.6 51.3099 27.6C52.1999 27.6 52.9299 28.33 52.9299 29.22Z" fill="url(#paint50_linear)"/>
<path d="M69.1299 1.62C69.1299 2.51 68.4099 3.24 67.5099 3.24C66.6199 3.24 65.8899 2.52 65.8899 1.62C65.8899 0.729999 66.6099 0 67.5099 0C68.3999 0 69.1299 0.719999 69.1299 1.62Z" fill="url(#paint51_linear)"/>
<path d="M131.81 43.86C131.72 43.79 131.59 43.78 131.48 43.84C131.37 43.89 131.31 44 131.31 44.12V46.77C125.47 47.13 120.88 51.97 120.88 57.69C120.88 60.38 121.88 62.97 123.72 64.98C123.78 65.04 123.86 65.08 123.94 65.08C124.01 65.08 124.07 65.06 124.13 65.02L126.71 63C126.78 62.95 126.82 62.87 126.82 62.78C126.83 62.7 126.79 62.61 126.73 62.55C125.43 61.23 124.72 59.51 124.72 57.69C124.72 54.05 127.62 50.98 131.31 50.71V53.36C131.31 53.48 131.38 53.58 131.48 53.63C131.59 53.68 131.71 53.66 131.81 53.59L134.82 51.21C134.84 51.2 134.86 51.19 134.88 51.17L136.04 50.25L137.83 48.83C137.91 48.77 137.95 48.68 137.95 48.59C137.95 48.5 137.91 48.41 137.83 48.35L131.81 43.86Z" fill="url(#paint52_linear)"/>
<path d="M139.48 49.95L136.73 52.13C136.66 52.19 136.62 52.27 136.61 52.36C136.61 52.45 136.64 52.53 136.71 52.59C138.16 53.93 138.96 55.74 138.96 57.69C138.96 61.54 135.8 64.63 131.94 64.69V61.95C131.94 61.83 131.87 61.73 131.77 61.67C131.66 61.62 131.54 61.63 131.44 61.7L128.5 63.97C128.45 63.99 128.4 64.02 128.37 64.07C128.37 64.08 128.36 64.08 128.36 64.09L125.61 66.21C125.54 66.27 125.5 66.35 125.5 66.44C125.5 66.53 125.54 66.62 125.61 66.68L131.45 71.44C131.51 71.48 131.57 71.51 131.64 71.51C131.69 71.51 131.73 71.5 131.77 71.48C131.88 71.43 131.94 71.33 131.94 71.21V68.64C138.07 68.69 143.16 63.82 143.16 57.7C143.16 54.79 142 52.05 139.91 49.99C139.8 49.86 139.61 49.85 139.48 49.95Z" fill="url(#paint53_linear)"/>
<path d="M295.84 155.97L295.51 156.53L297.35 157.62L297.68 157.06L295.84 155.97ZM298.72 157.68L298.39 158.24L300.23 159.33L300.56 158.77L298.72 157.68ZM301.6 159.38L301.27 159.94L303.11 161.03L303.44 160.47L301.6 159.38ZM304.48 161.08L304.15 161.64L305.99 162.73L306.32 162.17L304.48 161.08ZM307.36 162.79L307.03 163.35L308.87 164.44L309.2 163.88L307.36 162.79ZM310.24 164.49L309.91 165.05L311.75 166.14L312.08 165.58L310.24 164.49ZM313.12 166.19L312.79 166.75L314.63 167.84L314.96 167.28L313.12 166.19ZM316 167.9L315.67 168.46L317.51 169.55L317.84 168.99L316 167.9ZM318.87 169.6L318.54 170.16L320.38 171.25L320.71 170.69L318.87 169.6ZM321.75 171.31L321.42 171.87L323.26 172.96L323.59 172.4L321.75 171.31ZM324.63 173.01L324.3 173.57L326.14 174.66L326.47 174.1L324.63 173.01ZM327.51 174.71L327.18 175.27L329.02 176.36L329.35 175.8L327.51 174.71Z" fill="url(#paint54_linear)"/>
<path d="M346.42 198.24L346.08 197.65L348.02 196.53L348.36 197.12L346.42 198.24ZM349.46 196.49L349.12 195.9L351.06 194.78L351.4 195.37L349.46 196.49ZM352.49 194.74L352.15 194.15L354.09 193.03L354.43 193.62L352.49 194.74ZM355.52 192.99L355.18 192.4L357.12 191.28L357.46 191.87L355.52 192.99ZM358.56 191.23L358.22 190.64L360.16 189.52L360.5 190.11L358.56 191.23ZM361.59 189.48L361.25 188.89L363.19 187.77L363.53 188.36L361.59 189.48ZM364.62 187.73L364.28 187.14L366.22 186.02L366.56 186.61L364.62 187.73ZM367.65 185.98L367.31 185.39L369.25 184.27L369.59 184.86L367.65 185.98ZM370.69 184.23L370.35 183.64L372.29 182.52L372.63 183.11L370.69 184.23ZM373.72 182.47L373.38 181.88L375.32 180.76L375.66 181.35L373.72 182.47ZM376.75 180.72L376.41 180.13L378.35 179.01L378.69 179.6L376.75 180.72ZM379.79 178.97L379.45 178.38L381.39 177.26L381.73 177.85L379.79 178.97ZM382.82 177.22L382.48 176.63L384.42 175.51L384.76 176.1L382.82 177.22ZM385.85 175.46L385.51 174.87L387.45 173.75L387.79 174.34L385.85 175.46ZM388.89 173.71L388.55 173.12L390.49 172L390.83 172.59L388.89 173.71ZM391.92 171.96L391.58 171.37L393.52 170.25L393.86 170.84L391.92 171.96ZM394.95 170.21L394.61 169.62L396.55 168.5L396.89 169.09L394.95 170.21ZM397.98 168.45L397.64 167.86L399.58 166.74L399.92 167.33L397.98 168.45ZM401.02 166.7L400.68 166.11L402.62 164.99L402.96 165.58L401.02 166.7ZM404.05 164.95L403.71 164.36L405.65 163.24L405.99 163.83L404.05 164.95ZM407.08 163.2L406.74 162.61L408.68 161.49L409.02 162.08L407.08 163.2ZM410.12 161.44L409.78 160.85L411.72 159.73L412.06 160.32L410.12 161.44ZM413.15 159.69L412.81 159.1L414.75 157.98L415.09 158.57L413.15 159.69ZM416.18 157.94L415.84 157.35L417.78 156.23L418.12 156.82L416.18 157.94Z" fill="url(#paint55_linear)"/>
<g opacity="0.4">
<g opacity="0.4">
<g opacity="0.4">
<path opacity="0.4" d="M225.95 36.31L227.11 37.52C227.33 37.75 227.72 37.73 227.9 37.46C229.96 34.4 231.03 30.76 230.9 26.97C230.58 17.14 222.31 9.39999 212.48 9.72999C211.81 9.74999 211.12 9.80999 210.45 9.90999C202.27 11.09 195.89 17.93 195.28 26.17C194.94 30.65 196.27 34.97 198.92 38.41C199.12 38.67 199.51 38.67 199.72 38.42L200.8 37.14C200.95 36.96 200.96 36.7 200.82 36.51C198.94 33.95 197.9 30.86 197.89 27.61C197.86 19.72 203.99 13.04 211.86 12.42C220.55 11.7 227.98 18.45 228.26 27.06C228.36 30.14 227.52 33.14 225.9 35.69C225.76 35.88 225.78 36.14 225.95 36.31Z" fill="url(#paint56_linear)"/>
</g>
</g>
</g>
<g opacity="0.6">
<g opacity="0.6">
<g opacity="0.6">
<path opacity="0.6" d="M221.76 31.69L223.15 33.13C223.43 33.43 223.93 33.34 224.1 32.97C224.89 31.27 225.27 29.42 225.21 27.51C225.02 21.8 220.81 16.95 215.18 15.96C213.54 15.67 211.83 15.73 210.2 16.12C204.66 17.47 200.77 22.6 200.96 28.3C201.02 30.21 201.53 32.03 202.43 33.68C202.63 34.04 203.12 34.09 203.39 33.78L204.68 32.25C204.82 32.08 204.85 31.84 204.76 31.64C204.27 30.56 204 29.4 203.96 28.21C203.83 24.39 206.13 20.87 209.68 19.44C211.66 18.64 213.91 18.57 215.93 19.23C219.56 20.43 222.09 23.79 222.21 27.61C222.25 28.8 222.05 29.97 221.64 31.08C221.56 31.3 221.6 31.53 221.76 31.69Z" fill="url(#paint57_linear)"/>
</g>
</g>
</g>
<path d="M223.63 43.01L223.47 38.03C223.46 37.69 223.35 36.56 222.38 36.25C221.92 36.1 221.49 36.18 221.12 36.35L221.03 36.36H221C220.81 35.74 220.39 35.35 219.77 35.27C219.03 35.17 218.52 35.4 218.22 35.64C217.89 34.99 217.27 34.67 216.44 34.76C215.82 34.83 215.36 35.15 215.04 35.57L214.9 31.32C214.87 30.49 214.82 29.65 214.82 28.82C214.71 27.94 213.97 27.26 213.06 27.26C212.55 27.26 212.04 27.51 211.7 27.89C211.34 28.29 211.31 28.79 211.31 29.3V31.34L211.32 36.98C211.29 37.16 211.39 41.08 211.39 41.08C211.05 40.75 210.67 40.38 210.32 40.02C209.52 39.18 208.08 38.65 207.13 38.57C206.63 38.53 206.25 38.61 206.01 38.81C205.93 38.87 205.85 38.95 205.78 39.02C205.31 39.52 204.97 40.3 205.32 40.86C205.48 41.1 205.73 41.26 206.01 41.42C206.37 41.64 206.98 41.87 207.45 42.43C208.24 43.37 210.06 45.47 211.17 46.59C211.4 46.72 211.89 47.18 212.11 47.29C212.8 47.7 213.37 48.09 213.57 48.31C213.73 48.48 214.63 48.9 214.63 48.9C215.36 49.33 216.68 49.71 218.19 49.66C219.7 49.61 221.07 49.66 222.05 48.73H222.1L222.12 48.66C223.12 47.68 223.71 46.36 223.67 44.91C223.68 44.58 223.64 43.26 223.63 43.01Z" fill="url(#paint58_linear)"/>
<path d="M212.94 23.42C210.62 23.5 208.79 25.44 208.87 27.77C208.91 29.02 209.36 30.12 210.2 30.87V29.1C210.2 28.42 210.44 27.8 210.83 27.31C211.36 26.66 212.16 26.24 213.06 26.24C214.41 26.24 215.54 27.18 215.84 28.44C215.89 28.66 215.92 28.88 215.92 29.11L215.93 30.96C216.88 30.16 217.32 28.91 217.28 27.52C217.21 25.17 215.27 23.34 212.94 23.42Z" fill="url(#paint59_linear)"/>
<path d="M132.45 108.92C128.51 108.92 124.77 110.41 121.92 113.13C121.47 113.56 121.21 114.14 121.2 114.76C121.18 115.38 121.41 115.98 121.84 116.43C122.28 116.89 122.9 117.16 123.53 117.16C124.13 117.16 124.71 116.93 125.14 116.52C127.12 114.64 129.72 113.6 132.45 113.6C135.17 113.6 137.76 114.63 139.74 116.5C140.67 117.38 142.15 117.34 143.04 116.41C143.47 115.96 143.7 115.36 143.68 114.74C143.66 114.12 143.4 113.54 142.95 113.11C140.09 110.4 136.37 108.92 132.45 108.92Z" fill="url(#paint60_linear)"/>
<path d="M147.86 106.7C143.68 102.75 138.21 100.58 132.46 100.58C126.68 100.58 121.19 102.77 117 106.75C116.55 107.18 116.29 107.76 116.28 108.38C116.26 109 116.49 109.6 116.92 110.05C117.36 110.51 117.98 110.78 118.61 110.78C119.21 110.78 119.79 110.55 120.22 110.14C123.54 106.99 127.88 105.25 132.46 105.25C137.02 105.25 141.35 106.97 144.66 110.1C145.59 110.98 147.07 110.94 147.96 110C148.39 109.55 148.62 108.95 148.6 108.33C148.57 107.71 148.31 107.13 147.86 106.7Z" fill="url(#paint61_linear)"/>
<path d="M132.82 117.39C130.31 117.39 128.27 119.43 128.27 121.94C128.27 124.45 130.31 126.49 132.82 126.49C135.33 126.49 137.37 124.45 137.37 121.94C137.37 119.43 135.33 117.39 132.82 117.39ZM132.85 121.94C132.85 121.97 132.79 121.97 132.79 121.94C132.79 121.93 132.81 121.91 132.82 121.91C132.83 121.91 132.85 121.93 132.85 121.94Z" fill="url(#paint62_linear)"/>
<path d="M97.7301 18.17L95.1601 15.6C94.3201 14.76 93.1001 14.33 91.8401 14.44C90.6501 14.54 89.5001 15.09 88.6101 15.98L83.6901 20.9C83.5801 21.01 83.4901 21.13 83.4101 21.25C82.8901 21.1 82.3401 21.03 81.7801 21.08C80.5901 21.18 79.4401 21.73 78.5501 22.62L70.7001 30.47C69.8201 31.35 69.2801 32.48 69.1601 33.64C69.0301 34.95 69.4401 36.15 70.3201 37.02L72.8901 39.59C73.6501 40.35 74.6901 40.77 75.8201 40.77C75.9701 40.77 76.1301 40.76 76.2801 40.75C77.4501 40.64 78.5701 40.09 79.4501 39.21L83.9401 34.72C84.1801 34.47 84.3501 34.18 84.4301 33.86C84.8901 34.03 85.3801 34.12 85.8901 34.12C87.2001 34.12 88.5201 33.55 89.5101 32.56L97.3601 24.71C98.2401 23.83 98.7801 22.7 98.9001 21.54C99.0201 20.24 98.6001 19.04 97.7301 18.17ZM83.0401 27.72C82.9501 27.63 82.9601 27.45 82.9701 27.37C83.0001 27.07 83.1601 26.76 83.4201 26.5C83.5201 26.4 83.6101 26.29 83.6801 26.17L84.9901 27.49C85.0801 27.58 85.0701 27.76 85.0601 27.84C85.0301 28.14 84.8701 28.45 84.6101 28.71C84.5101 28.81 84.4201 28.93 84.3501 29.04L83.0401 27.72ZM87.6601 24.82L86.3801 23.54L91.2701 18.65C91.5201 18.4 91.8401 18.23 92.1301 18.2C92.3001 18.18 92.4301 18.21 92.5001 18.27L95.0701 20.84C95.1601 20.93 95.1501 21.11 95.1401 21.19C95.1101 21.49 94.9501 21.8 94.6901 22.06L88.8401 27.91C88.8801 26.71 88.4701 25.62 87.6601 24.82ZM81.2601 32.07L76.7701 36.56C76.5101 36.82 76.1901 36.98 75.9001 37.01C75.7401 37.03 75.6101 37 75.5501 36.94L72.9801 34.37C72.8901 34.28 72.9001 34.1 72.9101 34.02C72.9401 33.72 73.1001 33.41 73.3601 33.15L79.2101 27.3C79.1701 28.49 79.5701 29.58 80.3801 30.39L81.7201 31.73C81.5501 31.82 81.4001 31.93 81.2601 32.07Z" fill="url(#paint63_linear)"/>
<path d="M402.69 192.07H400.24C399.53 192.07 398.95 192.65 398.95 193.36V195.81C398.95 196.5 399.49 197.06 400.16 197.1V200.33L396.92 202.59V189.27L397.42 189.97C397.83 190.54 398.65 190.68 399.22 190.27C399.5 190.07 399.69 189.77 399.74 189.43C399.8 189.09 399.72 188.75 399.52 188.47L396.68 184.49C396.45 184.16 396.05 183.97 395.63 183.97C395.2 183.97 394.81 184.16 394.58 184.49L391.74 188.47C391.54 188.75 391.46 189.09 391.52 189.43C391.58 189.77 391.77 190.07 392.05 190.27C392.27 190.43 392.53 190.51 392.8 190.51C392.87 190.51 392.94 190.5 393.01 190.49C393.35 190.43 393.65 190.25 393.85 189.97L394.35 189.27V205.08L391.35 202.98V198.88C392.03 198.84 392.58 198.28 392.58 197.59V195.14C392.58 194.43 392 193.85 391.29 193.85H388.84C388.13 193.85 387.55 194.43 387.55 195.14V197.59C387.55 198.28 388.09 198.84 388.78 198.88V203.65C388.78 204.07 388.99 204.47 389.33 204.71L394.28 208.17C393.02 208.71 392.13 209.96 392.13 211.42C392.13 213.36 393.71 214.95 395.66 214.95C397.61 214.95 399.19 213.37 399.19 211.42C399.19 210.48 398.82 209.59 398.16 208.92C397.81 208.57 397.4 208.31 396.96 208.13V205.68C397.06 205.64 397.16 205.6 397.25 205.53L402.23 202.05C402.58 201.81 402.78 201.41 402.78 200.99V197.09C403.47 197.06 404.02 196.49 404.02 195.8V193.35C403.98 192.65 403.4 192.07 402.69 192.07ZM396.57 211.42C396.57 211.94 396.15 212.36 395.63 212.36C395.11 212.36 394.69 211.94 394.69 211.42C394.69 210.9 395.11 210.48 395.63 210.48C395.88 210.48 396.12 210.58 396.3 210.76C396.47 210.93 396.57 211.17 396.57 211.42Z" fill="url(#paint64_linear)"/>
<path d="M261.47 134.25C261.17 134.25 260.88 134.07 260.76 133.78C259.91 131.77 259.48 129.63 259.48 127.42C259.48 126.99 259.82 126.65 260.25 126.65C260.68 126.65 261.02 127 261.02 127.42C261.02 129.42 261.41 131.35 262.18 133.18C262.35 133.57 262.16 134.02 261.77 134.19C261.67 134.23 261.57 134.25 261.47 134.25Z" fill="url(#paint65_linear)"/>
<path d="M289.67 136.07C289.56 136.07 289.45 136.04 289.34 136C288.96 135.82 288.79 135.36 288.97 134.97C289.63 133.57 290.06 132.08 290.26 130.54C290.31 130.12 290.7 129.82 291.12 129.87C291.54 129.92 291.84 130.31 291.79 130.73C291.58 132.43 291.1 134.07 290.37 135.62C290.24 135.9 289.96 136.07 289.67 136.07Z" fill="url(#paint66_linear)"/>
<path d="M291.37 128.2C290.94 128.2 290.6 127.85 290.6 127.43C290.6 121.47 287.05 116.12 281.56 113.8C281.17 113.63 280.98 113.18 281.15 112.79C281.32 112.4 281.77 112.21 282.16 112.38C288.22 114.94 292.13 120.85 292.13 127.43C292.14 127.85 291.8 128.2 291.37 128.2Z" fill="url(#paint67_linear)"/>
<path d="M261.11 123.08C261.03 123.08 260.94 123.07 260.86 123.04C260.46 122.9 260.24 122.46 260.39 122.06C262.67 115.5 268.87 111.09 275.82 111.09C276.24 111.09 276.59 111.44 276.59 111.86C276.59 112.29 276.24 112.63 275.82 112.63C269.53 112.63 263.91 116.62 261.85 122.56C261.72 122.88 261.42 123.08 261.11 123.08Z" fill="url(#paint68_linear)"/>
<path d="M263.45 129.71C263.07 129.71 262.73 129.42 262.69 129.03C262.63 128.5 262.59 127.96 262.59 127.42C262.59 122.73 265.11 118.35 269.17 115.99C269.54 115.78 270.01 115.9 270.22 116.27C270.43 116.64 270.31 117.11 269.94 117.32C266.35 119.41 264.13 123.28 264.13 127.42C264.13 127.9 264.16 128.38 264.22 128.84C264.27 129.26 263.97 129.65 263.55 129.7C263.51 129.71 263.48 129.71 263.45 129.71Z" fill="url(#paint69_linear)"/>
<path d="M283.46 118.37C283.29 118.37 283.13 118.32 282.99 118.21C280.92 116.6 278.44 115.75 275.81 115.75C275.24 115.75 274.68 115.79 274.12 115.87C273.7 115.93 273.31 115.64 273.24 115.22C273.18 114.8 273.47 114.41 273.89 114.35C274.52 114.26 275.16 114.21 275.8 114.21C278.77 114.21 281.58 115.17 283.93 117C284.27 117.26 284.33 117.75 284.06 118.08C283.91 118.27 283.69 118.37 283.46 118.37Z" fill="url(#paint70_linear)"/>
<path d="M283.99 141.43C283.82 141.43 283.65 141.37 283.5 141.26C283.17 140.99 283.12 140.5 283.39 140.17C287.4 135.28 289.32 126.81 285.6 121.08C285.37 120.72 285.47 120.25 285.83 120.01C286.19 119.78 286.67 119.88 286.9 120.24C288.8 123.17 289.53 127 288.95 131.04C288.42 134.72 286.83 138.4 284.58 141.15C284.44 141.34 284.22 141.43 283.99 141.43Z" fill="url(#paint71_linear)"/>
<path d="M276.61 132.88C276.2 132.88 275.86 132.55 275.84 132.14C275.78 130.65 275.57 129.21 275.21 127.86C275.1 127.45 275.34 127.03 275.76 126.91C276.17 126.8 276.59 127.04 276.7 127.46C277.09 128.92 277.32 130.48 277.38 132.08C277.4 132.51 277.06 132.86 276.64 132.88C276.63 132.88 276.62 132.88 276.61 132.88Z" fill="url(#paint72_linear)"/>
<path d="M274.81 143.76C274.71 143.76 274.62 143.74 274.52 143.71C274.13 143.55 273.93 143.1 274.09 142.71C275.11 140.15 275.75 137.41 275.94 134.78C275.97 134.36 276.34 134.03 276.76 134.07C277.18 134.1 277.51 134.47 277.47 134.89C277.27 137.68 276.6 140.58 275.51 143.28C275.41 143.57 275.12 143.76 274.81 143.76Z" fill="url(#paint73_linear)"/>
<path d="M263.63 137.89C263.56 137.89 263.49 137.88 263.42 137.86C263.01 137.74 262.77 137.32 262.89 136.91C263.31 135.43 263.43 133.8 263.24 132.2C263.19 131.78 263.49 131.39 263.91 131.34C264.33 131.29 264.72 131.59 264.77 132.01C264.99 133.81 264.86 135.66 264.38 137.33C264.27 137.67 263.97 137.89 263.63 137.89Z" fill="url(#paint74_linear)"/>
<path d="M285.24 128.2C284.81 128.2 284.47 127.85 284.47 127.43C284.47 124.57 283.06 121.9 280.7 120.28C280.35 120.04 280.26 119.56 280.5 119.21C280.74 118.86 281.22 118.77 281.57 119.01C284.35 120.92 286.01 124.06 286.01 127.43C286.01 127.85 285.66 128.2 285.24 128.2Z" fill="url(#paint75_linear)"/>
<path d="M266.38 128.2C265.95 128.2 265.61 127.85 265.61 127.43C265.61 121.8 270.19 117.23 275.81 117.23C276.16 117.23 276.51 117.25 276.86 117.28C277.28 117.32 277.59 117.7 277.55 118.12C277.51 118.54 277.13 118.85 276.7 118.81C276.41 118.78 276.11 118.76 275.81 118.76C271.04 118.76 267.15 122.64 267.15 127.42C267.15 127.85 266.8 128.2 266.38 128.2Z" fill="url(#paint76_linear)"/>
<path d="M266.14 140.39C266.05 140.39 265.96 140.37 265.87 140.34C265.47 140.19 265.27 139.75 265.42 139.35C266.05 137.68 266.36 135.92 266.36 134.12C266.36 132.94 266.22 131.77 265.95 130.64C265.85 130.22 266.11 129.81 266.52 129.71C266.93 129.61 267.35 129.87 267.45 130.28C267.75 131.53 267.9 132.82 267.9 134.12C267.9 136.11 267.55 138.05 266.86 139.89C266.74 140.2 266.45 140.39 266.14 140.39Z" fill="url(#paint77_linear)"/>
<path d="M277.86 143.81C277.62 143.81 277.37 143.69 277.23 143.48C276.99 143.13 277.08 142.65 277.43 142.41C281.32 139.74 283.81 135.64 284.46 130.88C284.52 130.46 284.9 130.16 285.33 130.22C285.75 130.28 286.05 130.66 285.99 131.09C285.29 136.29 282.56 140.76 278.31 143.68C278.16 143.77 278.01 143.81 277.86 143.81Z" fill="url(#paint78_linear)"/>
<path d="M270.26 125.31C270.14 125.31 270.02 125.28 269.9 125.22C269.52 125.02 269.38 124.56 269.57 124.18C270.79 121.85 273.17 120.4 275.8 120.4C277.55 120.4 279.23 121.05 280.53 122.23C280.85 122.52 280.87 123.01 280.58 123.32C280.29 123.63 279.8 123.66 279.49 123.37C278.48 122.45 277.17 121.94 275.8 121.94C273.75 121.94 271.89 123.07 270.94 124.89C270.81 125.15 270.54 125.31 270.26 125.31Z" fill="url(#paint79_linear)"/>
<path d="M270.54 135.64C270.11 135.64 269.77 135.3 269.77 134.87C269.77 132.66 269.47 130.47 268.88 128.36C268.77 127.95 269.01 127.52 269.42 127.41C269.83 127.3 270.25 127.54 270.37 127.95C270.99 130.2 271.31 132.53 271.32 134.87C271.31 135.3 270.97 135.64 270.54 135.64Z" fill="url(#paint80_linear)"/>
<path d="M269.07 142.21C268.96 142.21 268.86 142.19 268.75 142.14C268.36 141.96 268.19 141.51 268.37 141.12C268.87 140.01 269.23 138.83 269.43 137.63C269.5 137.21 269.89 136.92 270.32 136.99C270.74 137.06 271.03 137.46 270.96 137.88C270.74 139.22 270.34 140.52 269.78 141.76C269.65 142.04 269.37 142.21 269.07 142.21Z" fill="url(#paint81_linear)"/>
<path d="M282.72 132.19C282.7 132.19 282.69 132.19 282.67 132.19C282.25 132.16 281.92 131.8 281.95 131.37C282.07 129.55 281.82 127.77 281.22 126.07C281.08 125.67 281.29 125.23 281.69 125.09C282.09 124.95 282.53 125.16 282.67 125.56C283.33 127.46 283.61 129.44 283.48 131.47C283.46 131.88 283.12 132.19 282.72 132.19Z" fill="url(#paint82_linear)"/>
<path d="M271.79 143.23C271.68 143.23 271.58 143.21 271.48 143.16C271.09 142.99 270.92 142.53 271.09 142.14C271.45 141.33 271.76 140.48 272.01 139.63C272.13 139.22 272.56 138.99 272.97 139.1C273.38 139.22 273.62 139.64 273.5 140.06C273.23 140.98 272.9 141.89 272.51 142.77C272.37 143.06 272.08 143.23 271.79 143.23Z" fill="url(#paint83_linear)"/>
<path d="M273.25 138.21C273.21 138.21 273.17 138.21 273.13 138.2C272.71 138.14 272.42 137.74 272.48 137.32C272.66 136.11 272.72 134.88 272.64 133.65C272.6 133.06 272.54 132.48 272.44 131.9C272.37 131.48 272.65 131.08 273.07 131.01C273.49 130.94 273.89 131.22 273.96 131.64C274.07 132.27 274.14 132.91 274.18 133.55C274.26 134.89 274.21 136.23 274.01 137.55C273.95 137.94 273.62 138.21 273.25 138.21Z" fill="url(#paint84_linear)"/>
<path d="M280.02 133.17C279.59 133.17 279.25 132.82 279.25 132.4C279.25 129.82 278.53 124.93 275.81 124.93C274.43 124.93 273.31 126.05 273.31 127.43C273.31 127.48 273.31 127.52 273.31 127.57C273.33 127.99 273.01 128.36 272.58 128.38C272.15 128.4 271.79 128.08 271.77 127.65C271.77 127.57 271.76 127.5 271.76 127.42C271.76 125.19 273.57 123.38 275.8 123.38C279.48 123.38 280.78 128.24 280.78 132.4C280.79 132.83 280.44 133.17 280.02 133.17Z" fill="url(#paint85_linear)"/>
<path d="M278.55 140.11C278.45 140.11 278.34 140.09 278.24 140.04C277.85 139.87 277.68 139.41 277.85 139.02C278.43 137.71 278.84 136.33 279.06 134.91C279.13 134.49 279.52 134.2 279.94 134.27C280.36 134.34 280.65 134.73 280.58 135.15C280.34 136.7 279.89 138.22 279.25 139.65C279.12 139.94 278.84 140.11 278.55 140.11Z" fill="url(#paint86_linear)"/>
<path d="M443.76 143.87L437.66 136.7C439.06 135.09 439.91 133 439.91 130.7C439.91 125.66 435.81 121.55 430.76 121.55C425.72 121.55 421.61 125.65 421.61 130.7C421.61 135.74 425.71 139.85 430.76 139.85C432.11 139.85 433.39 139.55 434.54 139.03L440.8 146.39C441.17 146.82 441.71 147.07 442.28 147.07C442.74 147.07 443.18 146.91 443.54 146.61C444.35 145.91 444.45 144.68 443.76 143.87ZM430.76 125.24C433.77 125.24 436.22 127.69 436.22 130.7C436.22 133.71 433.77 136.16 430.76 136.16C427.75 136.16 425.3 133.71 425.3 130.7C425.3 127.69 427.75 125.24 430.76 125.24Z" fill="url(#paint87_linear)"/>
<path d="M183.19 213.95C163.37 213.85 147.33 197.65 147.43 177.83C147.53 158.01 163.73 141.97 183.55 142.07C203.37 142.17 219.41 158.37 219.31 178.19C219.21 198 203 214.05 183.19 213.95ZM183.52 145.95C165.84 145.86 151.38 160.18 151.3 177.86C151.21 195.54 165.53 210 183.21 210.08C200.89 210.17 215.35 195.85 215.43 178.17C215.52 160.49 201.2 146.03 183.52 145.95Z" fill="url(#paint88_linear)"/>
<path d="M183.15 221.51C159.16 221.39 139.74 201.78 139.86 177.8L143.2 177.82C143.09 199.97 161.02 218.07 183.17 218.18C205.32 218.29 223.42 200.36 223.53 178.21C223.64 156.07 205.71 137.96 183.56 137.85L183.58 134.51C207.57 134.63 226.99 154.24 226.87 178.22C226.75 202.21 207.14 221.63 183.15 221.51Z" fill="url(#paint89_linear)"/>
<path d="M219.4 214.65L217.05 212.28C235.83 193.69 235.98 163.28 217.38 144.5L219.75 142.15C239.65 162.24 239.48 194.76 219.4 214.65Z" fill="url(#paint90_linear)"/>
<path d="M251.2 174.07L233.14 173.98V173.65L251.2 173.74V174.07Z" fill="url(#paint91_linear)"/>
<path d="M260.71 188.45L224.34 188.27L224.35 187.94L260.71 188.12V188.45Z" fill="url(#paint92_linear)"/>
<path d="M270.65 201.31L208.94 201.01V200.67L270.65 200.98V201.31Z" fill="url(#paint93_linear)"/>
<path d="M249.23 174.06C249.24 172.97 250.12 172.09 251.21 172.1C252.3 172.11 253.18 172.99 253.17 174.08C253.17 175.17 252.28 176.05 251.19 176.04C250.1 176.04 249.22 175.15 249.23 174.06Z" fill="url(#paint94_linear)"/>
<path d="M258.74 188.02C258.74 186.93 259.63 186.05 260.72 186.06C261.81 186.07 262.69 186.95 262.68 188.04C262.67 189.13 261.79 190.01 260.7 190C259.61 189.99 258.73 189.11 258.74 188.02Z" fill="url(#paint95_linear)"/>
<path d="M268.67 201.13C268.67 200.04 269.56 199.16 270.65 199.17C271.74 199.18 272.62 200.06 272.61 201.15C272.6 202.24 271.72 203.12 270.63 203.11C269.55 203.11 268.67 202.22 268.67 201.13Z" fill="url(#paint96_linear)"/>
<path d="M340 78H360.51C361.44 78 362.2 77.24 362.2 76.31V59.83C362.2 58.9 361.44 58.14 360.51 58.14H344.99V56.39C344.99 53.65 347.32 51.42 350.18 51.42C352.45 51.42 354.49 52.88 355.15 54.96C355.27 55.34 355.55 55.64 355.92 55.79C356.29 55.93 356.7 55.9 357.05 55.7L357.72 55.31C358.26 55 358.51 54.35 358.3 53.75C357.13 50.33 353.87 48.03 350.18 48.03C345.46 48.03 341.62 51.78 341.62 56.38V58.13H340.01C339.08 58.13 338.32 58.89 338.32 59.82V76.3C338.31 77.24 339.07 78 340 78ZM348.57 65.57C348.57 64.64 349.33 63.88 350.26 63.88C351.19 63.88 351.95 64.64 351.95 65.57V70.59C351.95 71.52 351.19 72.28 350.26 72.28C349.33 72.28 348.57 71.52 348.57 70.59V65.57Z" fill="url(#paint97_linear)"/>
<path d="M375.41 39.68C375.23 39.52 375.03 39.39 374.81 39.3L373.83 38.92C358.63 32.98 341.88 32.98 326.68 38.92L326.45 39.01C324.73 39.68 323.62 41.31 323.62 43.15V79.73C323.62 81.11 324.3 82.39 325.45 83.15L348.07 98.17C348.73 98.61 349.49 98.83 350.24 98.83C351 98.83 351.75 98.61 352.41 98.17L374.96 83.19C376.15 82.4 376.87 81.07 376.87 79.64V41.57C376.88 40.66 376.26 39.89 375.41 39.68ZM327.53 43.04C327.53 42.88 327.63 42.74 327.77 42.69C335.02 39.86 342.64 38.44 350.25 38.44C357.87 38.44 365.49 39.86 372.73 42.69L372.97 42.78V79.63C372.97 79.76 372.91 79.88 372.8 79.95L350.46 94.79C350.33 94.87 350.17 94.87 350.04 94.79L327.7 79.95C327.59 79.88 327.53 79.76 327.53 79.63V43.04V43.04Z" fill="url(#paint98_linear)"/>
<path d="M445.94 155.8H419.9L406.88 133.25L419.9 110.7H445.94L458.96 133.25L445.94 155.8ZM420.49 154.78H445.35L457.78 133.25L445.35 111.72H420.49L408.06 133.25L420.49 154.78Z" fill="url(#paint99_linear)"/>
<path d="M94.3101 120.17L106.37 141.06L94.3101 161.96H70.1801L58.1201 141.06L70.1801 120.17H94.3101ZM94.9501 119.06H69.5401L56.8301 141.06L69.5401 163.07H94.9501L107.66 141.06L94.9501 119.06Z" fill="url(#paint100_linear)"/>
<path d="M84.24 142.46H83.34C83.24 142.46 83.2 142.36 83.19 142.33C83.09 142.04 82.97 141.75 82.83 141.48C82.8 141.42 82.8 141.35 82.84 141.32L83.49 140.67C83.74 140.42 83.87 140.1 83.87 139.75C83.87 139.4 83.73 139.08 83.49 138.83L82.08 137.42C81.84 137.18 81.51 137.05 81.16 137.05C80.81 137.05 80.48 137.19 80.24 137.42L79.58 138.08C79.53 138.13 79.44 138.1 79.42 138.09C79.14 137.96 78.86 137.84 78.57 137.74C78.54 137.73 78.45 137.69 78.45 137.6V136.68C78.45 135.97 77.87 135.38 77.15 135.38H75.15C74.44 135.38 73.85 135.96 73.85 136.68V137.6C73.85 137.69 73.76 137.73 73.73 137.74C73.44 137.84 73.15 137.96 72.88 138.09C72.86 138.1 72.77 138.14 72.72 138.08L72.06 137.42C71.82 137.18 71.49 137.05 71.14 137.05C70.79 137.05 70.46 137.19 70.22 137.42L68.81 138.83C68.31 139.33 68.31 140.16 68.81 140.66L69.46 141.31C69.49 141.34 69.5 141.41 69.47 141.47C69.33 141.74 69.21 142.03 69.11 142.32C69.1 142.35 69.06 142.45 68.96 142.45H68.06C67.35 142.45 66.76 143.03 66.76 143.74V145.74C66.76 146.45 67.34 147.04 68.06 147.04H68.94C69 147.04 69.06 147.07 69.07 147.13C69.18 147.45 69.31 147.77 69.46 148.08C69.48 148.12 69.47 148.17 69.43 148.21L68.79 148.85C68.29 149.35 68.29 150.18 68.79 150.68L70.2 152.09C70.44 152.33 70.77 152.46 71.12 152.46C71.47 152.46 71.8 152.32 72.04 152.09L72.67 151.46C72.71 151.42 72.76 151.41 72.8 151.43C73.11 151.59 73.43 151.72 73.75 151.83C73.8 151.85 73.84 151.91 73.84 151.97V152.83C73.84 153.54 74.42 154.12 75.14 154.12H77.14C77.85 154.12 78.44 153.54 78.44 152.83V151.97C78.44 151.9 78.48 151.84 78.53 151.83C78.85 151.72 79.18 151.59 79.48 151.43C79.52 151.41 79.57 151.42 79.61 151.46L80.24 152.09C80.48 152.33 80.81 152.46 81.16 152.46C81.51 152.46 81.84 152.32 82.08 152.09L83.49 150.68C83.73 150.43 83.87 150.11 83.87 149.76C83.87 149.41 83.73 149.09 83.49 148.84L82.85 148.2C82.81 148.16 82.8 148.11 82.82 148.07C82.97 147.76 83.11 147.44 83.21 147.12C83.23 147.07 83.28 147.04 83.34 147.04H84.22C84.93 147.04 85.52 146.46 85.52 145.74V143.74C85.53 143.04 84.95 142.46 84.24 142.46ZM79.78 144.76C79.78 146.76 78.15 148.39 76.15 148.39C74.15 148.39 72.52 146.76 72.52 144.76C72.52 142.76 74.15 141.13 76.15 141.13C78.16 141.13 79.78 142.76 79.78 144.76ZM95.86 135.04H95.24C95.17 135.04 95.15 134.97 95.14 134.95C95.07 134.75 94.99 134.55 94.89 134.36C94.87 134.32 94.87 134.27 94.89 134.25L95.34 133.8C95.51 133.63 95.6 133.41 95.6 133.17C95.6 132.93 95.51 132.71 95.34 132.54L94.37 131.57C94.21 131.41 93.98 131.31 93.74 131.31C93.5 131.31 93.27 131.4 93.11 131.57L92.66 132.02C92.62 132.06 92.56 132.03 92.55 132.02C92.36 131.93 92.16 131.85 91.96 131.78C91.94 131.77 91.88 131.75 91.88 131.69V131.06C91.88 130.57 91.48 130.17 90.99 130.17H89.62C89.13 130.17 88.73 130.57 88.73 131.06V131.69C88.73 131.75 88.67 131.78 88.65 131.78C88.45 131.85 88.25 131.93 88.06 132.02C88.04 132.03 87.98 132.05 87.95 132.02L87.5 131.57C87.34 131.41 87.11 131.31 86.87 131.31C86.63 131.31 86.4 131.4 86.24 131.57L85.27 132.54C84.92 132.89 84.92 133.45 85.27 133.8L85.72 134.25C85.74 134.27 85.75 134.32 85.73 134.36C85.64 134.55 85.55 134.75 85.48 134.95C85.47 134.97 85.44 135.04 85.38 135.04H84.76C84.27 135.04 83.87 135.44 83.87 135.93V137.3C83.87 137.79 84.27 138.19 84.76 138.19H85.37C85.41 138.19 85.45 138.21 85.46 138.25C85.53 138.47 85.63 138.69 85.73 138.9C85.74 138.93 85.74 138.96 85.71 138.99L85.27 139.43C84.92 139.78 84.92 140.34 85.27 140.69L86.24 141.66C86.4 141.82 86.63 141.92 86.87 141.92C87.11 141.92 87.34 141.83 87.5 141.66L87.93 141.23C87.96 141.2 87.99 141.2 88.02 141.21C88.23 141.32 88.45 141.41 88.67 141.48C88.71 141.49 88.73 141.53 88.73 141.58V142.17C88.73 142.66 89.13 143.06 89.62 143.06H90.99C91.48 143.06 91.88 142.66 91.88 142.17V141.58C91.88 141.53 91.9 141.49 91.94 141.48C92.16 141.4 92.38 141.31 92.59 141.21C92.62 141.2 92.65 141.21 92.68 141.23L93.11 141.66C93.27 141.82 93.5 141.92 93.74 141.92C93.98 141.92 94.21 141.83 94.37 141.66L95.34 140.69C95.51 140.52 95.6 140.3 95.6 140.06C95.6 139.82 95.51 139.6 95.34 139.43L94.9 138.99C94.87 138.96 94.87 138.93 94.88 138.9C94.99 138.69 95.08 138.47 95.15 138.25C95.16 138.22 95.2 138.19 95.24 138.19H95.85C96.34 138.19 96.74 137.79 96.74 137.3V135.93C96.75 135.44 96.35 135.04 95.86 135.04ZM92.8 136.62C92.8 137.99 91.68 139.11 90.31 139.11C88.94 139.11 87.82 137.99 87.82 136.62C87.82 135.25 88.94 134.13 90.31 134.13C91.68 134.12 92.8 135.24 92.8 136.62Z" fill="url(#paint101_linear)"/>
<path opacity="0.5" d="M420.06 110.42L419.47 111.45L407.04 132.98H382.2L372.45 116.09L369.99 111.83L369.76 111.43L369.34 110.7H345.86C345.66 110 345.02 109.48 344.26 109.48C343.34 109.48 342.59 110.23 342.59 111.15C342.59 112.07 343.34 112.82 344.26 112.82C344.98 112.82 345.59 112.36 345.82 111.73H368.73L381.17 133.27L368.75 154.78H343.89L343.82 154.65V155.8H369.34L381.93 134H407.63L420.65 111.45L420.06 110.42Z" fill="url(#paint102_linear)"/>
<g opacity="0.2">
<path opacity="0.2" d="M197.21 57.91H164.34L147.9 29.44L164.34 0.970001H197.21L213.65 29.44L197.21 57.91ZM164.91 56.92H196.64L212.5 29.44L196.64 1.96H164.91L149.05 29.44L164.91 56.92Z" fill="url(#paint103_linear)"/>
</g>
<g opacity="0.2">
<path opacity="0.2" d="M100.08 226.23H67.2L50.76 197.76L67.2 169.29H100.07L116.51 197.76L100.08 226.23ZM67.78 225.24H99.51L115.37 197.76L99.51 170.28H67.78L51.92 197.76L67.78 225.24Z" fill="url(#paint104_linear)"/>
</g>
<g opacity="0.2">
<path opacity="0.2" d="M294.3 58.13H261.43L244.99 29.66L261.43 1.19H294.3L310.74 29.66L294.3 58.13ZM262 57.14H293.73L309.59 29.66L293.73 2.18H262L246.14 29.66L262 57.14Z" fill="url(#paint105_linear)"/>
</g>
<g opacity="0.2">
<path opacity="0.2" d="M294.3 233.82H261.43L244.99 205.35L261.43 176.88H294.3L310.74 205.35L294.3 233.82ZM262 232.82H293.73L309.59 205.34L293.73 177.86H262L246.14 205.34L262 232.82Z" fill="url(#paint106_linear)"/>
</g>
<g opacity="0.2">
<path opacity="0.2" d="M363.66 267.13H330.79L314.35 238.66L330.79 210.19H363.66L380.1 238.66L363.66 267.13ZM331.36 266.14H363.09L378.95 238.66L363.09 211.18H331.36L315.5 238.66L331.36 266.14Z" fill="url(#paint107_linear)"/>
</g>
<path d="M204.312 176C204.312 187.771 194.771 197.312 183 197.312C171.229 197.312 161.688 187.771 161.688 176C161.688 164.229 171.229 154.688 183 154.688C194.771 154.688 204.312 164.229 204.312 176ZM192.139 172.964C192.564 170.128 190.404 168.603 187.451 167.586L188.409 163.745L186.071 163.162L185.138 166.902C184.523 166.749 183.892 166.605 183.265 166.462L184.204 162.697L181.866 162.114L180.908 165.954C180.399 165.838 179.899 165.724 179.415 165.603L179.417 165.591L176.192 164.786L175.57 167.283C175.57 167.283 177.305 167.681 177.268 167.706C178.216 167.942 178.387 168.569 178.358 169.066L177.267 173.442C177.332 173.459 177.417 173.483 177.51 173.52C177.432 173.501 177.349 173.479 177.263 173.459L175.734 179.589C175.618 179.877 175.324 180.309 174.662 180.145C174.685 180.179 172.962 179.72 172.962 179.72L171.801 182.397L174.845 183.156C175.411 183.298 175.966 183.446 176.512 183.586L175.544 187.471L177.88 188.054L178.838 184.21C179.458 184.378 180.079 184.539 180.702 184.694L179.747 188.52L182.085 189.102L183.053 185.224C187.041 185.979 190.04 185.674 191.302 182.068C192.319 179.164 191.251 177.489 189.153 176.397C190.681 176.045 191.832 175.04 192.139 172.964V172.964ZM186.796 180.456C186.073 183.36 181.184 181.79 179.598 181.396L180.883 176.249C182.468 176.644 187.551 177.427 186.796 180.456ZM187.519 172.922C186.86 175.563 182.79 174.221 181.47 173.892L182.634 169.224C183.955 169.553 188.206 170.167 187.519 172.922Z" fill="url(#paint108_linear)"/>
<path d="M191.443 84.225L181 88.575L170.55 84.225L181 72L191.443 84.225ZM181 89.9719L170.55 85.6219L181 96L191.45 85.6219L181 89.9719V89.9719Z" fill="url(#paint109_linear)"/>
<path d="M366 165.5H362.333L357.71 174.5H352.296L347.667 165.5H344L346.75 170.75H344V173H347.924L348.715 174.5H344V176.75H349.89L355 186.5L360.11 176.75H366V174.5H361.285L362.076 173H366V170.75H363.25L366 165.5ZM355 179.75L353.453 176.75H356.547L355 179.75Z" fill="url(#paint110_linear)"/>
<defs>
<linearGradient id="paint0_linear" x1="277.355" y1="118.42" x2="352.673" y2="197.118" gradientUnits="userSpaceOnUse">
<stop stop-color="#4F46E5"/>
<stop offset="0.9543" stop-color="#B4F7FD"/>
<stop offset="0.9994" stop-color="#B6FBFF"/>
</linearGradient>
<linearGradient id="paint1_linear" x1="310.233" y1="140.129" x2="382.015" y2="240.323" gradientUnits="userSpaceOnUse">
<stop stop-color="#4F46E5"/>
<stop offset="0.9543" stop-color="#B4F7FD"/>
<stop offset="0.9994" stop-color="#B6FBFF"/>
</linearGradient>
<linearGradient id="paint2_linear" x1="363.6" y1="191.755" x2="399.695" y2="218.087" gradientUnits="userSpaceOnUse">
<stop stop-color="#4F46E5"/>
<stop offset="0.9543" stop-color="#B4F7FD"/>
<stop offset="0.9994" stop-color="#B6FBFF"/>
</linearGradient>
<linearGradient id="paint3_linear" x1="401.439" y1="162.24" x2="451.025" y2="180.843" gradientUnits="userSpaceOnUse">
<stop stop-color="#4F46E5"/>
<stop offset="0.9543" stop-color="#B4F7FD"/>
<stop offset="0.9994" stop-color="#B6FBFF"/>
</linearGradient>
<linearGradient id="paint4_linear" x1="401.497" y1="147.591" x2="438.011" y2="174.235" gradientUnits="userSpaceOnUse">
<stop stop-color="#4F46E5"/>
<stop offset="0.9543" stop-color="#B4F7FD"/>
<stop offset="0.9994" stop-color="#B6FBFF"/>
</linearGradient>
<linearGradient id="paint5_linear" x1="409.507" y1="198.457" x2="409.615" y2="201.916" gradientUnits="userSpaceOnUse">
<stop stop-color="#4F46E5"/>
<stop offset="0.9543" stop-color="#B4F7FD"/>
<stop offset="0.9994" stop-color="#B6FBFF"/>
</linearGradient>
<linearGradient id="paint6_linear" x1="229.163" y1="89.8617" x2="301.326" y2="190.592" gradientUnits="userSpaceOnUse">
<stop stop-color="#4F46E5"/>
<stop offset="0.9543" stop-color="#B4F7FD"/>
<stop offset="0.9994" stop-color="#B6FBFF"/>
</linearGradient>
<linearGradient id="paint7_linear" x1="341.284" y1="152.409" x2="346.799" y2="159.076" gradientUnits="userSpaceOnUse">
<stop stop-color="#4F46E5"/>
<stop offset="0.9543" stop-color="#B4F7FD"/>
<stop offset="0.9994" stop-color="#B6FBFF"/>
</linearGradient>
<linearGradient id="paint8_linear" x1="417.224" y1="152.409" x2="422.739" y2="159.076" gradientUnits="userSpaceOnUse">
<stop stop-color="#4F46E5"/>
<stop offset="0.9543" stop-color="#B4F7FD"/>
<stop offset="0.9994" stop-color="#B6FBFF"/>
</linearGradient>
<linearGradient id="paint9_linear" x1="379.104" y1="219.199" x2="384.619" y2="225.866" gradientUnits="userSpaceOnUse">
<stop stop-color="#4F46E5"/>
<stop offset="0.9543" stop-color="#B4F7FD"/>
<stop offset="0.9994" stop-color="#B6FBFF"/>
</linearGradient>
<linearGradient id="paint10_linear" x1="340.934" y1="196.559" x2="346.449" y2="203.226" gradientUnits="userSpaceOnUse">
<stop stop-color="#4F46E5"/>
<stop offset="0.9543" stop-color="#B4F7FD"/>
<stop offset="0.9994" stop-color="#B6FBFF"/>
</linearGradient>
<linearGradient id="paint11_linear" x1="442.944" y1="196.559" x2="448.459" y2="203.226" gradientUnits="userSpaceOnUse">
<stop stop-color="#4F46E5"/>
<stop offset="0.9543" stop-color="#B4F7FD"/>
<stop offset="0.9994" stop-color="#B6FBFF"/>
</linearGradient>
<linearGradient id="paint12_linear" x1="417.224" y1="196.559" x2="422.739" y2="203.226" gradientUnits="userSpaceOnUse">
<stop stop-color="#4F46E5"/>
<stop offset="0.9543" stop-color="#B4F7FD"/>
<stop offset="0.9994" stop-color="#B6FBFF"/>
</linearGradient>
<linearGradient id="paint13_linear" x1="290.164" y1="152.409" x2="295.679" y2="159.076" gradientUnits="userSpaceOnUse">
<stop stop-color="#4F46E5"/>
<stop offset="0.9543" stop-color="#B4F7FD"/>
<stop offset="0.9994" stop-color="#B6FBFF"/>
</linearGradient>
<linearGradient id="paint14_linear" x1="303.164" y1="130.499" x2="308.679" y2="137.166" gradientUnits="userSpaceOnUse">
<stop stop-color="#4F46E5"/>
<stop offset="0.9543" stop-color="#B4F7FD"/>
<stop offset="0.9994" stop-color="#B6FBFF"/>
</linearGradient>
<linearGradient id="paint15_linear" x1="53.7568" y1="50.6791" x2="86.8259" y2="118.81" gradientUnits="userSpaceOnUse">
<stop stop-color="#4F46E5"/>
<stop offset="0.9543" stop-color="#B4F7FD"/>
<stop offset="0.9994" stop-color="#B6FBFF"/>
</linearGradient>
<linearGradient id="paint16_linear" x1="102.266" y1="106.78" x2="135.552" y2="175.031" gradientUnits="userSpaceOnUse">
<stop stop-color="#4F46E5"/>
<stop offset="0.9543" stop-color="#B4F7FD"/>
<stop offset="0.9994" stop-color="#B6FBFF"/>
</linearGradient>
<linearGradient id="paint17_linear" x1="-58.5275" y1="13.2077" x2="-12.1289" y2="179.883" gradientUnits="userSpaceOnUse">
<stop stop-color="#4F46E5"/>
<stop offset="0.9543" stop-color="#B4F7FD"/>
<stop offset="0.9994" stop-color="#B6FBFF"/>
</linearGradient>
<linearGradient id="paint18_linear" x1="191.662" y1="10.4989" x2="283.226" y2="118.79" gradientUnits="userSpaceOnUse">
<stop stop-color="#4F46E5"/>
<stop offset="0.9543" stop-color="#B4F7FD"/>
<stop offset="0.9994" stop-color="#B6FBFF"/>
</linearGradient>
<linearGradient id="paint19_linear" x1="6.23816" y1="28.9535" x2="6.28216" y2="31.306" gradientUnits="userSpaceOnUse">
<stop stop-color="#4F46E5"/>
<stop offset="0.9543" stop-color="#B4F7FD"/>
<stop offset="0.9994" stop-color="#B6FBFF"/>
</linearGradient>
<linearGradient id="paint20_linear" x1="51.7629" y1="78.028" x2="84.4702" y2="147.565" gradientUnits="userSpaceOnUse">
<stop stop-color="#4F46E5"/>
<stop offset="0.9543" stop-color="#B4F7FD"/>
<stop offset="0.9994" stop-color="#B6FBFF"/>
</linearGradient>
<linearGradient id="paint21_linear" x1="31.5063" y1="-17.4884" x2="127.008" y2="82.3379" gradientUnits="userSpaceOnUse">
<stop stop-color="#4F46E5"/>
<stop offset="0.9543" stop-color="#B4F7FD"/>
<stop offset="0.9994" stop-color="#B6FBFF"/>
</linearGradient>
<linearGradient id="paint22_linear" x1="92.8077" y1="131.98" x2="138.385" y2="164.908" gradientUnits="userSpaceOnUse">
<stop stop-color="#4F46E5"/>
<stop offset="0.9543" stop-color="#B4F7FD"/>
<stop offset="0.9994" stop-color="#B6FBFF"/>
</linearGradient>
<linearGradient id="paint23_linear" x1="73.4372" y1="10.2507" x2="164.351" y2="137.148" gradientUnits="userSpaceOnUse">
<stop stop-color="#4F46E5"/>
<stop offset="0.9543" stop-color="#B4F7FD"/>
<stop offset="0.9994" stop-color="#B6FBFF"/>
</linearGradient>
<linearGradient id="paint24_linear" x1="73.6318" y1="66.7016" x2="164.082" y2="193.237" gradientUnits="userSpaceOnUse">
<stop stop-color="#4F46E5"/>
<stop offset="0.9543" stop-color="#B4F7FD"/>
<stop offset="0.9994" stop-color="#B6FBFF"/>
</linearGradient>
<linearGradient id="paint25_linear" x1="25.0019" y1="38.3107" x2="115.978" y2="165.025" gradientUnits="userSpaceOnUse">
<stop stop-color="#4F46E5"/>
<stop offset="0.9543" stop-color="#B4F7FD"/>
<stop offset="0.9994" stop-color="#B6FBFF"/>
</linearGradient>
<linearGradient id="paint26_linear" x1="145.316" y1="38.3916" x2="240.818" y2="138.218" gradientUnits="userSpaceOnUse">
<stop stop-color="#4F46E5"/>
<stop offset="0.9543" stop-color="#B4F7FD"/>
<stop offset="0.9994" stop-color="#B6FBFF"/>
</linearGradient>
<linearGradient id="paint27_linear" x1="189.841" y1="19.7303" x2="235.411" y2="52.6323" gradientUnits="userSpaceOnUse">
<stop stop-color="#4F46E5"/>
<stop offset="0.9543" stop-color="#B4F7FD"/>
<stop offset="0.9994" stop-color="#B6FBFF"/>
</linearGradient>
<linearGradient id="paint28_linear" x1="191.497" y1="84.5265" x2="191.547" y2="87.8876" gradientUnits="userSpaceOnUse">
<stop stop-color="#4F46E5"/>
<stop offset="0.9543" stop-color="#B4F7FD"/>
<stop offset="0.9994" stop-color="#B6FBFF"/>
</linearGradient>
<linearGradient id="paint29_linear" x1="-17.8032" y1="84.5265" x2="-17.7472" y2="87.8874" gradientUnits="userSpaceOnUse">
<stop stop-color="#4F46E5"/>
<stop offset="0.9543" stop-color="#B4F7FD"/>
<stop offset="0.9994" stop-color="#B6FBFF"/>
</linearGradient>
<linearGradient id="paint30_linear" x1="97.0236" y1="110.742" x2="102.373" y2="117.208" gradientUnits="userSpaceOnUse">
<stop stop-color="#4F46E5"/>
<stop offset="0.9543" stop-color="#B4F7FD"/>
<stop offset="0.9994" stop-color="#B6FBFF"/>
</linearGradient>
<linearGradient id="paint31_linear" x1="64.6234" y1="110.742" x2="69.9732" y2="117.208" gradientUnits="userSpaceOnUse">
<stop stop-color="#4F46E5"/>
<stop offset="0.9543" stop-color="#B4F7FD"/>
<stop offset="0.9994" stop-color="#B6FBFF"/>
</linearGradient>
<linearGradient id="paint32_linear" x1="97.0236" y1="166.872" x2="102.373" y2="173.338" gradientUnits="userSpaceOnUse">
<stop stop-color="#4F46E5"/>
<stop offset="0.9543" stop-color="#B4F7FD"/>
<stop offset="0.9994" stop-color="#B6FBFF"/>
</linearGradient>
<linearGradient id="paint33_linear" x1="113.224" y1="82.6818" x2="118.573" y2="89.1483" gradientUnits="userSpaceOnUse">
<stop stop-color="#4F46E5"/>
<stop offset="0.9543" stop-color="#B4F7FD"/>
<stop offset="0.9994" stop-color="#B6FBFF"/>
</linearGradient>
<linearGradient id="paint34_linear" x1="113.224" y1="138.802" x2="118.573" y2="145.268" gradientUnits="userSpaceOnUse">
<stop stop-color="#4F46E5"/>
<stop offset="0.9543" stop-color="#B4F7FD"/>
<stop offset="0.9994" stop-color="#B6FBFF"/>
</linearGradient>
<linearGradient id="paint35_linear" x1="145.774" y1="82.6818" x2="151.123" y2="89.1483" gradientUnits="userSpaceOnUse">
<stop stop-color="#4F46E5"/>
<stop offset="0.9543" stop-color="#B4F7FD"/>
<stop offset="0.9994" stop-color="#B6FBFF"/>
</linearGradient>
<linearGradient id="paint36_linear" x1="145.774" y1="26.5518" x2="151.123" y2="33.0183" gradientUnits="userSpaceOnUse">
<stop stop-color="#4F46E5"/>
<stop offset="0.9543" stop-color="#B4F7FD"/>
<stop offset="0.9994" stop-color="#B6FBFF"/>
</linearGradient>
<linearGradient id="paint37_linear" x1="113.113" y1="26.5518" x2="118.463" y2="33.0183" gradientUnits="userSpaceOnUse">
<stop stop-color="#4F46E5"/>
<stop offset="0.9543" stop-color="#B4F7FD"/>
<stop offset="0.9994" stop-color="#B6FBFF"/>
</linearGradient>
<linearGradient id="paint38_linear" x1="210.254" y1="82.6818" x2="215.603" y2="89.1483" gradientUnits="userSpaceOnUse">
<stop stop-color="#4F46E5"/>
<stop offset="0.9543" stop-color="#B4F7FD"/>
<stop offset="0.9994" stop-color="#B6FBFF"/>
</linearGradient>
<linearGradient id="paint39_linear" x1="265.623" y1="82.6818" x2="270.973" y2="89.1483" gradientUnits="userSpaceOnUse">
<stop stop-color="#4F46E5"/>
<stop offset="0.9543" stop-color="#B4F7FD"/>
<stop offset="0.9994" stop-color="#B6FBFF"/>
</linearGradient>
<linearGradient id="paint40_linear" x1="48.4235" y1="82.6818" x2="53.7733" y2="89.1483" gradientUnits="userSpaceOnUse">
<stop stop-color="#4F46E5"/>
<stop offset="0.9543" stop-color="#B4F7FD"/>
<stop offset="0.9994" stop-color="#B6FBFF"/>
</linearGradient>
<linearGradient id="paint41_linear" x1="-1.26648" y1="82.6818" x2="4.08334" y2="89.1483" gradientUnits="userSpaceOnUse">
<stop stop-color="#4F46E5"/>
<stop offset="0.9543" stop-color="#B4F7FD"/>
<stop offset="0.9994" stop-color="#B6FBFF"/>
</linearGradient>
<linearGradient id="paint42_linear" x1="97.0236" y1="54.6118" x2="102.373" y2="61.0783" gradientUnits="userSpaceOnUse">
<stop stop-color="#4F46E5"/>
<stop offset="0.9543" stop-color="#B4F7FD"/>
<stop offset="0.9994" stop-color="#B6FBFF"/>
</linearGradient>
<linearGradient id="paint43_linear" x1="64.6234" y1="54.6118" x2="69.9733" y2="61.0783" gradientUnits="userSpaceOnUse">
<stop stop-color="#4F46E5"/>
<stop offset="0.9543" stop-color="#B4F7FD"/>
<stop offset="0.9994" stop-color="#B6FBFF"/>
</linearGradient>
<linearGradient id="paint44_linear" x1="194.004" y1="54.6118" x2="199.353" y2="61.0783" gradientUnits="userSpaceOnUse">
<stop stop-color="#4F46E5"/>
<stop offset="0.9543" stop-color="#B4F7FD"/>
<stop offset="0.9994" stop-color="#B6FBFF"/>
</linearGradient>
<linearGradient id="paint45_linear" x1="210.254" y1="26.5518" x2="215.603" y2="33.0183" gradientUnits="userSpaceOnUse">
<stop stop-color="#4F46E5"/>
<stop offset="0.9543" stop-color="#B4F7FD"/>
<stop offset="0.9994" stop-color="#B6FBFF"/>
</linearGradient>
<linearGradient id="paint46_linear" x1="161.594" y1="54.6118" x2="166.943" y2="61.0783" gradientUnits="userSpaceOnUse">
<stop stop-color="#4F46E5"/>
<stop offset="0.9543" stop-color="#B4F7FD"/>
<stop offset="0.9994" stop-color="#B6FBFF"/>
</linearGradient>
<linearGradient id="paint47_linear" x1="145.774" y1="138.802" x2="151.123" y2="145.268" gradientUnits="userSpaceOnUse">
<stop stop-color="#4F46E5"/>
<stop offset="0.9543" stop-color="#B4F7FD"/>
<stop offset="0.9994" stop-color="#B6FBFF"/>
</linearGradient>
<linearGradient id="paint48_linear" x1="161.594" y1="110.742" x2="166.943" y2="117.208" gradientUnits="userSpaceOnUse">
<stop stop-color="#4F46E5"/>
<stop offset="0.9543" stop-color="#B4F7FD"/>
<stop offset="0.9994" stop-color="#B6FBFF"/>
</linearGradient>
<linearGradient id="paint49_linear" x1="194.004" y1="110.742" x2="199.353" y2="117.208" gradientUnits="userSpaceOnUse">
<stop stop-color="#4F46E5"/>
<stop offset="0.9543" stop-color="#B4F7FD"/>
<stop offset="0.9994" stop-color="#B6FBFF"/>
</linearGradient>
<linearGradient id="paint50_linear" x1="48.4235" y1="26.5518" x2="53.7733" y2="33.0183" gradientUnits="userSpaceOnUse">
<stop stop-color="#4F46E5"/>
<stop offset="0.9543" stop-color="#B4F7FD"/>
<stop offset="0.9994" stop-color="#B6FBFF"/>
</linearGradient>
<linearGradient id="paint51_linear" x1="64.6234" y1="-1.0482" x2="69.9732" y2="5.41831" gradientUnits="userSpaceOnUse">
<stop stop-color="#4F46E5"/>
<stop offset="0.9543" stop-color="#B4F7FD"/>
<stop offset="0.9994" stop-color="#B6FBFF"/>
</linearGradient>
<linearGradient id="paint52_linear" x1="114.207" y1="36.9163" x2="149.96" y2="71.5828" gradientUnits="userSpaceOnUse">
<stop stop-color="#4F46E5"/>
<stop offset="0.9543" stop-color="#B4F7FD"/>
<stop offset="0.9994" stop-color="#B6FBFF"/>
</linearGradient>
<linearGradient id="paint53_linear" x1="118.597" y1="42.8859" x2="154.948" y2="78.7645" gradientUnits="userSpaceOnUse">
<stop stop-color="#4F46E5"/>
<stop offset="0.9543" stop-color="#B4F7FD"/>
<stop offset="0.9994" stop-color="#B6FBFF"/>
</linearGradient>
<linearGradient id="paint54_linear" x1="282.282" y1="149.373" x2="309.652" y2="204.279" gradientUnits="userSpaceOnUse">
<stop stop-color="#4F46E5"/>
<stop offset="0.9543" stop-color="#B4F7FD"/>
<stop offset="0.9994" stop-color="#B6FBFF"/>
</linearGradient>
<linearGradient id="paint55_linear" x1="317.92" y1="142.639" x2="373.193" y2="257.206" gradientUnits="userSpaceOnUse">
<stop stop-color="#4F46E5"/>
<stop offset="0.9543" stop-color="#B4F7FD"/>
<stop offset="0.9994" stop-color="#B6FBFF"/>
</linearGradient>
<linearGradient id="paint56_linear" x1="181.28" y1="0.37455" x2="226.18" y2="67.4161" gradientUnits="userSpaceOnUse">
<stop stop-color="#4F46E5"/>
<stop offset="0.9543" stop-color="#B4F7FD"/>
<stop offset="0.9994" stop-color="#B6FBFF"/>
</linearGradient>
<linearGradient id="paint57_linear" x1="191.469" y1="9.88834" x2="218.896" y2="54.0687" gradientUnits="userSpaceOnUse">
<stop stop-color="#4F46E5"/>
<stop offset="0.9543" stop-color="#B4F7FD"/>
<stop offset="0.9994" stop-color="#B6FBFF"/>
</linearGradient>
<linearGradient id="paint58_linear" x1="197.946" y1="20.0118" x2="235.607" y2="57.592" gradientUnits="userSpaceOnUse">
<stop stop-color="#4F46E5"/>
<stop offset="0.9543" stop-color="#B4F7FD"/>
<stop offset="0.9994" stop-color="#B6FBFF"/>
</linearGradient>
<linearGradient id="paint59_linear" x1="205.578" y1="20.9773" x2="217.71" y2="37.3381" gradientUnits="userSpaceOnUse">
<stop stop-color="#4F46E5"/>
<stop offset="0.9543" stop-color="#B4F7FD"/>
<stop offset="0.9994" stop-color="#B6FBFF"/>
</linearGradient>
<linearGradient id="paint60_linear" x1="112.411" y1="106.254" x2="120.103" y2="131.624" gradientUnits="userSpaceOnUse">
<stop stop-color="#4F46E5"/>
<stop offset="0.9543" stop-color="#B4F7FD"/>
<stop offset="0.9994" stop-color="#B6FBFF"/>
</linearGradient>
<linearGradient id="paint61_linear" x1="103.644" y1="97.2801" x2="112.026" y2="129.383" gradientUnits="userSpaceOnUse">
<stop stop-color="#4F46E5"/>
<stop offset="0.9543" stop-color="#B4F7FD"/>
<stop offset="0.9994" stop-color="#B6FBFF"/>
</linearGradient>
<linearGradient id="paint62_linear" x1="124.713" y1="114.446" x2="139.739" y2="132.608" gradientUnits="userSpaceOnUse">
<stop stop-color="#4F46E5"/>
<stop offset="0.9543" stop-color="#B4F7FD"/>
<stop offset="0.9994" stop-color="#B6FBFF"/>
</linearGradient>
<linearGradient id="paint63_linear" x1="57.4943" y1="5.89934" x2="99.7083" y2="63.5805" gradientUnits="userSpaceOnUse">
<stop stop-color="#4F46E5"/>
<stop offset="0.9543" stop-color="#B4F7FD"/>
<stop offset="0.9994" stop-color="#B6FBFF"/>
</linearGradient>
<linearGradient id="paint64_linear" x1="381.112" y1="173.947" x2="428.48" y2="204.386" gradientUnits="userSpaceOnUse">
<stop stop-color="#4F46E5"/>
<stop offset="0.9543" stop-color="#B4F7FD"/>
<stop offset="0.9994" stop-color="#B6FBFF"/>
</linearGradient>
<linearGradient id="paint65_linear" x1="258.4" y1="124.191" x2="267.81" y2="128.325" gradientUnits="userSpaceOnUse">
<stop stop-color="#4F46E5"/>
<stop offset="0.9543" stop-color="#B4F7FD"/>
<stop offset="0.9994" stop-color="#B6FBFF"/>
</linearGradient>
<linearGradient id="paint66_linear" x1="287.765" y1="127.857" x2="296.695" y2="132.897" gradientUnits="userSpaceOnUse">
<stop stop-color="#4F46E5"/>
<stop offset="0.9543" stop-color="#B4F7FD"/>
<stop offset="0.9994" stop-color="#B6FBFF"/>
</linearGradient>
<linearGradient id="paint67_linear" x1="276.771" y1="107.179" x2="303.07" y2="129.281" gradientUnits="userSpaceOnUse">
<stop stop-color="#4F46E5"/>
<stop offset="0.9543" stop-color="#B4F7FD"/>
<stop offset="0.9994" stop-color="#B6FBFF"/>
</linearGradient>
<linearGradient id="paint68_linear" x1="253.992" y1="107.211" x2="271.919" y2="136.575" gradientUnits="userSpaceOnUse">
<stop stop-color="#4F46E5"/>
<stop offset="0.9543" stop-color="#B4F7FD"/>
<stop offset="0.9994" stop-color="#B6FBFF"/>
</linearGradient>
<linearGradient id="paint69_linear" x1="259.567" y1="111.415" x2="281.131" y2="125.996" gradientUnits="userSpaceOnUse">
<stop stop-color="#4F46E5"/>
<stop offset="0.9543" stop-color="#B4F7FD"/>
<stop offset="0.9994" stop-color="#B6FBFF"/>
</linearGradient>
<linearGradient id="paint70_linear" x1="268.934" y1="112.864" x2="272.92" y2="125.602" gradientUnits="userSpaceOnUse">
<stop stop-color="#4F46E5"/>
<stop offset="0.9543" stop-color="#B4F7FD"/>
<stop offset="0.9994" stop-color="#B6FBFF"/>
</linearGradient>
<linearGradient id="paint71_linear" x1="280.899" y1="112.917" x2="302.589" y2="120.131" gradientUnits="userSpaceOnUse">
<stop stop-color="#4F46E5"/>
<stop offset="0.9543" stop-color="#B4F7FD"/>
<stop offset="0.9994" stop-color="#B6FBFF"/>
</linearGradient>
<linearGradient id="paint72_linear" x1="274.324" y1="124.943" x2="281.789" y2="128.25" gradientUnits="userSpaceOnUse">
<stop stop-color="#4F46E5"/>
<stop offset="0.9543" stop-color="#B4F7FD"/>
<stop offset="0.9994" stop-color="#B6FBFF"/>
</linearGradient>
<linearGradient id="paint73_linear" x1="272.691" y1="130.931" x2="284.494" y2="135.992" gradientUnits="userSpaceOnUse">
<stop stop-color="#4F46E5"/>
<stop offset="0.9543" stop-color="#B4F7FD"/>
<stop offset="0.9994" stop-color="#B6FBFF"/>
</linearGradient>
<linearGradient id="paint74_linear" x1="262.072" y1="129.214" x2="269.266" y2="131.886" gradientUnits="userSpaceOnUse">
<stop stop-color="#4F46E5"/>
<stop offset="0.9543" stop-color="#B4F7FD"/>
<stop offset="0.9994" stop-color="#B6FBFF"/>
</linearGradient>
<linearGradient id="paint75_linear" x1="278.159" y1="115.859" x2="293.098" y2="126.79" gradientUnits="userSpaceOnUse">
<stop stop-color="#4F46E5"/>
<stop offset="0.9543" stop-color="#B4F7FD"/>
<stop offset="0.9994" stop-color="#B6FBFF"/>
</linearGradient>
<linearGradient id="paint76_linear" x1="260.941" y1="113.681" x2="278.707" y2="137.061" gradientUnits="userSpaceOnUse">
<stop stop-color="#4F46E5"/>
<stop offset="0.9543" stop-color="#B4F7FD"/>
<stop offset="0.9994" stop-color="#B6FBFF"/>
</linearGradient>
<linearGradient id="paint77_linear" x1="264.381" y1="126.226" x2="273.885" y2="128.942" gradientUnits="userSpaceOnUse">
<stop stop-color="#4F46E5"/>
<stop offset="0.9543" stop-color="#B4F7FD"/>
<stop offset="0.9994" stop-color="#B6FBFF"/>
</linearGradient>
<linearGradient id="paint78_linear" x1="273.616" y1="125.813" x2="295.861" y2="143.416" gradientUnits="userSpaceOnUse">
<stop stop-color="#4F46E5"/>
<stop offset="0.9543" stop-color="#B4F7FD"/>
<stop offset="0.9994" stop-color="#B6FBFF"/>
</linearGradient>
<linearGradient id="paint79_linear" x1="265.069" y1="118.812" x2="270.324" y2="133.429" gradientUnits="userSpaceOnUse">
<stop stop-color="#4F46E5"/>
<stop offset="0.9543" stop-color="#B4F7FD"/>
<stop offset="0.9994" stop-color="#B6FBFF"/>
</linearGradient>
<linearGradient id="paint80_linear" x1="267.889" y1="124.712" x2="276.756" y2="127.914" gradientUnits="userSpaceOnUse">
<stop stop-color="#4F46E5"/>
<stop offset="0.9543" stop-color="#B4F7FD"/>
<stop offset="0.9994" stop-color="#B6FBFF"/>
</linearGradient>
<linearGradient id="paint81_linear" x1="267.254" y1="135.287" x2="275.115" y2="140.142" gradientUnits="userSpaceOnUse">
<stop stop-color="#4F46E5"/>
<stop offset="0.9543" stop-color="#B4F7FD"/>
<stop offset="0.9994" stop-color="#B6FBFF"/>
</linearGradient>
<linearGradient id="paint82_linear" x1="280.264" y1="122.736" x2="288.47" y2="125.977" gradientUnits="userSpaceOnUse">
<stop stop-color="#4F46E5"/>
<stop offset="0.9543" stop-color="#B4F7FD"/>
<stop offset="0.9994" stop-color="#B6FBFF"/>
</linearGradient>
<linearGradient id="paint83_linear" x1="270.044" y1="137.728" x2="276.697" y2="142.576" gradientUnits="userSpaceOnUse">
<stop stop-color="#4F46E5"/>
<stop offset="0.9543" stop-color="#B4F7FD"/>
<stop offset="0.9994" stop-color="#B6FBFF"/>
</linearGradient>
<linearGradient id="paint84_linear" x1="271.731" y1="128.666" x2="278.395" y2="130.663" gradientUnits="userSpaceOnUse">
<stop stop-color="#4F46E5"/>
<stop offset="0.9543" stop-color="#B4F7FD"/>
<stop offset="0.9994" stop-color="#B6FBFF"/>
</linearGradient>
<linearGradient id="paint85_linear" x1="268.234" y1="120.213" x2="284.596" y2="138.434" gradientUnits="userSpaceOnUse">
<stop stop-color="#4F46E5"/>
<stop offset="0.9543" stop-color="#B4F7FD"/>
<stop offset="0.9994" stop-color="#B6FBFF"/>
</linearGradient>
<linearGradient id="paint86_linear" x1="276.687" y1="132.367" x2="285.222" y2="137.315" gradientUnits="userSpaceOnUse">
<stop stop-color="#4F46E5"/>
<stop offset="0.9543" stop-color="#B4F7FD"/>
<stop offset="0.9994" stop-color="#B6FBFF"/>
</linearGradient>
<linearGradient id="paint87_linear" x1="412.772" y1="113.294" x2="455.57" y2="159.123" gradientUnits="userSpaceOnUse">
<stop stop-color="#4F46E5"/>
<stop offset="0.9543" stop-color="#B4F7FD"/>
<stop offset="0.9994" stop-color="#B6FBFF"/>
</linearGradient>
<linearGradient id="paint88_linear" x1="119.332" y1="118.815" x2="238.021" y2="262.277" gradientUnits="userSpaceOnUse">
<stop stop-color="#4F46E5"/>
<stop offset="0.9543" stop-color="#B4F7FD"/>
<stop offset="0.9994" stop-color="#B6FBFF"/>
</linearGradient>
<linearGradient id="paint89_linear" x1="105.848" y1="106.364" x2="249.498" y2="280.02" gradientUnits="userSpaceOnUse">
<stop stop-color="#4F46E5"/>
<stop offset="0.9543" stop-color="#B4F7FD"/>
<stop offset="0.9994" stop-color="#B6FBFF"/>
</linearGradient>
<linearGradient id="paint90_linear" x1="210.202" y1="118.695" x2="275.794" y2="137.852" gradientUnits="userSpaceOnUse">
<stop stop-color="#4F46E5"/>
<stop offset="0.9543" stop-color="#B4F7FD"/>
<stop offset="0.9994" stop-color="#B6FBFF"/>
</linearGradient>
<linearGradient id="paint91_linear" x1="226.08" y1="173.514" x2="226.108" y2="174.926" gradientUnits="userSpaceOnUse">
<stop stop-color="#4F46E5"/>
<stop offset="0.9543" stop-color="#B4F7FD"/>
<stop offset="0.9994" stop-color="#B6FBFF"/>
</linearGradient>
<linearGradient id="paint92_linear" x1="210.123" y1="187.775" x2="210.143" y2="189.489" gradientUnits="userSpaceOnUse">
<stop stop-color="#4F46E5"/>
<stop offset="0.9543" stop-color="#B4F7FD"/>
<stop offset="0.9994" stop-color="#B6FBFF"/>
</linearGradient>
<linearGradient id="paint93_linear" x1="184.818" y1="200.463" x2="184.837" y2="202.614" gradientUnits="userSpaceOnUse">
<stop stop-color="#4F46E5"/>
<stop offset="0.9543" stop-color="#B4F7FD"/>
<stop offset="0.9994" stop-color="#B6FBFF"/>
</linearGradient>
<linearGradient id="paint94_linear" x1="247.69" y1="170.825" x2="254.196" y2="178.689" gradientUnits="userSpaceOnUse">
<stop stop-color="#4F46E5"/>
<stop offset="0.9543" stop-color="#B4F7FD"/>
<stop offset="0.9994" stop-color="#B6FBFF"/>
</linearGradient>
<linearGradient id="paint95_linear" x1="257.2" y1="184.785" x2="263.705" y2="192.649" gradientUnits="userSpaceOnUse">
<stop stop-color="#4F46E5"/>
<stop offset="0.9543" stop-color="#B4F7FD"/>
<stop offset="0.9994" stop-color="#B6FBFF"/>
</linearGradient>
<linearGradient id="paint96_linear" x1="267.13" y1="197.895" x2="273.636" y2="205.759" gradientUnits="userSpaceOnUse">
<stop stop-color="#4F46E5"/>
<stop offset="0.9543" stop-color="#B4F7FD"/>
<stop offset="0.9994" stop-color="#B6FBFF"/>
</linearGradient>
<linearGradient id="paint97_linear" x1="328.986" y1="38.3342" x2="379.328" y2="86.8197" gradientUnits="userSpaceOnUse">
<stop stop-color="#4F46E5"/>
<stop offset="0.9543" stop-color="#B4F7FD"/>
<stop offset="0.9994" stop-color="#B6FBFF"/>
</linearGradient>
<linearGradient id="paint98_linear" x1="302.805" y1="13.6418" x2="410.999" y2="121.836" gradientUnits="userSpaceOnUse">
<stop stop-color="#4F46E5"/>
<stop offset="0.9543" stop-color="#B4F7FD"/>
<stop offset="0.9994" stop-color="#B6FBFF"/>
</linearGradient>
<linearGradient id="paint99_linear" x1="386.522" y1="96.1094" x2="458.305" y2="196.303" gradientUnits="userSpaceOnUse">
<stop stop-color="#4F46E5"/>
<stop offset="0.9543" stop-color="#B4F7FD"/>
<stop offset="0.9994" stop-color="#B6FBFF"/>
</linearGradient>
<linearGradient id="paint100_linear" x1="36.9612" y1="104.822" x2="107.005" y2="202.606" gradientUnits="userSpaceOnUse">
<stop stop-color="#4F46E5"/>
<stop offset="0.9543" stop-color="#B4F7FD"/>
<stop offset="0.9994" stop-color="#B6FBFF"/>
</linearGradient>
<linearGradient id="paint101_linear" x1="55.0411" y1="122.422" x2="92.0779" y2="178.461" gradientUnits="userSpaceOnUse">
<stop stop-color="#4F46E5"/>
<stop offset="0.9543" stop-color="#B4F7FD"/>
<stop offset="0.9994" stop-color="#B6FBFF"/>
</linearGradient>
<linearGradient id="paint102_linear" x1="312.077" y1="94.4947" x2="373.679" y2="219.976" gradientUnits="userSpaceOnUse">
<stop stop-color="#4F46E5"/>
<stop offset="0.9543" stop-color="#B4F7FD"/>
<stop offset="0.9994" stop-color="#B6FBFF"/>
</linearGradient>
<linearGradient id="paint103_linear" x1="122.199" y1="-17.4511" x2="212.827" y2="109.043" gradientUnits="userSpaceOnUse">
<stop stop-color="#4F46E5"/>
<stop offset="0.9543" stop-color="#B4F7FD"/>
<stop offset="0.9994" stop-color="#B6FBFF"/>
</linearGradient>
<linearGradient id="paint104_linear" x1="25.059" y1="150.869" x2="115.687" y2="277.363" gradientUnits="userSpaceOnUse">
<stop stop-color="#4F46E5"/>
<stop offset="0.9543" stop-color="#B4F7FD"/>
<stop offset="0.9994" stop-color="#B6FBFF"/>
</linearGradient>
<linearGradient id="paint105_linear" x1="219.289" y1="-17.2311" x2="309.917" y2="109.263" gradientUnits="userSpaceOnUse">
<stop stop-color="#4F46E5"/>
<stop offset="0.9543" stop-color="#B4F7FD"/>
<stop offset="0.9994" stop-color="#B6FBFF"/>
</linearGradient>
<linearGradient id="paint106_linear" x1="219.289" y1="158.459" x2="309.917" y2="284.953" gradientUnits="userSpaceOnUse">
<stop stop-color="#4F46E5"/>
<stop offset="0.9543" stop-color="#B4F7FD"/>
<stop offset="0.9994" stop-color="#B6FBFF"/>
</linearGradient>
<linearGradient id="paint107_linear" x1="288.649" y1="191.769" x2="379.277" y2="318.263" gradientUnits="userSpaceOnUse">
<stop stop-color="#4F46E5"/>
<stop offset="0.9543" stop-color="#B4F7FD"/>
<stop offset="0.9994" stop-color="#B6FBFF"/>
</linearGradient>
<linearGradient id="paint108_linear" x1="145.026" y1="140.898" x2="215.408" y2="225.97" gradientUnits="userSpaceOnUse">
<stop stop-color="#4F46E5"/>
<stop offset="0.9543" stop-color="#B4F7FD"/>
<stop offset="0.9994" stop-color="#B6FBFF"/>
</linearGradient>
<linearGradient id="paint109_linear" x1="162.38" y1="64.2356" x2="202.67" y2="106.645" gradientUnits="userSpaceOnUse">
<stop stop-color="#4F46E5"/>
<stop offset="0.9543" stop-color="#B4F7FD"/>
<stop offset="0.9994" stop-color="#B6FBFF"/>
</linearGradient>
<linearGradient id="paint110_linear" x1="335.4" y1="158.706" x2="369.739" y2="202.188" gradientUnits="userSpaceOnUse">
<stop stop-color="#4F46E5"/>
<stop offset="0.9543" stop-color="#B4F7FD"/>
<stop offset="0.9994" stop-color="#B6FBFF"/>
</linearGradient>
</defs>
</svg>
