<svg width="512" height="512" viewBox="0 0 512 512" fill="none" xmlns="http://www.w3.org/2000/svg">
<path d="M252.352 246.633C286.234 246.633 315.57 234.48 339.547 210.504C363.516 186.531 375.672 157.199 375.672 123.312C375.672 89.4375 363.52 60.1016 339.543 36.1211C315.566 12.1523 286.23 0 252.352 0C218.465 0 189.133 12.1523 165.16 36.125C141.188 60.0977 129.031 89.4336 129.031 123.312C129.031 157.199 141.188 186.535 165.16 210.508C189.141 234.477 218.477 246.633 252.352 246.633V246.633ZM186.379 57.3398C204.773 38.9453 226.352 30.0039 252.352 30.0039C278.348 30.0039 299.93 38.9453 318.328 57.3398C336.723 75.7383 345.668 97.3203 345.668 123.312C345.668 149.312 336.723 170.891 318.328 189.289C299.93 207.688 278.348 216.629 252.352 216.629C226.359 216.629 204.781 207.684 186.379 189.289C167.98 170.895 159.035 149.312 159.035 123.312C159.035 97.3203 167.98 75.7383 186.379 57.3398Z" fill="#4F46E5"/>
<path d="M468.129 393.703C467.438 383.727 466.039 372.844 463.98 361.352C461.902 349.773 459.227 338.828 456.023 328.824C452.711 318.484 448.215 308.273 442.648 298.488C436.879 288.332 430.098 279.488 422.488 272.211C414.531 264.598 404.789 258.477 393.523 254.012C382.297 249.57 369.855 247.32 356.547 247.32C351.32 247.32 346.266 249.465 336.504 255.82C330.496 259.738 323.469 264.27 315.625 269.281C308.918 273.555 299.832 277.559 288.609 281.184C277.66 284.727 266.543 286.523 255.566 286.523C244.598 286.523 233.48 284.727 222.523 281.184C211.312 277.562 202.223 273.559 195.527 269.285C187.758 264.32 180.727 259.789 174.629 255.816C164.875 249.461 159.82 247.316 154.594 247.316C141.281 247.316 128.844 249.57 117.621 254.016C106.363 258.473 96.6172 264.594 88.6523 272.215C81.043 279.496 74.2617 288.336 68.4961 298.488C62.9375 308.273 58.4375 318.48 55.125 328.828C51.9258 338.832 49.25 349.773 47.1719 361.352C45.1094 372.828 43.7148 383.715 43.0234 393.715C42.3438 403.492 42 413.668 42 423.949C42 450.676 50.4961 472.312 67.25 488.27C83.7969 504.016 105.688 512 132.316 512H378.848C405.469 512 427.359 504.016 443.91 488.27C460.668 472.324 469.164 450.68 469.164 423.945C469.16 413.629 468.813 403.453 468.129 393.703V393.703ZM423.223 466.531C412.289 476.938 397.773 481.996 378.844 481.996H132.316C113.383 481.996 98.8672 476.938 87.9375 466.535C77.2148 456.328 72.0039 442.395 72.0039 423.949C72.0039 414.355 72.3203 404.883 72.9531 395.789C73.5703 386.867 74.832 377.066 76.7031 366.652C78.5508 356.367 80.9023 346.715 83.6992 337.977C86.3828 329.598 90.043 321.301 94.582 313.309C98.9141 305.691 103.898 299.156 109.398 293.891C114.543 288.965 121.027 284.934 128.668 281.91C135.734 279.113 143.676 277.582 152.297 277.352C153.348 277.91 155.219 278.977 158.25 280.953C164.418 284.973 171.527 289.559 179.387 294.578C188.246 300.227 199.66 305.328 213.297 309.73C227.238 314.238 241.457 316.527 255.57 316.527C269.684 316.527 283.906 314.238 297.84 309.734C311.488 305.324 322.898 300.227 331.77 294.57C339.812 289.43 346.723 284.977 352.891 280.953C355.922 278.98 357.793 277.91 358.844 277.352C367.469 277.582 375.41 279.113 382.48 281.91C390.117 284.934 396.602 288.969 401.746 293.891C407.246 299.152 412.23 305.688 416.562 313.312C421.105 321.301 424.77 329.602 427.449 337.973C430.25 346.723 432.605 356.371 434.449 366.648C436.316 377.082 437.582 386.887 438.199 395.793V395.801C438.836 404.859 439.156 414.328 439.16 423.949C439.156 442.398 433.945 456.328 423.223 466.531V466.531Z" fill="#4F46E5"/>
</svg>
