<svg width="50" height="17" viewBox="0 0 50 17" fill="none" xmlns="http://www.w3.org/2000/svg">
<rect width="50" height="16.6667" fill="#4F46E5"/>
<path d="M17.8226 11.8735H19.2366V9.7053H20.4252C21.9632 9.7053 22.8579 8.78772 22.8579 7.45217C22.8579 6.12314 21.9795 5.18597 20.4611 5.18597H17.8226V11.8735ZM19.2366 8.5722V6.34193H20.1901C21.0064 6.34193 21.4015 6.78602 21.4015 7.45217C21.4015 8.11504 21.0064 8.5722 20.1966 8.5722H19.2366ZM25.9356 11.9715C27.4572 11.9715 28.4042 10.9298 28.4042 9.38529C28.4042 7.83095 27.4572 6.79255 25.9356 6.79255C24.4139 6.79255 23.4669 7.83095 23.4669 9.38529C23.4669 10.9298 24.4139 11.9715 25.9356 11.9715ZM25.9421 10.8939C25.24 10.8939 24.8808 10.2506 24.8808 9.37549C24.8808 8.50036 25.24 7.85381 25.9421 7.85381C26.6311 7.85381 26.9903 8.50036 26.9903 9.37549C26.9903 10.2506 26.6311 10.8939 25.9421 10.8939ZM29.3087 11.8735H30.6998V9.03589C30.6998 8.41873 31.1504 7.99422 31.7643 7.99422C31.957 7.99422 32.2215 8.02688 32.3521 8.06933V6.835C32.228 6.80561 32.0549 6.78602 31.9145 6.78602C31.3529 6.78602 30.8925 7.11256 30.7096 7.73299H30.6573V6.85786H29.3087V11.8735ZM35.9906 6.85786H35.0469V5.65619H33.6558V6.85786H32.9701V7.90279H33.6558V10.5151C33.6493 11.498 34.3187 11.9846 35.3277 11.9421C35.6869 11.929 35.9416 11.8572 36.082 11.8115L35.8632 10.7764C35.7947 10.7894 35.6477 10.8221 35.5171 10.8221C35.2395 10.8221 35.0469 10.7176 35.0469 10.3323V7.90279H35.9906V6.85786ZM39.1286 11.9715C40.3695 11.9715 41.2054 11.3674 41.4014 10.4368L40.1148 10.3519C39.9744 10.7339 39.6152 10.9331 39.1515 10.9331C38.456 10.9331 38.0151 10.4727 38.0151 9.72489V9.72163H41.4308V9.33957C41.4308 7.63503 40.3989 6.79255 39.0731 6.79255C37.5972 6.79255 36.6404 7.84075 36.6404 9.38856C36.6404 10.9788 37.5841 11.9715 39.1286 11.9715ZM38.0151 8.85956C38.0445 8.28811 38.4788 7.83095 39.096 7.83095C39.7001 7.83095 40.1181 8.26199 40.1213 8.85956H38.0151ZM43.4202 6.85786H41.9834L43.4202 9.3657L41.9312 11.8735H43.368L44.3411 10.1396L45.3305 11.8735H46.7509L45.2586 9.3657L46.7117 6.85786H45.2848L44.3411 8.61139L43.4202 6.85786Z" fill="white"/>
<rect x="1.72412" y="2.29883" width="13.2184" height="12.069" fill="white"/>
<g clip-path="url(#clip0)">
<path d="M8.04597 9.96169C8.46742 9.96169 8.81225 9.61686 8.81225 9.19541C8.81225 8.77395 8.46742 8.42912 8.04597 8.42912C7.62451 8.42912 7.27969 8.77395 7.27969 9.19541C7.27969 9.61686 7.62451 9.96169 8.04597 9.96169ZM10.3448 6.51341H9.96168V5.74713C9.96168 4.68966 9.10344 3.83142 8.04597 3.83142C6.9885 3.83142 6.13026 4.68966 6.13026 5.74713H6.85823C6.85823 5.09196 7.3908 4.55939 8.04597 4.55939C8.70114 4.55939 9.23371 5.09196 9.23371 5.74713V6.51341H5.74712C5.32566 6.51341 4.98083 6.85824 4.98083 7.2797V11.1111C4.98083 11.5326 5.32566 11.8774 5.74712 11.8774H10.3448C10.7663 11.8774 11.1111 11.5326 11.1111 11.1111V7.2797C11.1111 6.85824 10.7663 6.51341 10.3448 6.51341ZM10.3448 11.1111H5.74712V7.2797H10.3448V11.1111Z" fill="#4F46E5"/>
</g>
<defs>
<clipPath id="clip0">
<rect width="9.1954" height="9.1954" fill="white" transform="translate(3.4483 3.44824)"/>
</clipPath>
</defs>
</svg>
