<svg width="143" height="38" viewBox="0 0 143 38" fill="none" xmlns="http://www.w3.org/2000/svg">
<g clip-path="url(#clip0)">
<path d="M27.4986 13.5776C27.0254 13.0861 26.4578 12.6976 25.8307 12.4362C25.2035 12.1747 24.5301 12.0458 23.8518 12.0574H10.8558V7.19896C10.8468 6.70933 10.9344 6.22281 11.1135 5.76781C11.2925 5.31281 11.5595 4.89847 11.8987 4.549C12.238 4.19953 12.6427 3.92193 13.0892 3.73243C13.5357 3.54293 14.0151 3.44533 14.4994 3.44533C14.9836 3.44533 15.463 3.54293 15.9096 3.73243C16.3561 3.92193 16.7608 4.19953 17.1 4.549C17.4393 4.89847 17.7062 5.31281 17.8853 5.76781C18.0644 6.22281 18.152 6.70933 18.143 7.19896V9.80363H21.6169V7.19896C21.6294 6.24571 21.4546 5.29945 21.1025 4.4151C20.7504 3.53075 20.2281 2.72593 19.566 2.04736C18.9038 1.3688 18.1149 0.830007 17.2452 0.462263C16.3754 0.0945197 15.4421 -0.0948486 14.4994 -0.0948486C13.5567 -0.0948486 12.6233 0.0945197 11.7536 0.462263C10.8838 0.830007 10.095 1.3688 9.43282 2.04736C8.77066 2.72593 8.24838 3.53075 7.8963 4.4151C7.54422 5.29945 7.36936 6.24571 7.38187 7.19896V15.616H23.8518C24.0701 15.613 24.2867 15.6538 24.4893 15.7359C24.6918 15.8181 24.8763 15.9401 25.0319 16.0949C25.1907 16.2438 25.3166 16.4249 25.4014 16.6264C25.4863 16.8279 25.5281 17.0452 25.5242 17.2642V31.7989C25.5219 32.2467 25.345 32.6756 25.0319 32.9922C24.7187 33.3089 24.2947 33.4878 23.8518 33.4902H5.14695C4.70431 33.4872 4.28064 33.308 3.96763 32.9915C3.65463 32.675 3.47748 32.2465 3.47453 31.7989V17.2642C3.46995 17.0444 3.51145 16.8261 3.59631 16.6237C3.68117 16.4213 3.80745 16.2393 3.96686 16.0898C4.1225 15.9351 4.30693 15.8131 4.50949 15.7309C4.71205 15.6487 4.92871 15.6079 5.14695 15.6109V12.0599C4.4687 12.0483 3.79527 12.1772 3.16812 12.4387C2.54097 12.7001 1.97335 13.0886 1.50019 13.5801C1.01413 14.0584 0.630019 14.6322 0.371484 15.2662C0.112948 15.9002 -0.014535 16.581 -0.00311918 17.2667V31.7989C-0.0152033 32.4847 0.111975 33.1657 0.370549 33.7998C0.629124 34.4339 1.0136 35.0076 1.50019 35.4855C1.97289 35.9776 2.54043 36.3665 3.16769 36.628C3.79495 36.8895 4.4686 37.018 5.14695 37.0057H23.8518C24.5287 37.0086 25.1994 36.8758 25.8253 36.6152C26.4512 36.3545 27.0199 35.971 27.4984 35.487C27.977 35.0029 28.356 34.4277 28.6137 33.7947C28.8713 33.1617 29.0024 32.4834 28.9994 31.7989V17.2642C29.0111 16.5787 28.884 15.898 28.6259 15.264C28.3678 14.63 27.9842 14.0561 27.4986 13.5776Z" fill="white"/>
<path d="M16.7366 30.0488L15.5339 27.1667C15.8683 26.984 16.1483 26.7141 16.3448 26.3851C16.5413 26.0561 16.6472 25.6799 16.6514 25.2955C16.6378 24.7272 16.405 24.1868 16.0028 23.7897C15.6005 23.3926 15.0607 23.1703 14.4985 23.1703C13.9364 23.1703 13.3965 23.3926 12.9942 23.7897C12.592 24.1868 12.3592 24.7272 12.3457 25.2955C12.3498 25.6799 12.4557 26.0561 12.6522 26.3851C12.8487 26.7141 13.1287 26.984 13.4631 27.1667L12.2617 30.0488H16.7366Z" fill="white"/>
</g>
<path d="M48.7122 19.4167H52.1392C52.0357 15.6446 48.7007 12.9076 43.9166 12.9076C39.1901 12.9076 35.5675 15.6101 35.5675 19.6697C35.5675 22.9472 37.9136 24.8677 41.6971 25.8912L44.4801 26.6503C46.9987 27.3173 48.9422 28.1453 48.9422 30.2383C48.9422 32.5383 46.7457 34.0563 43.7211 34.0563C40.9841 34.0563 38.7071 32.8373 38.5001 30.2728H34.935C35.165 34.5393 38.4656 37.1729 43.7441 37.1729C49.2757 37.1729 52.4612 34.2633 52.4612 30.2728C52.4612 26.0292 48.6777 24.3847 45.6876 23.6487L43.3876 23.0507C41.5476 22.5792 39.0981 21.7167 39.1096 19.4627C39.1096 17.4617 40.9381 15.9781 43.8361 15.9781C46.5386 15.9781 48.4592 17.2432 48.7122 19.4167ZM61.5722 37.1729C64.4932 37.1729 66.1377 35.6893 66.7932 34.3668H66.9312V36.7819H70.2893V25.0517C70.2893 19.9112 66.2412 18.8877 63.4352 18.8877C60.2382 18.8877 57.2941 20.1757 56.1441 23.3957L59.3757 24.1317C59.8817 22.8782 61.1697 21.6707 63.4812 21.6707C65.7007 21.6707 66.8392 22.8322 66.8392 24.8332V24.9137C66.8392 26.1672 65.5512 26.1442 62.3772 26.5123C59.0307 26.9033 55.6036 27.7773 55.6036 31.7908C55.6036 35.2638 58.2141 37.1729 61.5722 37.1729ZM62.3197 34.4128C60.3762 34.4128 58.9732 33.5388 58.9732 31.8368C58.9732 29.9968 60.6062 29.3413 62.5957 29.0768C63.7112 28.9273 66.3562 28.6283 66.8507 28.1338V30.4108C66.8507 32.5038 65.1832 34.4128 62.3197 34.4128ZM83.2758 19.1177H79.4692V17.5307C79.4692 15.9666 80.1133 15.1156 81.7923 15.1156C82.5053 15.1156 83.0113 15.2766 83.3333 15.3801L84.1383 12.5971C83.6553 12.4131 82.6548 12.1256 81.2633 12.1256C78.4687 12.1256 76.0192 13.7586 76.0192 17.0707V19.1177H73.2937V21.8777H76.0192V36.7819H79.4692V21.8777H83.2758V19.1177ZM86.8236 36.7819H90.2621V19.1177H86.8236V36.7819ZM88.5601 16.3921C89.7446 16.3921 90.7336 15.4721 90.7336 14.3451C90.7336 13.2181 89.7446 12.2866 88.5601 12.2866C87.3641 12.2866 86.3866 13.2181 86.3866 14.3451C86.3866 15.4721 87.3641 16.3921 88.5601 16.3921ZM102.501 37.1384C106.354 37.1384 109.079 35.2408 109.861 32.3658L106.607 31.7793C105.986 33.4468 104.491 34.2978 102.536 34.2978C99.5916 34.2978 97.6136 32.3888 97.5216 28.9848H110.08V27.7658C110.08 21.3832 106.262 18.8877 102.26 18.8877C97.3376 18.8877 94.0945 22.6367 94.0945 28.0648C94.0945 33.5503 97.2916 37.1384 102.501 37.1384ZM97.5331 26.4088C97.6711 23.9017 99.4881 21.7282 102.283 21.7282C104.951 21.7282 106.699 23.7062 106.71 26.4088H97.5331ZM117.333 26.2937C117.333 23.4762 119.058 21.8662 121.45 21.8662C123.785 21.8662 125.199 23.3957 125.199 25.9602V36.7819H128.638V25.5462C128.638 21.1762 126.234 18.8877 122.623 18.8877C119.967 18.8877 118.23 20.1182 117.414 21.9927H117.195V19.1177H113.895V36.7819H117.333V26.2937ZM141.495 19.1177H137.873V14.8856H134.434V19.1177H131.847V21.8777H134.434V32.3083C134.423 35.5168 136.872 37.0694 139.586 37.0119C140.679 37.0004 141.415 36.7934 141.817 36.6439L141.196 33.8033C140.966 33.8493 140.541 33.9528 139.989 33.9528C138.873 33.9528 137.873 33.5848 137.873 31.5953V21.8777H141.495V19.1177Z" fill="white"/>
<defs>
<clipPath id="clip0">
<rect width="29" height="37" fill="white"/>
</clipPath>
</defs>
</svg>
