<svg width="87" height="29" viewBox="0 0 87 29" fill="none" xmlns="http://www.w3.org/2000/svg">
<rect width="87" height="29" fill="#4F46E5"/>
<path d="M40.3462 12.2283H42.5567C42.5248 10.2841 40.9268 8.94176 38.4978 8.94176C36.1061 8.94176 34.3536 10.2628 34.3643 12.2443C34.3589 13.853 35.4935 14.7745 37.3366 15.2166L38.5244 15.5149C39.7123 15.8026 40.3728 16.1435 40.3781 16.8786C40.3728 17.6776 39.6164 18.2209 38.4445 18.2209C37.246 18.2209 36.3831 17.6669 36.3085 16.5749H34.0766C34.1352 18.9347 35.8238 20.1545 38.4712 20.1545C41.1345 20.1545 42.7006 18.8814 42.7059 16.8839C42.7006 15.0675 41.3316 14.1033 39.4353 13.6772L38.4552 13.4428C37.507 13.2244 36.7134 12.8729 36.7293 12.0898C36.7293 11.3867 37.3526 10.87 38.4818 10.87C39.5844 10.87 40.2609 11.3707 40.3462 12.2283ZM46.5478 20.1545C47.7569 20.1545 48.54 19.6271 48.9395 18.8654H49.0034V20H51.1554V14.4815C51.1554 12.532 49.5041 11.7116 47.6824 11.7116C45.7221 11.7116 44.4331 12.6491 44.1188 14.1406L46.2175 14.3111C46.372 13.7678 46.8567 13.3683 47.6717 13.3683C48.4441 13.3683 48.8862 13.7571 48.8862 14.4283V14.4602C48.8862 14.9876 48.3269 15.0568 46.9047 15.1953C45.2854 15.3445 43.8312 15.8878 43.8312 17.7148C43.8312 19.3342 44.9871 20.1545 46.5478 20.1545ZM47.1976 18.5884C46.4998 18.5884 45.9991 18.2635 45.9991 17.6403C45.9991 17.0011 46.5265 16.6868 47.3255 16.5749C47.8209 16.5057 48.6305 16.3885 48.9022 16.2074V17.0756C48.9022 17.9332 48.1937 18.5884 47.1976 18.5884ZM57.3157 11.8182H55.6911V11.2695C55.6911 10.7156 55.9148 10.3906 56.5806 10.3906C56.8523 10.3906 57.1293 10.4492 57.3104 10.5078L57.7099 8.80327C57.4276 8.71804 56.8043 8.57954 56.1066 8.57954C54.5671 8.57954 53.4219 9.4478 53.4219 11.2269V11.8182H52.266V13.5227H53.4219V20H55.6911V13.5227H57.3157V11.8182ZM62.1377 20.1598C64.1619 20.1598 65.5255 19.1744 65.8451 17.6562L63.7464 17.5178C63.5173 18.141 62.9314 18.4659 62.175 18.4659C61.0404 18.4659 60.3213 17.7148 60.3213 16.495V16.4897H65.893V15.8665C65.893 13.0859 64.2098 11.7116 62.0472 11.7116C59.6395 11.7116 58.0788 13.4215 58.0788 15.9464C58.0788 18.5405 59.6182 20.1598 62.1377 20.1598ZM60.3213 15.0835C60.3692 14.1513 61.0777 13.4055 62.0844 13.4055C63.0699 13.4055 63.7517 14.1087 63.757 15.0835H60.3213ZM69.1383 11.8182H66.7946L69.1383 15.9091L66.7094 20H69.0531L70.6405 17.1715L72.2545 20H74.5716L72.1373 15.9091L74.5077 11.8182H72.1799L70.6405 14.6786L69.1383 11.8182Z" fill="white"/>
<rect x="3" y="4" width="23" height="21" fill="white"/>
<path d="M14 17.3334C14.7334 17.3334 15.3334 16.7334 15.3334 16.0001C15.3334 15.2667 14.7334 14.6667 14 14.6667C13.2667 14.6667 12.6667 15.2667 12.6667 16.0001C12.6667 16.7334 13.2667 17.3334 14 17.3334ZM18 11.3334H17.3334V10.0001C17.3334 8.16008 15.84 6.66675 14 6.66675C12.16 6.66675 10.6667 8.16008 10.6667 10.0001H11.9334C11.9334 8.86008 12.86 7.93341 14 7.93341C15.14 7.93341 16.0667 8.86008 16.0667 10.0001V11.3334H10C9.26669 11.3334 8.66669 11.9334 8.66669 12.6667V19.3334C8.66669 20.0667 9.26669 20.6667 10 20.6667H18C18.7334 20.6667 19.3334 20.0667 19.3334 19.3334V12.6667C19.3334 11.9334 18.7334 11.3334 18 11.3334ZM18 19.3334H10V12.6667H18V19.3334Z" fill="#4F46E5"/>
</svg>
