<svg width="87" height="29" viewBox="0 0 87 29" fill="none" xmlns="http://www.w3.org/2000/svg">
<rect width="87" height="29" fill="white"/>
<path d="M36.8661 12.2283H39.0767C39.0447 10.2841 37.4467 8.94176 35.0178 8.94176C32.6261 8.94176 30.8736 10.2628 30.8842 12.2443C30.8789 13.853 32.0135 14.7745 33.8565 15.2166L35.0444 15.5149C36.2322 15.8026 36.8928 16.1435 36.8981 16.8786C36.8928 17.6776 36.1364 18.2209 34.9645 18.2209C33.766 18.2209 32.9031 17.6669 32.8285 16.5749H30.5966C30.6552 18.9347 32.3438 20.1545 34.9911 20.1545C37.6545 20.1545 39.2205 18.8814 39.2259 16.8839C39.2205 15.0675 37.8516 14.1033 35.9553 13.6772L34.9751 13.4428C34.027 13.2244 33.2333 12.8729 33.2493 12.0898C33.2493 11.3867 33.8725 10.87 35.0018 10.87C36.1044 10.87 36.7809 11.3707 36.8661 12.2283ZM43.0677 20.1545C44.2769 20.1545 45.0599 19.6271 45.4594 18.8654H45.5233V20H47.6753V14.4815C47.6753 12.532 46.0241 11.7116 44.2023 11.7116C42.2421 11.7116 40.953 12.6491 40.6388 14.1406L42.7375 14.3111C42.892 13.7678 43.3767 13.3683 44.1917 13.3683C44.964 13.3683 45.4062 13.7571 45.4062 14.4283V14.4602C45.4062 14.9876 44.8469 15.0568 43.4246 15.1953C41.8053 15.3445 40.3511 15.8878 40.3511 17.7148C40.3511 19.3342 41.507 20.1545 43.0677 20.1545ZM43.7176 18.5884C43.0198 18.5884 42.5191 18.2635 42.5191 17.6403C42.5191 17.0011 43.0464 16.6868 43.8454 16.5749C44.3408 16.5057 45.1505 16.3885 45.4221 16.2074V17.0756C45.4221 17.9332 44.7137 18.5884 43.7176 18.5884ZM53.8357 11.8182H52.211V11.2695C52.211 10.7156 52.4347 10.3906 53.1006 10.3906C53.3722 10.3906 53.6492 10.4492 53.8303 10.5078L54.2298 8.80327C53.9475 8.71804 53.3243 8.57954 52.6265 8.57954C51.0871 8.57954 49.9419 9.4478 49.9419 11.2269V11.8182H48.786V13.5227H49.9419V20H52.211V13.5227H53.8357V11.8182ZM58.6577 20.1598C60.6818 20.1598 62.0455 19.1744 62.3651 17.6562L60.2663 17.5178C60.0373 18.141 59.4513 18.4659 58.695 18.4659C57.5604 18.4659 56.8413 17.7148 56.8413 16.495V16.4897H62.413V15.8665C62.413 13.0859 60.7298 11.7116 58.5671 11.7116C56.1594 11.7116 54.5987 13.4215 54.5987 15.9464C54.5987 18.5405 56.1381 20.1598 58.6577 20.1598ZM56.8413 15.0835C56.8892 14.1513 57.5977 13.4055 58.6044 13.4055C59.5898 13.4055 60.2717 14.1087 60.277 15.0835H56.8413ZM65.6583 11.8182H63.3145L65.6583 15.9091L63.2293 20H65.5731L67.1604 17.1715L68.7744 20H71.0915L68.6572 15.9091L71.0276 11.8182H68.6998L67.1604 14.6786L65.6583 11.8182Z" fill="#6200EA"/>
<rect x="3" y="4" width="23" height="21" fill="white"/>
<rect width="19" height="17" transform="translate(5 6)" fill="#6200EA"/>
<path d="M14.5 18.0417C15.3708 18.0417 16.0833 17.4042 16.0833 16.625C16.0833 15.8459 15.3708 15.2084 14.5 15.2084C13.6291 15.2084 12.9166 15.8459 12.9166 16.625C12.9166 17.4042 13.6291 18.0417 14.5 18.0417ZM19.25 11.6667H18.4583V10.25C18.4583 8.29504 16.685 6.70837 14.5 6.70837C12.315 6.70837 10.5416 8.29504 10.5416 10.25H12.0458C12.0458 9.03879 13.1462 8.05421 14.5 8.05421C15.8537 8.05421 16.9541 9.03879 16.9541 10.25V11.6667H9.74996C8.87913 11.6667 8.16663 12.3042 8.16663 13.0834V20.1667C8.16663 20.9459 8.87913 21.5834 9.74996 21.5834H19.25C20.1208 21.5834 20.8333 20.9459 20.8333 20.1667V13.0834C20.8333 12.3042 20.1208 11.6667 19.25 11.6667ZM19.25 20.1667H9.74996V13.0834H19.25V20.1667Z" fill="white"/>
</svg>
