<?xml version="1.0"?>
<svg xmlns="http://www.w3.org/2000/svg" xmlns:xlink="http://www.w3.org/1999/xlink" xmlns:svgjs="http://svgjs.com/svgjs" version="1.1" width="50" height="50" x="0" y="0" viewBox="0 0 512 512" style="enable-background:new 0 0 512 512" xml:space="preserve"><g><path xmlns="http://www.w3.org/2000/svg" d="m15 256c0-64.375 25.0625-124.894531 70.574219-170.414062 45.511719-45.519532 106.023437-70.585938 170.386719-70.585938 57.382812 0 112.972656 20.515625 156.519531 57.761719 3.148437 2.691406 7.882812 2.324219 10.574219-.824219 2.691406-3.148438 2.324218-7.882812-.824219-10.574219-46.261719-39.570312-105.3125-61.363281-166.269531-61.363281-68.371094 0-132.648438 26.628906-180.992188 74.980469-48.34375 48.351562-74.96875 112.640625-74.96875 181.019531 0 36.285156 7.4375 71.351562 22.105469 104.226562 1.246093 2.789063 3.984375 4.445313 6.855469 4.445313 1.019531 0 2.058593-.210937 3.050781-.652344 3.785156-1.6875 5.480469-6.125 3.792969-9.90625-13.804688-30.9375-20.804688-63.949219-20.804688-98.113281zm0 0" fill="#4338CA" data-original="#000000" style=""/><path xmlns="http://www.w3.org/2000/svg" d="m449.636719 88.621094c-2.707031-3.132813-7.445313-3.476563-10.578125-.765625-3.132813 2.707031-3.476563 7.445312-.769532 10.578125 37.808594 43.722656 58.628907 99.683594 58.628907 157.566406 0 64.371094-25.0625 124.894531-70.574219 170.410156-45.511719 45.523438-106.023438 70.589844-170.382812 70.589844-82.007813 0-157.640626-41.140625-202.320313-110.046875-2.253906-3.476563-6.898437-4.464844-10.375-2.214844-3.476563 2.253907-4.464844 6.898438-2.210937 10.375 47.457031 73.191407 127.796874 116.886719 214.90625 116.886719 68.367187 0 132.644531-26.628906 180.988281-74.980469 48.34375-48.351562 74.96875-112.640625 74.96875-181.019531 0-61.484375-22.117188-120.929688-62.28125-167.378906zm0 0" fill="#4338CA" data-original="#000000" style=""/><path xmlns="http://www.w3.org/2000/svg" d="m349.898438 348.082031c-27.023438 17.058594-58.308594 26.074219-90.46875 26.074219-10.582032 0-21.171876-.976562-31.476563-2.90625-4.066406-.765625-7.988281 1.921875-8.753906 5.992188-.761719 4.070312 1.921875 7.988281 5.992187 8.75 11.214844 2.101562 22.734375 3.164062 34.238282 3.164062 35 0 69.050781-9.816406 98.472656-28.390625 6.703125-4.230469 10.703125-11.503906 10.703125-19.460937 0-29.1875-11.351563-56.605469-31.96875-77.199219-12.480469-12.480469-27.449219-21.566407-43.78125-26.796875 17.238281-11.054688 28.699219-30.375 28.699219-52.332032 0-34.257812-27.871094-62.132812-62.125-62.132812-34.253907 0-62.125 27.875-62.125 62.132812 0 21.976563 11.476562 41.3125 28.742187 52.359376-43.921875 14.140624-75.796875 55.398437-75.796875 103.96875 0 7.957031 4 15.230468 10.703125 19.460937 9.820313 6.199219 20.273437 11.488281 31.0625 15.714844 3.859375 1.511719 8.207031-.390625 9.71875-4.246094s-.390625-8.207031-4.246094-9.71875c-9.910156-3.882813-19.511719-8.738281-28.53125-14.433594-2.320312-1.464843-3.707031-4-3.707031-6.777343 0-51.941407 42.246094-94.195313 94.175781-94.195313 25.152344 0 48.804688 9.800781 66.605469 27.605469 17.78125 17.761718 27.574219 41.414062 27.574219 66.589844 0 2.777343-1.382813 5.3125-3.707031 6.777343zm-137.59375-163.105469c0-25.988281 21.140624-47.132812 47.125-47.132812 25.984374 0 47.125 21.144531 47.125 47.132812 0 25.988282-21.140626 47.132813-47.125 47.132813-25.984376 0-47.125-21.144531-47.125-47.132813zm0 0" fill="#4338CA" data-original="#000000" style=""/></g></svg>
