<svg width="480" height="480" viewBox="0 0 480 480" fill="none" xmlns="http://www.w3.org/2000/svg">
<path d="M184 160H168V176H184V160Z" fill="#4F46E5"/>
<path d="M184 192H168V208H184V192Z" fill="#4F46E5"/>
<path d="M184 224H168V240H184V224Z" fill="#4F46E5"/>
<path d="M184 256H168V272H184V256Z" fill="#4F46E5"/>
<path d="M216 160H200V176H216V160Z" fill="#4F46E5"/>
<path d="M216 192H200V208H216V192Z" fill="#4F46E5"/>
<path d="M216 224H200V240H216V224Z" fill="#4F46E5"/>
<path d="M216 256H200V272H216V256Z" fill="#4F46E5"/>
<path d="M248 160H232V176H248V160Z" fill="#4F46E5"/>
<path d="M248 192H232V208H248V192Z" fill="#4F46E5"/>
<path d="M248 224H232V240H248V224Z" fill="#4F46E5"/>
<path d="M248 256H232V272H248V256Z" fill="#4F46E5"/>
<path d="M280 160H264V176H280V160Z" fill="#4F46E5"/>
<path d="M216 128H200V144H216V128Z" fill="#4F46E5"/>
<path d="M248 128H232V144H248V128Z" fill="#4F46E5"/>
<path d="M280 128H264V144H280V128Z" fill="#4F46E5"/>
<path d="M280 192H264V208H280V192Z" fill="#4F46E5"/>
<path d="M280 224H264V240H280V224Z" fill="#4F46E5"/>
<path d="M280 256H264V272H280V256Z" fill="#4F46E5"/>
<path d="M312 160H296V176H312V160Z" fill="#4F46E5"/>
<path d="M312 192H296V208H312V192Z" fill="#4F46E5"/>
<path d="M312 224H296V240H312V224Z" fill="#4F46E5"/>
<path d="M312 256H296V272H312V256Z" fill="#4F46E5"/>
<path d="M472.009 120C472.006 120 472.003 120 472 120H352V8C352.003 3.584 348.425 0.00300189 344.009 1.88515e-06C344.006 1.88515e-06 344.003 1.88515e-06 344 1.88515e-06H136C131.584 -0.00299811 128.003 3.575 128 7.991C128 7.994 128 7.997 128 8V120H8C3.584 119.997 0.00300189 123.575 1.88515e-06 127.991C1.88515e-06 127.994 1.88515e-06 127.997 1.88515e-06 128V416C-0.00299811 420.416 3.575 423.997 7.991 424C7.994 424 7.997 424 8 424H24.723C24.259 426.642 24.017 429.318 24 432V472C23.997 476.416 27.575 479.997 31.991 480C31.994 480 31.997 480 32 480H448C452.416 480.003 455.997 476.425 456 472.009C456 472.006 456 472.003 456 472V432C455.984 429.318 455.742 426.642 455.277 424H472C476.416 424.003 479.997 420.425 480 416.009C480 416.006 480 416.003 480 416V128C480.003 123.584 476.425 120.003 472.009 120ZM344 344C344 352.837 336.837 360 328 360C319.163 360 312 352.837 312 344C312 335.163 319.163 328 328 328C336.832 328.011 343.989 335.168 344 344ZM152 328C160.837 328 168 335.163 168 344C168 352.837 160.837 360 152 360C143.163 360 136 352.837 136 344C136.011 335.168 143.168 328.011 152 328ZM104 464H40V432C40 414.327 54.327 400 72 400C89.673 400 104 414.327 104 432V464ZM56 368C56 359.163 63.163 352 72 352C80.837 352 88 359.163 88 368C88 376.837 80.837 384 72 384C63.168 383.989 56.011 376.832 56 368ZM105.212 397.425C102.195 394.515 98.812 392.011 95.148 389.976C107.35 377.192 106.879 356.936 94.095 344.733C81.311 332.53 61.055 333.002 48.852 345.786C37.049 358.151 37.049 377.61 48.852 389.975C41.216 394.213 34.872 400.442 30.494 407.999H16V136H128V323.056C117.014 335.383 117.385 354.095 128.852 365.976C116.852 372.613 108.253 384.053 105.212 397.425ZM184 464H120V408C120 390.327 134.327 376 152 376C169.673 376 184 390.327 184 408V464ZM280 464H200V408C200 385.909 217.909 368 240 368C262.091 368 280 385.909 280 408V464ZM216 328C216 314.745 226.745 304 240 304C253.255 304 264 314.745 264 328C264 341.255 253.255 352 240 352C226.751 351.986 216.014 341.249 216 328ZM288.722 380.495C283.365 371.051 275.395 363.356 265.769 358.335C282.666 344.103 284.826 318.868 270.595 301.971C256.363 285.074 231.128 282.914 214.231 297.145C197.334 311.377 195.174 336.612 209.405 353.509C210.873 355.252 212.487 356.866 214.231 358.335C204.605 363.356 196.635 371.051 191.278 380.495C187.072 374.495 181.556 369.53 175.148 365.976C187.413 353.429 187.185 333.314 174.637 321.049C166.558 313.151 154.893 310.139 144 313.136V16H336V313.136C333.393 312.417 330.704 312.035 328 312C310.374 311.953 296.047 326.204 296 343.831C295.978 352.079 299.151 360.016 304.852 365.976C298.444 369.53 292.928 374.495 288.722 380.495ZM360 432V464H296V408C296 390.327 310.327 376 328 376C345.673 376 360 390.327 360 408V432ZM440 464H376V432C376 414.327 390.327 400 408 400C425.673 400 440 414.327 440 432V464ZM392 368C392 359.163 399.163 352 408 352C416.837 352 424 359.163 424 368C424 376.837 416.837 384 408 384C399.168 383.989 392.011 376.832 392 368ZM464 408H449.506C445.128 400.443 438.784 394.214 431.148 389.976C443.35 377.192 442.879 356.936 430.095 344.733C417.311 332.531 397.055 333.002 384.852 345.786C373.049 358.151 373.049 377.61 384.852 389.975C381.188 392.01 377.804 394.514 374.788 397.424C371.748 384.052 363.148 372.612 351.148 365.975C362.615 354.094 362.987 335.382 352.001 323.055V136H464.001V408H464Z" fill="#4F46E5"/>
<path d="M392 184H376V312H392V184Z" fill="#4F46E5"/>
<path d="M440 184H424V312H440V184Z" fill="#4F46E5"/>
<path d="M56 184H40V312H56V184Z" fill="#4F46E5"/>
<path d="M104 184H88V312H104V184Z" fill="#4F46E5"/>
<path d="M288.009 32C288.006 32 288.003 32 288 32H192C187.584 31.997 184.003 35.575 184 39.991C184 39.994 184 39.997 184 40V104C183.997 108.416 187.575 111.997 191.991 112C191.994 112 191.997 112 192 112H288C292.416 112.003 295.997 108.425 296 104.009C296 104.006 296 104.003 296 104V40C296.003 35.584 292.425 32.003 288.009 32ZM280 96H200V48H280V96Z" fill="#4F46E5"/>
</svg>
