<svg width="939" height="908" viewBox="0 0 939 908" fill="none" xmlns="http://www.w3.org/2000/svg">
<path fill-rule="evenodd" clip-rule="evenodd" d="M440.56 47.4571C544.001 58.6432 651.854 53.056 738.921 102.268C828.411 152.849 894.211 231.567 922.996 320.138C951.045 406.446 942.622 501.673 894.578 581.227C850.422 654.342 751.199 681.45 674.736 731.215C596.024 782.445 535.801 854.196 440.56 876.723C324.754 904.115 183.276 933.722 89.0979 869.735C-5.21601 805.656 3.50122 680.636 0.0815377 577.452C-2.56566 497.577 60.0413 431.123 71.935 351.869C88.2483 243.167 -9.97697 107.234 82.0539 31.234C170.441 -41.7564 318.853 34.2956 440.56 47.4571Z" fill="#266AFB"/>
<path fill-rule="evenodd" clip-rule="evenodd" d="M443.738 100.158C539.562 107.873 619.009 153.106 700.054 195.381C786.707 240.583 896.737 274.527 929.914 353.763C963.178 433.209 896.598 513.589 866.946 593.975C836.412 676.75 835.297 773.73 754.341 829.734C671.478 887.057 552.412 891.048 443.738 886.743C339.321 882.607 220.27 871.945 154.375 805.967C90.6315 742.144 134.865 648.374 124.029 566.635C116.078 506.658 95.9676 451.489 99.3954 391.228C104.123 308.113 76.7307 210.878 147.676 150.909C219.343 90.3292 340.854 91.8751 443.738 100.158Z" fill="#F6AD55"/>
<path d="M542.404 531.941C542.882 527.953 543.201 523.806 543.201 519.5C543.201 515.193 542.882 511.046 542.244 507.059L569.2 486.005C571.592 484.091 572.23 480.582 570.795 477.87L545.275 433.689C543.68 430.818 540.33 429.861 537.459 430.818L505.719 443.578C499.02 438.474 492.002 434.327 484.186 431.137L479.401 397.323C478.923 394.133 476.211 391.9 473.021 391.9H421.981C418.791 391.9 416.239 394.133 415.761 397.323L410.976 431.137C403.16 434.327 395.983 438.633 389.443 443.578L357.703 430.818C354.832 429.701 351.482 430.818 349.887 433.689L324.367 477.87C322.772 480.741 323.41 484.091 325.962 486.005L352.918 507.059C352.28 511.046 351.801 515.353 351.801 519.5C351.801 523.647 352.12 527.953 352.758 531.941L325.803 552.995C323.41 554.909 322.772 558.418 324.208 561.129L349.728 605.311C351.323 608.182 354.672 609.139 357.543 608.182L389.284 595.422C395.983 600.526 403.001 604.673 410.816 607.863L415.601 641.677C416.239 644.867 418.791 647.1 421.981 647.1H473.021C476.211 647.1 478.923 644.867 479.242 641.677L484.027 607.863C491.842 604.673 499.02 600.366 505.559 595.422L537.3 608.182C540.171 609.298 543.52 608.182 545.115 605.311L570.635 561.129C572.23 558.258 571.592 554.909 569.04 552.995L542.404 531.941V531.941ZM447.501 567.35C421.184 567.35 399.651 545.817 399.651 519.5C399.651 493.182 421.184 471.65 447.501 471.65C473.819 471.65 495.351 493.182 495.351 519.5C495.351 545.817 473.819 567.35 447.501 567.35Z" fill="white"/>
<path d="M292.539 270.42H277.179V288H268.959V246H277.179V263.1H292.539V246H300.759V288H292.539V270.42ZM306.421 273C306.421 267.92 307.661 264.02 310.141 261.3C312.621 258.54 316.101 257.16 320.581 257.16C322.981 257.16 325.061 257.54 326.821 258.3C328.581 259.06 330.041 260.14 331.201 261.54C332.361 262.9 333.221 264.56 333.781 266.52C334.381 268.48 334.681 270.64 334.681 273C334.681 278.08 333.441 282 330.961 284.76C328.521 287.48 325.061 288.84 320.581 288.84C318.181 288.84 316.101 288.46 314.341 287.7C312.581 286.94 311.101 285.88 309.901 284.52C308.741 283.12 307.861 281.44 307.261 279.48C306.701 277.52 306.421 275.36 306.421 273ZM314.461 273C314.461 274.32 314.581 275.54 314.821 276.66C315.061 277.78 315.421 278.76 315.901 279.6C316.381 280.44 317.001 281.1 317.761 281.58C318.561 282.02 319.501 282.24 320.581 282.24C322.621 282.24 324.141 281.5 325.141 280.02C326.141 278.54 326.641 276.2 326.641 273C326.641 270.24 326.181 268.02 325.261 266.34C324.341 264.62 322.781 263.76 320.581 263.76C318.661 263.76 317.161 264.48 316.081 265.92C315.001 267.36 314.461 269.72 314.461 273ZM361.281 258L366.741 273.36L367.821 278.34H368.061L368.901 273.3L372.741 258H379.881L370.641 288.3H364.881L358.821 271.5L358.041 267.72H357.741L357.021 271.56L351.261 288.3H345.321L335.661 258H344.121L348.501 273.06L349.221 278.4H349.521L350.541 273L355.521 258H361.281ZM397.534 246H405.754V288H397.534V246ZM410.503 258H414.643V252.36L422.443 250.14V258H429.763V264.6H422.443V276.12C422.443 278.2 422.643 279.7 423.043 280.62C423.483 281.5 424.283 281.94 425.443 281.94C426.243 281.94 426.923 281.86 427.483 281.7C428.083 281.54 428.743 281.3 429.463 280.98L430.843 286.98C429.763 287.5 428.503 287.94 427.063 288.3C425.623 288.66 424.163 288.84 422.683 288.84C419.923 288.84 417.883 288.14 416.563 286.74C415.283 285.3 414.643 282.96 414.643 279.72V264.6H410.503V258ZM459.293 269.46L460.073 276.9H460.313L461.153 269.34L468.473 246H473.873L481.073 269.46L481.913 276.9H482.153L483.053 269.34L488.153 246H496.493L484.913 288.3H479.393L471.893 264.96L470.873 258.54H470.573L469.553 265.02L462.113 288.3H456.293L444.773 246H453.713L459.293 269.46ZM495.328 273C495.328 267.92 496.568 264.02 499.048 261.3C501.528 258.54 505.008 257.16 509.488 257.16C511.888 257.16 513.968 257.54 515.728 258.3C517.488 259.06 518.948 260.14 520.108 261.54C521.268 262.9 522.128 264.56 522.688 266.52C523.288 268.48 523.588 270.64 523.588 273C523.588 278.08 522.348 282 519.868 284.76C517.428 287.48 513.968 288.84 509.488 288.84C507.088 288.84 505.008 288.46 503.248 287.7C501.488 286.94 500.008 285.88 498.808 284.52C497.648 283.12 496.768 281.44 496.168 279.48C495.608 277.52 495.328 275.36 495.328 273ZM503.368 273C503.368 274.32 503.488 275.54 503.728 276.66C503.968 277.78 504.328 278.76 504.808 279.6C505.288 280.44 505.908 281.1 506.668 281.58C507.468 282.02 508.408 282.24 509.488 282.24C511.528 282.24 513.048 281.5 514.048 280.02C515.048 278.54 515.548 276.2 515.548 273C515.548 270.24 515.088 268.02 514.168 266.34C513.248 264.62 511.688 263.76 509.488 263.76C507.568 263.76 506.068 264.48 504.988 265.92C503.908 267.36 503.368 269.72 503.368 273ZM545.554 265.32C544.314 264.88 543.194 264.66 542.194 264.66C540.794 264.66 539.614 265.04 538.654 265.8C537.734 266.52 537.114 267.46 536.794 268.62V288H528.994V258H535.054L535.954 261.96H536.194C536.874 260.48 537.794 259.34 538.954 258.54C540.114 257.74 541.474 257.34 543.034 257.34C544.074 257.34 545.254 257.56 546.574 258L545.554 265.32ZM559.929 275.58H557.829V288H550.029V246H557.829V270.78L559.629 269.94L566.469 258H575.049L567.849 269.4L564.789 271.68L568.089 274.02L576.189 288H567.249L559.929 275.58ZM591.922 279.72C591.922 278.92 591.582 278.28 590.902 277.8C590.222 277.32 589.382 276.88 588.382 276.48C587.382 276.08 586.282 275.68 585.082 275.28C583.882 274.84 582.782 274.26 581.782 273.54C580.782 272.78 579.942 271.84 579.262 270.72C578.582 269.56 578.242 268.08 578.242 266.28C578.242 263.32 579.122 261.06 580.882 259.5C582.642 257.94 585.182 257.16 588.502 257.16C590.782 257.16 592.842 257.4 594.682 257.88C596.522 258.36 597.962 258.9 599.002 259.5L597.262 265.14C596.342 264.78 595.182 264.4 593.782 264C592.382 263.6 590.962 263.4 589.522 263.4C587.202 263.4 586.042 264.3 586.042 266.1C586.042 266.82 586.382 267.4 587.062 267.84C587.742 268.28 588.582 268.7 589.582 269.1C590.582 269.46 591.682 269.86 592.882 270.3C594.082 270.74 595.182 271.32 596.182 272.04C597.182 272.72 598.022 273.62 598.702 274.74C599.382 275.86 599.722 277.3 599.722 279.06C599.722 282.1 598.742 284.5 596.782 286.26C594.862 287.98 591.962 288.84 588.082 288.84C585.962 288.84 583.962 288.56 582.082 288C580.242 287.48 578.742 286.86 577.582 286.14L579.742 280.32C580.662 280.84 581.882 281.36 583.402 281.88C584.922 282.36 586.482 282.6 588.082 282.6C589.242 282.6 590.162 282.38 590.842 281.94C591.562 281.5 591.922 280.76 591.922 279.72ZM609.555 275.52C609.355 273.44 609.455 271.68 609.855 270.24C610.255 268.76 610.795 267.5 611.475 266.46C612.195 265.38 612.995 264.46 613.875 263.7C614.795 262.9 615.635 262.14 616.395 261.42C617.195 260.7 617.855 259.96 618.375 259.2C618.895 258.4 619.155 257.46 619.155 256.38C619.155 254.98 618.755 253.86 617.955 253.02C617.195 252.18 615.815 251.76 613.815 251.76C613.175 251.76 612.495 251.84 611.775 252C611.055 252.12 610.335 252.32 609.615 252.6C608.895 252.84 608.195 253.14 607.515 253.5C606.875 253.82 606.295 254.16 605.775 254.52L602.775 248.76C604.295 247.72 606.035 246.86 607.995 246.18C609.995 245.5 612.395 245.16 615.195 245.16C618.955 245.16 621.895 246.08 624.015 247.92C626.135 249.72 627.195 252.16 627.195 255.24C627.195 257.28 626.915 258.98 626.355 260.34C625.835 261.66 625.175 262.8 624.375 263.76C623.575 264.68 622.695 265.5 621.735 266.22C620.775 266.94 619.895 267.72 619.095 268.56C618.295 269.36 617.615 270.3 617.055 271.38C616.495 272.46 616.215 273.84 616.215 275.52H609.555ZM608.355 284.04C608.355 282.64 608.795 281.54 609.675 280.74C610.555 279.9 611.715 279.48 613.155 279.48C614.675 279.48 615.875 279.9 616.755 280.74C617.635 281.54 618.075 282.64 618.075 284.04C618.075 285.44 617.635 286.56 616.755 287.4C615.875 288.24 614.675 288.66 613.155 288.66C611.715 288.66 610.555 288.24 609.675 287.4C608.795 286.56 608.355 285.44 608.355 284.04Z" fill="white"/>
</svg>
