<svg width="314" height="105" viewBox="0 0 314 105" fill="none" xmlns="http://www.w3.org/2000/svg">
<rect width="314" height="104.667" fill="#4F46E5"/>
<path d="M111.055 67.2158H118.743V55.426H125.206C133.569 55.426 138.434 50.4367 138.434 43.1746C138.434 35.9481 133.658 30.8522 125.401 30.8522H111.055V67.2158ZM118.743 49.2648V37.1377H123.928C128.367 37.1377 130.515 39.5525 130.515 43.1746C130.515 46.779 128.367 49.2648 123.963 49.2648H118.743ZM155.169 67.7485C163.443 67.7485 168.592 62.0844 168.592 53.686C168.592 45.2343 163.443 39.588 155.169 39.588C146.895 39.588 141.745 45.2343 141.745 53.686C141.745 62.0844 146.895 67.7485 155.169 67.7485ZM155.204 61.8891C151.387 61.8891 149.434 58.3912 149.434 53.6327C149.434 48.8742 151.387 45.3586 155.204 45.3586C158.951 45.3586 160.904 48.8742 160.904 53.6327C160.904 58.3912 158.951 61.8891 155.204 61.8891ZM173.51 67.2158H181.074V51.7861C181.074 48.4303 183.525 46.1221 186.863 46.1221C187.91 46.1221 189.348 46.2996 190.059 46.5305V39.8188C189.384 39.659 188.443 39.5525 187.679 39.5525C184.625 39.5525 182.122 41.328 181.128 44.7016H180.844V39.9431H173.51V67.2158ZM209.843 39.9431H204.712V33.409H197.148V39.9431H193.419V45.6249H197.148V59.8295C197.112 65.1739 200.752 67.8195 206.239 67.5887C208.192 67.5177 209.577 67.127 210.34 66.8785L209.151 61.2499C208.778 61.3209 207.979 61.4985 207.268 61.4985C205.759 61.4985 204.712 60.9303 204.712 58.8351V45.6249H209.843V39.9431ZM226.906 67.7485C233.653 67.7485 238.199 64.4637 239.264 59.4033L232.268 58.9417C231.505 61.0191 229.552 62.1022 227.03 62.1022C223.249 62.1022 220.851 59.5986 220.851 55.5326V55.5148H239.424V53.4374C239.424 44.1689 233.813 39.588 226.604 39.588C218.579 39.588 213.376 45.2876 213.376 53.7037C213.376 62.3508 218.508 67.7485 226.906 67.7485ZM220.851 50.8273C221.011 47.7201 223.373 45.2343 226.729 45.2343C230.013 45.2343 232.286 47.578 232.304 50.8273H220.851ZM250.242 39.9431H242.429L250.242 53.5795L242.145 67.2158H249.957L255.249 57.7876L260.629 67.2158H268.352L260.238 53.5795L268.139 39.9431H260.38L255.249 49.4779L250.242 39.9431Z" fill="white"/>
<rect x="10.8276" y="14.4368" width="83.0115" height="75.7931" fill="white"/>
<path d="M50.5288 62.5596C53.1756 62.5596 55.3411 60.3941 55.3411 57.7474C55.3411 55.1006 53.1756 52.9351 50.5288 52.9351C47.8821 52.9351 45.7166 55.1006 45.7166 57.7474C45.7166 60.3941 47.8821 62.5596 50.5288 62.5596ZM64.9656 40.9044H62.5595V36.0922C62.5595 29.4513 57.1697 24.0615 50.5288 24.0615C43.8879 24.0615 38.4982 29.4513 38.4982 36.0922H43.0698C43.0698 31.9777 46.4143 28.6332 50.5288 28.6332C54.6433 28.6332 57.9878 31.9777 57.9878 36.0922V40.9044H36.092C33.4453 40.9044 31.2798 43.07 31.2798 45.7167V69.778C31.2798 72.4247 33.4453 74.5903 36.092 74.5903H64.9656C67.6123 74.5903 69.7779 72.4247 69.7779 69.778V45.7167C69.7779 43.07 67.6123 40.9044 64.9656 40.9044ZM64.9656 69.778H36.092V45.7167H64.9656V69.778Z" fill="#4F46E5"/>
</svg>
